<svg xmlns="http://www.w3.org/2000/svg" xmlns:xlink="http://www.w3.org/1999/xlink" width="205" height="328" viewBox="0 0 205 328">
  <defs>
    <filter id="Rectangle_2" x="0" y="0" width="205" height="328" filterUnits="userSpaceOnUse">
      <feOffset dy="3" input="SourceAlpha"/>
      <feGaussianBlur stdDeviation="8" result="blur"/>
      <feFlood flood-opacity="0.078"/>
      <feComposite operator="in" in2="blur"/>
      <feComposite in="SourceGraphic"/>
    </filter>
  </defs>
  <g id="Group_8" data-name="Group 8" transform="translate(3 -221)">
    <g transform="matrix(1, 0, 0, 1, -3, 221)" filter="url(#Rectangle_2)">
      <rect id="Rectangle_2-2" data-name="Rectangle 2" width="157" height="280" rx="8" transform="translate(24 21)" fill="#fff"/>
    </g>
    <text id="Account_Settings" data-name="Account Settings" transform="translate(36 261)" fill="#181461" font-size="16" font-family="Lato-Bold, Lato" font-weight="700"><tspan x="0" y="16">Account Settings</tspan></text>
    <g id="Group_7" data-name="Group 7" transform="translate(-679.334 445.177)">
      <g id="undraw_personal_site_xyd1" transform="translate(732 -111.978)">
        <path id="Path_10" data-name="Path 10" d="M319.878,305.25H285.762A3.764,3.764,0,0,0,282,309.014V355.3a3.764,3.764,0,0,0,3.764,3.762h34.113a3.764,3.764,0,0,0,3.767-3.762V309.014a3.764,3.764,0,0,0-3.767-3.764Z" transform="translate(-235.924 -296.86)" fill="#2a2ac0" opacity="0.3"/>
        <path id="Path_12" data-name="Path 12" d="M272.822,424.79c-1.683.639-5.6.712-7.349.708h-.857l-1.117-2.273,1.117-1.9s1.025-.28,2.385-.527c2.009-.362,4.757-.659,6.068.168C275.267,422.326,275.02,423.956,272.822,424.79Z" transform="translate(-221.128 -373.277)" fill="#fec2be"/>
        <path id="Path_13" data-name="Path 13" d="M265.473,426.237h-.857l-1.117-2.273,1.117-1.9s1.025-.28,2.385-.527C265.9,422.35,263.243,424.109,265.473,426.237Z" transform="translate(-221.128 -374.016)" opacity="0.1"/>
        <path id="Path_14" data-name="Path 14" d="M209.672,349.89l.494-.57s2.536,4.019,2.8,5.534.606,3.258.606,3.258.659,1.977,1.061,2.843a10.222,10.222,0,0,1,.833,2.085,1.809,1.809,0,0,0,.659,1.743,3.176,3.176,0,0,1,.988,1.976s2.879,2.807,4.394,2.882,5.877.833,5.725,1.591,1.818,1.212,2.612,1.4-5.116,2.464-1.667,5.383c0,0-2.2.455-2.424.988s-2.54-.3-2.54-.3a2.4,2.4,0,0,0-2.2-1.249,3.437,3.437,0,0,1-2.576-.949,9.557,9.557,0,0,0-2.655-1.318c-.949-.257-2.2-.379-2.237-.642s-5.682-24.633-5.682-24.633Z" transform="translate(-183.824 -325.586)" fill="#4c4981"/>
        <path id="Path_15" data-name="Path 15" d="M209.672,349.89l.494-.57s2.536,4.019,2.8,5.534.606,3.258.606,3.258.659,1.977,1.061,2.843a10.222,10.222,0,0,1,.833,2.085,1.809,1.809,0,0,0,.659,1.743,3.176,3.176,0,0,1,.988,1.976s2.879,2.807,4.394,2.882,5.877.833,5.725,1.591,1.818,1.212,2.612,1.4-5.116,2.464-1.667,5.383c0,0-2.2.455-2.424.988s-2.54-.3-2.54-.3a2.4,2.4,0,0,0-2.2-1.249,3.437,3.437,0,0,1-2.576-.949,9.557,9.557,0,0,0-2.655-1.318c-.949-.257-2.2-.379-2.237-.642s-5.682-24.633-5.682-24.633Z" transform="translate(-183.824 -325.586)" fill="#192534"/>
        <path id="Path_16" data-name="Path 16" d="M181.536,646.112c-5,.939-5.913-2.9-5.913-2.9a28.694,28.694,0,0,0-.85-3.666.409.409,0,0,1-.04-.329h0a4.431,4.431,0,0,1,.735-1.6c.313-.369.056-1.9.056-1.9l5.8-1.479a8.95,8.95,0,0,1,.57,1.706c.056.54.909,2.984.824,3.324a13.636,13.636,0,0,0,.425,1.934c.056.54.768,1.337.827,1.621a6.7,6.7,0,0,0,.329.748,7.688,7.688,0,0,1,.369,1.156C184.919,645.911,181.536,646.112,181.536,646.112Z" transform="translate(-161.59 -516.644)" fill="#3f3d56"/>
        <path id="Path_17" data-name="Path 17" d="M181.536,656.265c-5,.939-5.913-2.9-5.913-2.9a28.694,28.694,0,0,0-.85-3.666.408.408,0,0,1-.04-.329l1.2,3.452s.988,2.075,4.691,1.762a8.606,8.606,0,0,0,3.64-.873,7.686,7.686,0,0,1,.369,1.156C184.919,656.064,181.536,656.265,181.536,656.265Z" transform="translate(-161.59 -526.796)" opacity="0.1"/>
        <path id="Path_18" data-name="Path 18" d="M183.6,651.888s1.252.03,1.337-.988Z" transform="translate(-167.548 -527.822)" opacity="0.1"/>
        <path id="Path_19" data-name="Path 19" d="M187.131,482.427c-.626.936-1.337,5.03-1.337,5.03a4.283,4.283,0,0,0-.455,1.733,8.8,8.8,0,0,1-.455,2.247l-1.578,5.883a5.338,5.338,0,0,1-.425,2.672c-.6,1.107-.54.768-.257,2.7s-.329,3.722-1.364,4.282.455,1.9.455,1.9-6.539,1.762-7.906.682.712-6.424.712-6.424a38.308,38.308,0,0,1-.115-5.145c.214-.652,1.2-6.226,1.2-6.226s.6-2.53.369-2.965.142-1.647.142-1.647.965-1.367.88-1.792a2.626,2.626,0,0,1,.287-1.192s-2.9-4.434-2.635-5.271a4.731,4.731,0,0,0-.112-2.158s-.366-.629-.807-1.38c-.54-.922-1.192-2.029-1.41-2.372A28.8,28.8,0,0,1,171,469.61c-.158-.458-.264-.771-.264-.771s-.458,8.357-.853,9.224-.988,7.577-.988,7.577a4.746,4.746,0,0,0-.287,1.878,47.043,47.043,0,0,1-.909,5.626,17.532,17.532,0,0,0-.142,4.095c.283.853.056,7.132.056,7.132a8.2,8.2,0,0,1,1.976,2.161c.412.939-.056,3.5-.056,3.5s-4.549,2.276-6.568,1.68-1.192-4.039-1.192-4.039a10.982,10.982,0,0,1-1.364-3.152,35.7,35.7,0,0,0-.484-3.584c-1.733-3.182-1.051-10.913-1.334-11.529s.6-2.965,1.318-4.006.428-3.894,0-4.72.428-3.666.428-3.666-.824-5.514-.8-6.368a19.2,19.2,0,0,0-.708-3.38s-.741-1.318-.57-1.706-.57-1.42-.369-1.874a5.125,5.125,0,0,0-.54-2.675,15.906,15.906,0,0,1-.606-2.616c-.175-.988-.3-1.845-.3-1.845l4.691-3.782,11.635-3.054,4.408-1.42,4.282,6.763s.441.708.833,1.525a4.624,4.624,0,0,1,.586,1.977,2.731,2.731,0,0,0,.4,1.762s2.56,8.1,2.5,10.429a52.177,52.177,0,0,0,.909,7.448S187.757,481.488,187.131,482.427Z" transform="translate(-149.335 -391.955)" fill="#192534"/>
        <path id="Path_20" data-name="Path 20" d="M174.647,323.189c-.181-.076-12.547-5.182-10.844-6.2,1.011-.6,2.256-3.156,3.106-5.155.6-1.393.988-2.52.988-2.52s9.925-1.762,6.374,4.322a11.2,11.2,0,0,0-1.252,2.994A6.736,6.736,0,0,0,174.647,323.189Z" transform="translate(-154.164 -298.602)" fill="#fec2be"/>
        <path id="Path_21" data-name="Path 21" d="M180.932,313.639a11.2,11.2,0,0,0-1.252,2.994,6.918,6.918,0,0,1-5.86-4.118,6.716,6.716,0,0,1-.26-.679c.6-1.393.988-2.52.988-2.52S184.483,307.555,180.932,313.639Z" transform="translate(-160.816 -298.602)" opacity="0.1"/>
        <path id="Path_22" data-name="Path 22" d="M186.428,296.195a6.934,6.934,0,0,1-13.279,2.8,6.855,6.855,0,0,1-.59-2.8,6.934,6.934,0,0,1,13.6-1.92A6.849,6.849,0,0,1,186.428,296.195Z" transform="translate(-160.145 -285.309)" fill="#fec2be"/>
        <path id="Path_23" data-name="Path 23" d="M182.211,456.578a4.252,4.252,0,0,0-1,1.917s-3.409,2.329-3.182.85-1.762-7.445-1.762-7.445l.227,8.127s-10.917-.511-11.711-1.318-5.458-2.332-5.458-2.332-1.426,1.146-2.737,2.016c-.175-.988-.3-1.845-.3-1.845l4.691-3.782,11.688-3.057,4.408-1.42,4.282,6.763S181.809,455.771,182.211,456.578Z" transform="translate(-149.228 -391.955)" opacity="0.1"/>
        <path id="Path_24" data-name="Path 24" d="M178.916,373.12a3.834,3.834,0,0,0-1.252,2.1s-3.409,2.332-3.182.853-1.762-7.445-1.762-7.445l.227,8.127s-10.913-.511-11.711-1.318-5.455-2.329-5.455-2.329-4.039,3.241-4.776,2.965,1.318-5.8,1.318-5.8l2.1-32.282s-.567-9.606.287-9.948a1.182,1.182,0,0,0,.356-.224,3.619,3.619,0,0,0,.781-2.392c.056-1.021,1.42-.511,1.42-.511l-.794,1.024,7.043,4.282.063.036a8.049,8.049,0,0,1,.847-.382,3.063,3.063,0,0,1,2-.244,1.937,1.937,0,0,1,.744.659,8.421,8.421,0,0,1,.959,1.944l2.536,4.328s1.318,5.742,1.318,5.969.4,5.455.853,6.025a9.5,9.5,0,0,1,.738,4.263,23.169,23.169,0,0,0,.283,4.039c1.878,1.532,2.843,6.763,2.843,6.763s2.965,5.857,3.182,6.539A3.109,3.109,0,0,1,178.916,373.12Z" transform="translate(-145.583 -309.139)" fill="#fff"/>
        <path id="Path_25" data-name="Path 25" d="M172.079,330.938a14.539,14.539,0,0,1-2.685,2.464l-5.765-4.869a3.616,3.616,0,0,0,.781-2.388c.056-1.024,1.42-.514,1.42-.514l-.165.214a.916.916,0,0,0,.247,1.344Z" transform="translate(-154.157 -309.616)" opacity="0.1"/>
        <path id="Path_26" data-name="Path 26" d="M172.079,330.227a14.481,14.481,0,0,1-2.685,2.461l-5.765-4.856a3.619,3.619,0,0,0,.781-2.392c.056-1.021,1.42-.511,1.42-.511l-.165.214a.916.916,0,0,0,.247,1.344Z" transform="translate(-154.157 -309.145)" fill="#fff"/>
        <path id="Path_27" data-name="Path 27" d="M191.643,341.813c-.744.889-1.8,1.9-1.749,1.393a4.4,4.4,0,0,0-1.064-2.125,3.136,3.136,0,0,1,2.065.059A1.871,1.871,0,0,1,191.643,341.813Z" transform="translate(-171.056 -319.964)" opacity="0.1"/>
        <path id="Path_28" data-name="Path 28" d="M192.137,341c-.744.889-1.8,1.9-1.749,1.393s-.56-1.318-.988-1.825a3.061,3.061,0,0,1,2-.241A1.914,1.914,0,0,1,192.137,341Z" transform="translate(-171.438 -319.497)" fill="#fff"/>
        <circle id="Ellipse_4" data-name="Ellipse 4" cx="0.455" cy="0.455" r="0.455" transform="translate(18.381 25.325)" fill="#192534"/>
        <circle id="Ellipse_5" data-name="Ellipse 5" cx="0.455" cy="0.455" r="0.455" transform="translate(21.83 37.605)" fill="#192534"/>
        <circle id="Ellipse_6" data-name="Ellipse 6" cx="0.455" cy="0.455" r="0.455" transform="translate(25.733 50.034)" fill="#192534"/>
        <circle id="Ellipse_7" data-name="Ellipse 7" cx="0.455" cy="0.455" r="0.455" transform="translate(25.848 63.563)" fill="#192534"/>
        <circle id="Ellipse_8" data-name="Ellipse 8" cx="0.455" cy="0.455" r="0.455" transform="translate(20.39 31.122)" fill="#192534"/>
        <circle id="Ellipse_9" data-name="Ellipse 9" cx="0.455" cy="0.455" r="0.455" transform="translate(23.46 43.742)" fill="#192534"/>
        <circle id="Ellipse_10" data-name="Ellipse 10" cx="0.455" cy="0.455" r="0.455" transform="translate(26.454 56.135)" fill="#192534"/>
        <circle id="Ellipse_11" data-name="Ellipse 11" cx="0.455" cy="0.455" r="0.455" transform="translate(25.773 65.078)" fill="#192534"/>
        <path id="Path_29" data-name="Path 29" d="M144.778,334.426s.076-.685-.909.491a11.906,11.906,0,0,1-2.843,2.2s-4.207,2.965-4.434,4.322-1.591,7.277-.873,9.247,6.213,11.408,6.213,11.408a5.086,5.086,0,0,0-1.1,3.712c.343,2.006.758,4.776.567,5.383s.227,2.121-.415,2.652-1.318,1.44.682,2.655c0,0,.379,1.021.036,1.248s5.04,2.579,7.161,1.318,5.952-11.256,6.028-13.506a53.438,53.438,0,0,0-1.858-11.368c-.682-1.743-2.728-8.529-3.6-10.044S144.778,334.426,144.778,334.426Z" transform="translate(-135.301 -315.466)" opacity="0.1"/>
        <path id="Path_30" data-name="Path 30" d="M144.138,334.426s.076-.685-.909.491a11.906,11.906,0,0,1-2.843,2.2s-4.207,2.965-4.434,4.322-1.591,7.277-.873,9.247,6.216,11.408,6.216,11.408a5.138,5.138,0,0,0-1.11,3.712c.329,2,.761,4.776.57,5.383s.227,2.121-.415,2.652-1.318,1.44.682,2.655c0,0,.379,1.021.036,1.248s5.04,2.579,7.161,1.318,5.952-11.256,6.028-13.506a53.439,53.439,0,0,0-1.858-11.368c-.682-1.743-2.734-8.5-3.607-10.021S144.138,334.426,144.138,334.426Z" transform="translate(-134.872 -315.466)" fill="#192534"/>
        <path id="Path_31" data-name="Path 31" d="M158.35,354.38s3.258,3.6,3.146,5.989A7.642,7.642,0,0,0,158.35,354.38Z" transform="translate(-150.616 -328.98)" opacity="0.1"/>
        <path id="Path_32" data-name="Path 32" d="M172,372.33c0,.115,2.2,8.3,2.085,9.322a20.153,20.153,0,0,0,.642,4.055l1.024-.264s-.8-4.207-.949-5.761S172,372.33,172,372.33Z" transform="translate(-159.77 -341.017)" opacity="0.1"/>
        <path id="Path_33" data-name="Path 33" d="M166.522,443.2c-.076.112-5.192,5.913-3.752,6.328S166.522,443.2,166.522,443.2Z" transform="translate(-153.409 -388.541)" opacity="0.1"/>
        <path id="Path_34" data-name="Path 34" d="M157.245,438.71c-.112.076-2.046,4.17-2.273,3.07s1.667,2.994,1.976-.036Z" transform="translate(-148.338 -385.53)" opacity="0.1"/>
        <path id="Path_35" data-name="Path 35" d="M191.572,338.235s2.112-1.288,4.767,2.006c0,0,1.93,1.1,2.5,1.367s1.212,7.313,1.212,7.313,1.252,3.031.909,4.777.988,7.728.988,7.728,2.2,10.765,2.125,11.068-2.24-3.373-2.2-5.185-1.818-7.5-2.082-7.847-2.085-10.08-2.085-10.08a36.661,36.661,0,0,0-2.421-5.5c-.942-1.357-2.125-3.953-2.616-4.4a5.007,5.007,0,0,0-1.176-.758Z" transform="translate(-172.839 -317.987)" opacity="0.1"/>
        <path id="Path_36" data-name="Path 36" d="M191.543,338.235s2.368-1.288,5.024,2.006c0,0,1.93,1.1,2.5,1.367s1.212,7.313,1.212,7.313,1.252,3.031.909,4.777.988,7.728.988,7.728,2.2,10.765,2.125,11.068-2.237-3.373-2.2-5.192-1.818-7.5-2.082-7.847-2.085-10.08-2.085-10.08a36.722,36.722,0,0,0-2.424-5.495c-.945-1.364-2.125-3.953-2.616-4.4a4.687,4.687,0,0,0-1.4-.758Z" transform="translate(-172.839 -317.987)" fill="#192534"/>
        <path id="Path_37" data-name="Path 37" d="M204.9,491.309c-.659,1.443-1.222,8.687-1.6,10.986-.54-.922-1.192-2.029-1.41-2.372a28.8,28.8,0,0,1-1.318-3.38c.428-1.041,1.611-4.025,1.611-5.119,0-1.337,2.161-3.014,2.161-3.014A2.507,2.507,0,0,1,204.9,491.309Z" transform="translate(-178.928 -418.859)" opacity="0.1"/>
        <path id="Path_38" data-name="Path 38" d="M169.71,562.4s5-2.131,6.48-.626S169.71,562.4,169.71,562.4Z" transform="translate(-158.234 -467.695)" opacity="0.1"/>
        <path id="Path_39" data-name="Path 39" d="M170.745,567.36s-5.06,2.843-3.324,3.327S170.745,567.36,170.745,567.36Z" transform="translate(-156.456 -471.802)" opacity="0.1"/>
        <path id="Path_40" data-name="Path 40" d="M221.053,559.85s-2.158.145-1.334.57S221.053,559.85,221.053,559.85Z" transform="translate(-191.643 -466.765)" opacity="0.1"/>
        <path id="Path_41" data-name="Path 41" d="M221.727,561.84c-.03.142-6.282,2.161-5.06,3.07S221.727,561.84,221.727,561.84Z" transform="translate(-189.617 -468.1)" opacity="0.1"/>
        <path id="Path_42" data-name="Path 42" d="M172,611.7c.939-.145,6.17-2.56,4.121-.827A4.075,4.075,0,0,1,172,611.7Z" transform="translate(-159.77 -500.562)" opacity="0.1"/>
        <path id="Path_43" data-name="Path 43" d="M179.8,620.43a2.033,2.033,0,0,0,2.191,1.535C183.727,621.738,179.8,620.43,179.8,620.43Z" transform="translate(-165 -507.39)" opacity="0.1"/>
        <path id="Path_44" data-name="Path 44" d="M175.4,628.851c.313-.086,4.039-1.792,4.121-.988s-3.551,2.187-3.834,1.762A1.521,1.521,0,0,1,175.4,628.851Z" transform="translate(-162.05 -512.23)" opacity="0.1"/>
        <path id="Path_45" data-name="Path 45" d="M212,623.707c.455-.03,4.717-1.393,5.57-.171Z" transform="translate(-186.593 -509.132)" opacity="0.1"/>
        <path id="Path_46" data-name="Path 46" d="M223.72,626.642a1.534,1.534,0,0,1,1.479-.329C225.937,626.642,223.72,626.642,223.72,626.642Z" transform="translate(-194.452 -511.272)" opacity="0.1"/>
        <path id="Path_47" data-name="Path 47" d="M195.08,648.9a1.272,1.272,0,0,0,.965.988Z" transform="translate(-175.247 -526.481)" opacity="0.1"/>
        <path id="Path_48" data-name="Path 48" d="M224.243,638.274c-.283,1.166-4.263,1.278-6.167.965s-5.857-1.449-5.857-1.449a31.691,31.691,0,0,1-5.369-.909c-1.222-.514-.257-1.818-.257-1.818v-.122a7.429,7.429,0,0,1,.181-2.665,5.876,5.876,0,0,0,.142-2.306s5.883,1.136,6,.6a3.016,3.016,0,0,1,1.449-1.479c.425-.161.741,1.423.741,1.423s2.672,2.273,2.843,3.1,2.046,1.252,2.046,1.252a31.876,31.876,0,0,1,3.581,1.192,1.38,1.38,0,0,1,.784,1.1,3.07,3.07,0,0,1-.112,1.12Z" transform="translate(-182.725 -513.187)" fill="#3f3d56"/>
        <path id="Path_49" data-name="Path 49" d="M224.243,650.214c-.283,1.166-4.263,1.278-6.167.965s-5.857-1.449-5.857-1.449a31.691,31.691,0,0,1-5.369-.909c-1.222-.514-.257-1.818-.257-1.818v-.122l5.949,1.318a16.168,16.168,0,0,0,4.8,1.252c1.647,0,5.307.659,7.01-.329A3.07,3.07,0,0,1,224.243,650.214Z" transform="translate(-182.725 -525.127)" opacity="0.1"/>
        <path id="Path_50" data-name="Path 50" d="M233.6,643.38a3.87,3.87,0,0,1-1.42,2.5Z" transform="translate(-200.126 -522.78)" opacity="0.1"/>
        <path id="Path_51" data-name="Path 51" d="M186.172,294.268a2.012,2.012,0,0,1-.329.142,2.108,2.108,0,0,1-1.528-.5c-.474-.287-1.127-.5-1.538-.128-.534.484-.145,1.525-.7,1.993-.349.3-.9.194-1.291.438a1.842,1.842,0,0,0-.6,1.239c-.1.461-.293.988-.744,1.123s-.873-.161-1.318-.145c-.092,0-.2.016-.26-.053a.273.273,0,0,1-.046-.2,4.368,4.368,0,0,0-.142-1.647,1.581,1.581,0,0,0-1.156-1.084c-.8-.122-1.469.576-1.94,1.235a20.267,20.267,0,0,0-1.344,2.164,1.368,1.368,0,0,0-.066.148,6.855,6.855,0,0,1-.59-2.8,6.934,6.934,0,0,1,13.6-1.92Z" transform="translate(-160.158 -285.302)" opacity="0.1"/>
        <path id="Path_52" data-name="Path 52" d="M171.236,288.531c.471-.659,1.14-1.354,1.94-1.232a1.561,1.561,0,0,1,1.146,1.084,4.309,4.309,0,0,1,.145,1.647.28.28,0,0,0,.046.208c.063.066.168.056.26.053.445,0,.889.273,1.318.145s.659-.659.748-1.123a1.755,1.755,0,0,1,.6-1.239c.4-.25.939-.142,1.291-.441.547-.468.161-1.505.7-1.993.412-.369,1.067-.158,1.538.128s.988.659,1.528.5a5.087,5.087,0,0,0,.517-.221c.843-.329,1.937.224,2.635-.352a2,2,0,0,0,.524-.909,5.715,5.715,0,0,0,.385-1.449,1.947,1.947,0,0,0-.385-1.41c-.451-.534-1.212-.659-1.789-1.057a4.388,4.388,0,0,1-1.143-1.347,5.034,5.034,0,0,0-1.11-1.38,1.627,1.627,0,0,0-1.67-.26,1.8,1.8,0,0,1-.547.257,1.117,1.117,0,0,1-.6-.165c-1.976-.929-4.266-.764-6.427-.488a8.413,8.413,0,0,0-2.533.613,3.04,3.04,0,0,0-1.706,1.871c-.178.659-.043,1.393-.254,2.049-.145.448-.441.83-.609,1.268-.458,1.2.092,2.517.329,3.778.254,1.38.125,2.872.712,4.177.115.257.244.7.534.537.214-.125.422-.853.544-1.08A20.6,20.6,0,0,1,171.236,288.531Z" transform="translate(-156.822 -277.272)" fill="#192534"/>
        <path id="Path_53" data-name="Path 53" d="M138.664,365.589l-1.024,2.919s2.424,9.019,3.561,10.913,2.816,4.322,2.816,4.322a10.4,10.4,0,0,0,6.061.761c3.261-.659,12.771-2.352,12.771-2.352a1.268,1.268,0,0,0,1.216-.455c.415-.606,2.576-.909,2.576-.909s2.5-3.624-.57-5.152c0,0-.379.833-2.006.264s-2.125.455-2.125.455a16.725,16.725,0,0,1-4.131.329c-1.5-.2-5.152-.267-5.531-.57a.484.484,0,0,0-.685.053,4.177,4.177,0,0,1-1.216-.685c-.3-.329-.718.382-.718.382s-.53-.306-.379-.685-.494-1.818-.494-1.818a3.663,3.663,0,0,1-.112-1.7c.188-.761-.949-3.488-.949-3.488a4.846,4.846,0,0,1,.152-1.364c.191-.682-1.44-2.046-1.44-2.046s-1.591-7.731-4.964-5.192A6.63,6.63,0,0,0,138.664,365.589Z" transform="translate(-136.728 -332.115)" opacity="0.1"/>
        <path id="Path_54" data-name="Path 54" d="M213.545,415.93c-.04.267-.873,1.318-.57,1.515s.8.076.329.685-.415,1.515-.112,1.4a3.623,3.623,0,0,0,.8-2.009A5.96,5.96,0,0,0,213.545,415.93Z" transform="translate(-187.203 -370.254)" opacity="0.1"/>
        <g id="Group_6" data-name="Group 6" transform="translate(10.775 5.533)" opacity="0.1">
          <path id="Path_55" data-name="Path 55" d="M174.307,301.362a1.575,1.575,0,0,0-1.153-1.081c-.8-.122-1.469.577-1.94,1.235a20.27,20.27,0,0,0-1.344,2.164c-.122.227-.329.952-.544,1.077-.29.171-.418-.28-.534-.537-.586-1.3-.458-2.8-.712-4.177a23.587,23.587,0,0,1-.488-2.434,11.752,11.752,0,0,0,.488,3.04c.254,1.38.125,2.876.712,4.18.115.254.244.7.534.534.214-.125.422-.85.544-1.077a20.27,20.27,0,0,1,1.344-2.164c.471-.659,1.14-1.357,1.94-1.235a1.575,1.575,0,0,1,1.153,1.08,3.022,3.022,0,0,1,.155.853A3.952,3.952,0,0,0,174.307,301.362Z" transform="translate(-167.58 -296.444)"/>
          <path id="Path_56" data-name="Path 56" d="M200.193,295.4a2,2,0,0,1-.524.909c-.692.58-1.785.033-2.635.356a5.064,5.064,0,0,1-.517.217,2.09,2.09,0,0,1-1.528-.5c-.474-.287-1.127-.5-1.538-.129-.534.484-.145,1.522-.7,1.993-.352.3-.9.194-1.291.438a1.842,1.842,0,0,0-.6,1.239c-.1.461-.293.988-.748,1.123s-.87-.161-1.318-.145c-.092,0-.2.016-.26-.053a.2.2,0,0,1-.033-.056v.458a.273.273,0,0,0,.046.2c.063.069.168.056.26.053.445,0,.889.273,1.318.145s.659-.659.748-1.12a1.775,1.775,0,0,1,.6-1.242c.4-.254.939-.142,1.291-.438.55-.468.161-1.509.7-1.976.412-.372,1.067-.158,1.538.128s.988.659,1.528.5c.181-.049.329-.155.517-.221.843-.329,1.937.224,2.635-.356a2,2,0,0,0,.511-.909,5.729,5.729,0,0,0,.385-1.446,2.375,2.375,0,0,0,0-.507A5.893,5.893,0,0,1,200.193,295.4Z" transform="translate(-181.607 -294.07)"/>
        </g>
        <rect id="Rectangle_15" data-name="Rectangle 15" width="41.645" height="53.814" rx="4.92" transform="translate(35.121 4.605)" fill="#2a2ac0"/>
        <ellipse id="Ellipse_12" data-name="Ellipse 12" cx="10.006" cy="10.006" rx="10.006" ry="10.006" transform="translate(45.935 26.779)" fill="#f2f2f2"/>
        <path id="Path_57" data-name="Path 57" d="M293.25,467.633H263.52a8.775,8.775,0,0,1,8.764-8.383h12.2a8.775,8.775,0,0,1,8.764,8.381Z" transform="translate(-222.441 -409.215)" fill="#f2f2f2"/>
        <path id="Path_58" data-name="Path 58" d="M223.23,406.764s4.51-2.965,6.69-1.5,5.742,3.525,2.237,5.02a21.832,21.832,0,0,1-8.344,1.206Z" transform="translate(-194.124 -362.831)" fill="#fec2be"/>
        <path id="Path_59" data-name="Path 59" d="M138.008,365.542,137,368.461s2.424,9.019,3.561,10.913,2.79,4.322,2.79,4.322a10.4,10.4,0,0,0,6.061.761c3.261-.659,12.771-2.352,12.771-2.352a1.268,1.268,0,0,0,1.216-.455c.415-.609,2.589-.919,2.589-.919s2.5-3.624-.57-5.152c0,0-.379.833-2.006.264s-2.125.455-2.125.455a16.821,16.821,0,0,1-4.131.329c-1.479-.2-5.152-.267-5.531-.57a.484.484,0,0,0-.682.04,4.177,4.177,0,0,1-1.216-.685c-.3-.329-.718.382-.718.382s-.53-.306-.379-.685-.494-1.818-.494-1.818a3.663,3.663,0,0,1-.112-1.7c.188-.761-.949-3.488-.949-3.488a4.844,4.844,0,0,1,.152-1.364c.191-.682-1.44-2.046-1.44-2.046s-1.591-7.731-4.964-5.192A6.676,6.676,0,0,0,138.008,365.542Z" transform="translate(-136.299 -332.068)" fill="#192534"/>
      </g>
    </g>
  </g>
</svg>
