<svg xmlns="http://www.w3.org/2000/svg" xmlns:xlink="http://www.w3.org/1999/xlink" width="205" height="328" viewBox="0 0 205 328">
  <defs>
    <filter id="Rectangle_2" x="0" y="0" width="205" height="328" filterUnits="userSpaceOnUse">
      <feOffset dy="3" input="SourceAlpha"/>
      <feGaussianBlur stdDeviation="8" result="blur"/>
      <feFlood flood-opacity="0.078"/>
      <feComposite operator="in" in2="blur"/>
      <feComposite in="SourceGraphic"/>
    </filter>
    <linearGradient id="linear-gradient" x1="0.5" y1="1" x2="0.5" gradientUnits="objectBoundingBox">
      <stop offset="0" stop-color="gray" stop-opacity="0.251"/>
      <stop offset="0.54" stop-color="gray" stop-opacity="0.122"/>
      <stop offset="1" stop-color="gray" stop-opacity="0.102"/>
    </linearGradient>
  </defs>
  <g id="Group_15" data-name="Group 15" transform="translate(3 -221)">
    <g transform="matrix(1, 0, 0, 1, -3, 221)" filter="url(#Rectangle_2)">
      <rect id="Rectangle_2-2" data-name="Rectangle 2" width="157" height="280" rx="8" transform="translate(24 21)" fill="#fff"/>
    </g>
    <text id="Appointments" transform="translate(36 261)" fill="#181461" font-size="16" font-family="Lato-Bold, Lato" font-weight="700"><tspan x="0" y="16">Appointments</tspan></text>
    <g id="Group_18" data-name="Group 18" transform="translate(-1831.97 782.631)">
      <path id="Path_150" data-name="Path 150" d="M267.81,317.87V399a2.832,2.832,0,0,0,2.832,2.832H387.069A2.832,2.832,0,0,0,389.9,399V317.87Z" transform="translate(1600.16 -747.902)" fill="#f4f2f2"/>
      <rect id="Rectangle_16" data-name="Rectangle 16" width="29.186" height="17.132" rx="8.566" transform="translate(1877.631 -422.769)" opacity="0.1"/>
      <rect id="Rectangle_17" data-name="Rectangle 17" width="29.186" height="17.132" rx="8.566" transform="translate(1914.424 -422.769)" opacity="0.1"/>
      <rect id="Rectangle_18" data-name="Rectangle 18" width="28.365" height="16.648" rx="8.324" transform="translate(1878.041 -422.529)" fill="#2a2ac0"/>
      <rect id="Rectangle_19" data-name="Rectangle 19" width="28.365" height="16.648" rx="8.324" transform="translate(1979.991 -405.88) rotate(180)" fill="#444053" opacity="0.1"/>
      <rect id="Rectangle_20" data-name="Rectangle 20" width="28.365" height="16.648" rx="8.324" transform="translate(1943.198 -405.88) rotate(180)" fill="#2a2ac0"/>
      <rect id="Rectangle_21" data-name="Rectangle 21" width="28.365" height="16.648" rx="8.324" transform="translate(1878.041 -398.48)" fill="#444053" opacity="0.1"/>
      <rect id="Rectangle_22" data-name="Rectangle 22" width="28.365" height="16.648" rx="8.324" transform="translate(1979.991 -381.832) rotate(180)" fill="#444053" opacity="0.1"/>
      <rect id="Rectangle_23" data-name="Rectangle 23" width="28.365" height="16.648" rx="8.324" transform="translate(1943.198 -381.832) rotate(180)" fill="#444053" opacity="0.1"/>
      <rect id="Rectangle_24" data-name="Rectangle 24" width="28.365" height="16.648" rx="8.324" transform="translate(1878.041 -374.431)" fill="#444053" opacity="0.1"/>
      <rect id="Rectangle_25" data-name="Rectangle 25" width="28.365" height="16.648" rx="8.324" transform="translate(1979.991 -357.781) rotate(180)" fill="#444053" opacity="0.1"/>
      <rect id="Rectangle_26" data-name="Rectangle 26" width="28.365" height="16.648" rx="8.324" transform="translate(1943.198 -357.781) rotate(180)" fill="#444053" opacity="0.1"/>
      <path id="Path_151" data-name="Path 151" d="M267.81,227.264V242H389.9v-14.74a2.832,2.832,0,0,0-2.832-2.834H270.642A2.832,2.832,0,0,0,267.81,227.264Zm30.215,4.36a2.261,2.261,0,1,1,2.261-2.261A2.261,2.261,0,0,1,298.025,231.625Zm61.662,0a2.261,2.261,0,1,1,1.6-.661,2.261,2.261,0,0,1-1.6.661Z" transform="translate(1600.16 -671.625)" fill="#2a2ac0"/>
      <path id="Path_152" data-name="Path 152" d="M420.424,236.74a2.673,2.673,0,1,0,2.671,2.672,2.673,2.673,0,0,0-2.671-2.672Zm0,4.934a2.261,2.261,0,1,1,2.261-2.261A2.261,2.261,0,0,1,420.424,241.674Z" transform="translate(1477.76 -681.674)" opacity="0.1"/>
      <path id="Path_153" data-name="Path 153" d="M756.123,236.74a2.673,2.673,0,1,0,2.672,2.673A2.672,2.672,0,0,0,756.123,236.74Zm0,4.934a2.261,2.261,0,1,1,2.261-2.261A2.261,2.261,0,0,1,756.123,241.674Z" transform="translate(1203.72 -681.674)" opacity="0.1"/>
      <path id="Path_154" data-name="Path 154" d="M815.291,472.022a5.879,5.879,0,0,0-1.363-.766.281.281,0,0,0-.119-.031A20.971,20.971,0,0,1,811,468.8c.184-.147.353-.29.533-.432a6.047,6.047,0,0,1-2.309-2.814,27.76,27.76,0,0,0-6.124-7.63c-.061-.233-.415-.184-.6-.334a.485.485,0,0,1-.134-.468c.029-.169.107-.325.149-.49a3.312,3.312,0,0,0-.031-1.194,1.463,1.463,0,0,1,.239-1.141c.085-.1.193-.173.276-.272a1.036,1.036,0,0,0,.184-.825,2.924,2.924,0,0,0-.184-.836q1.35-3.674,2.7-7.36a17.359,17.359,0,0,0,1.33-5.3,6.331,6.331,0,0,0-1.216-4.118c.162-.039.323-.079.483-.125-1.051-1.392-1.164-3.236-1.192-4.99q-.022-1.311-.09-2.625c.3.134.613.254.929.356l.294.09a10.128,10.128,0,0,0,1.457.312c.217.031.437.055.656.07h0q-.474-1.187-.946-2.377a3.249,3.249,0,0,1-.294-1.115h0v-.073a.643.643,0,0,1,.009-.132,1.455,1.455,0,0,1,.072-.309,1.407,1.407,0,0,1,.057-.145,2.578,2.578,0,0,1,.235-.413c.066-.1.14-.2.213-.3a4.062,4.062,0,0,0,.659-1.067,2.022,2.022,0,0,0,.1-.608,3,3,0,0,0-.055-.625c-.026-.136-.059-.274-.1-.406h0c-.024-.083-.05-.165-.075-.246l-.022-.066c-.02-.062-.04-.123-.062-.184l-.022-.062c-.024-.066-.048-.13-.073-.2l-.015-.039c-.351-.9-.817-1.761-1.1-2.689a7.058,7.058,0,0,1-.184-.751c-.013-.064-.022-.13-.033-.195s-.017-.11-.024-.165-.017-.129-.024-.193l-.017-.184c0-.059-.009-.118-.013-.184,0-.112-.011-.224-.013-.336v-.511c0-.084.013-.169.02-.252a.374.374,0,0,1,.013-.119q.018-.184.05-.367h0c.018-.108.039-.219.061-.329a4.381,4.381,0,0,0,.1-.918.908.908,0,0,0-.013-.184c-.013-.064-.015-.1-.024-.147a.355.355,0,0,1,0-.044.493.493,0,0,0-.024-.1.189.189,0,0,0-.015-.046c-.006-.015-.02-.064-.031-.1s-.009-.028-.015-.042-.026-.066-.04-.1l-.013-.033c-.018-.04-.039-.079-.059-.118h0a2.713,2.713,0,0,0-.246-.382h0c-.6-.793-1.609-1.4-2.162-2.272a5.057,5.057,0,0,1-.619-1.837c-.028-.147-.052-.294-.077-.439s-.048-.288-.073-.432c-.017-.088-.033-.184-.052-.264l-.011-.057c-.015-.07-.029-.141-.046-.211l-.011-.05c-.017-.073-.033-.147-.051-.22l-.011-.039c-.018-.077-.039-.154-.059-.231a.159.159,0,0,1,0-.028c-.022-.081-.046-.162-.07-.242V405.5c-.026-.085-.051-.167-.079-.25h0c-.028-.084-.057-.171-.088-.255h0c-.033-.086-.064-.173-.1-.257h0a6.8,6.8,0,0,0-.929-1.653,4.387,4.387,0,0,0-3.49-1.8,6.913,6.913,0,0,0-2.1.533l-1.769.652.494-.228a4.226,4.226,0,0,0-1.5.321,1.461,1.461,0,0,0-.872,1.2c-.009.3.11.6.072.906-.064.5-.522.836-.759,1.277a1.643,1.643,0,0,0-.184.863v.117a.158.158,0,0,0,0,.029v.059c-.735-.32-1.469-.652-2.2-1.008a7.794,7.794,0,0,1-3.2-2.43c-.242-.367-.43-.764-.67-1.128a8.923,8.923,0,0,0-.918-1.1l-2.254-2.439c-.173.325.05.709.224,1.032a4.431,4.431,0,0,1,.417,1.076.51.51,0,0,1-.011.377.734.734,0,0,1-.309.219,1.1,1.1,0,0,0-.465,1.262,1.4,1.4,0,0,0,1.041.907,1.893,1.893,0,0,1,.465.114c.272.134.4.446.6.68a2.671,2.671,0,0,0,1.457.726c.834.962,1.7,1.885,2.535,2.847a18.246,18.246,0,0,0,4.2,3.923c.171.1.345.2.522.287a.288.288,0,0,1-.009.088,1,1,0,0,0,.079.643,1.01,1.01,0,0,0,.72.351l1.245.222a4.254,4.254,0,0,1-.061.481c-.017.1-.037.193-.055.29h0l-.022.125v.018a.366.366,0,0,1-.013.1c-.013.035,0,.024,0,.035v.244a2.34,2.34,0,0,0,.692,1.266l.175.211a2.938,2.938,0,0,0-.568,1.19,4.046,4.046,0,0,0-.081.828,1.438,1.438,0,0,0-.367.573,2.621,2.621,0,0,0-.1.928v.367a3.086,3.086,0,0,0,.213,1.286c.017.033.035.062.052.094a17.854,17.854,0,0,1-1.064,1.469,3.189,3.189,0,0,0,.292,3.651c.252.29.575.569.6.955a3.586,3.586,0,0,1-.051.522,3.9,3.9,0,0,0,.265,1.21,1.251,1.251,0,0,1-.1,1,1.47,1.47,0,0,0-.252.962,6.435,6.435,0,0,1-.158,1.567c-.017.226,0,.456-.02.681a3.843,3.843,0,0,1-.134.639.256.256,0,0,1-.018.07c-.454.2-.9.408-1.337.648a1.173,1.173,0,0,0-.551.507,1.3,1.3,0,0,0-.029.7L793,439l-.068-.029q.046.669.1,1.343a1.812,1.812,0,0,0,.257.972,2.533,2.533,0,0,1,.277.355c.154.312-.029.676-.165,1s-.184.773.116.946a2.44,2.44,0,0,0,.5.268,10.481,10.481,0,0,0,.312,4.675q.391,1.763.784,3.523a8.549,8.549,0,0,1,.173,1.514v.22a8.48,8.48,0,0,0,.367,2.061c.408,1.374.017,3.023.145,4.52a13.41,13.41,0,0,0,.43,2.129,65.6,65.6,0,0,1,1.984,10.587,2.66,2.66,0,0,0,1.271.887c-.037.444.013.953,0,1.212a2.094,2.094,0,0,1-.1.632,1.519,1.519,0,0,1-.961.817c-.129.044-.259.079-.391.11l.147-.125a3.281,3.281,0,0,0-2.445.43.968.968,0,0,0-.483.569.918.918,0,0,0,.169.659,3.007,3.007,0,0,0,1.7,1.207,8.913,8.913,0,0,0,2.094.292l1.3.075a.357.357,0,0,0,.085.461.907.907,0,0,0,.476.173,6.06,6.06,0,0,0,1.6.024.626.626,0,0,0,.367-.132.237.237,0,0,0,0-.351.388.388,0,0,0,.353-.257,1.043,1.043,0,0,0,.048-.465,4.989,4.989,0,0,0-.4-2.021.512.512,0,0,0-.568-.25,22.041,22.041,0,0,1-.367-3.258,7.954,7.954,0,0,0,.944-.426,7.294,7.294,0,0,1-.643-5,15.17,15.17,0,0,0,.241-1.618,5.367,5.367,0,0,0-.7-3.207,11.476,11.476,0,0,1,2.865,2.594c1.269,1.653,2.042,3.655,3.6,5.033q.307-.3.621-.6.492.834.931,1.7a6.475,6.475,0,0,1,.54,1.343,6.208,6.208,0,0,1,.05,2.166q-.064.573-.156,1.141a3.1,3.1,0,0,1-.112.478.332.332,0,0,0-.035-.143c-.1-.171-.367-.094-.514.024a2.27,2.27,0,0,0-.634.735.792.792,0,0,0-.114.468.692.692,0,0,0,.367.459,3.83,3.83,0,0,0,2.841-.472c.367-.265.568-.7.933-.957a5.4,5.4,0,0,0,.564-.356c.34-.31.367-.834.615-1.227.411-.678,1.332-.852,1.692-1.57A2,2,0,0,0,815.291,472.022Z" transform="translate(1180.092 -814.049)" fill="url(#linear-gradient)"/>
      <path id="Path_155" data-name="Path 155" d="M861.98,805.539a2.046,2.046,0,0,1-.1.624,1.51,1.51,0,0,1-.959.806c-.408.141-.841.184-1.256.307a1.1,1.1,0,0,0-.49.254.89.89,0,0,0,.283,1.3,2.44,2.44,0,0,0,1.488.23,19.6,19.6,0,0,0,3.218-.457c.382-.09.828-.266.889-.654a1.072,1.072,0,0,0-.029-.367,21.711,21.711,0,0,1-.413-3.991,8.3,8.3,0,0,0-2.329-.017C861.835,803.868,862,805.087,861.98,805.539Z" transform="translate(1117.568 -1144.333)" fill="#a1616a"/>
      <path id="Path_156" data-name="Path 156" d="M925.188,780.8q.529.876.994,1.787a6.331,6.331,0,0,1,.54,1.324,6.083,6.083,0,0,1,.05,2.136q-.064.564-.158,1.126a1.422,1.422,0,0,1-.472,1,1.087,1.087,0,0,0,.937.083,2.7,2.7,0,0,0,.825-.505,7.28,7.28,0,0,0,2.814-5.226.828.828,0,0,0-.086-.463.916.916,0,0,0-.275-.246,21.174,21.174,0,0,1-3.257-2.735.4.4,0,0,0-.239-.152.414.414,0,0,0-.213.061c-.6.3-1.614.735-1.866,1.424a.963.963,0,0,1,.408.391Z" transform="translate(1063.86 -1124.268)" fill="#a1616a"/>
      <path id="Path_157" data-name="Path 157" d="M858.7,822.706a16.354,16.354,0,0,1-4.186.939.572.572,0,0,1-.5-.092.382.382,0,0,1-.033-.43,1.121,1.121,0,0,1,.307-.338l.95-.8a3.306,3.306,0,0,0-2.414.415.96.96,0,0,0-.481.551.9.9,0,0,0,.169.652,3,3,0,0,0,1.7,1.19,9.074,9.074,0,0,0,2.092.288l1.286.073a.347.347,0,0,0,.086.456.919.919,0,0,0,.478.175,6.124,6.124,0,0,0,1.6.022.613.613,0,0,0,.367-.13.232.232,0,0,0,0-.345.387.387,0,0,0,.353-.255,1.066,1.066,0,0,0,.048-.457,4.812,4.812,0,0,0-.4-1.989C859.8,822.115,859.149,822.523,858.7,822.706Z" transform="translate(1122.996 -1159.368)" fill="#3f3d56"/>
      <path id="Path_158" data-name="Path 158" d="M933.355,794.116a5.906,5.906,0,0,0-1.363-.755.162.162,0,0,0-.246.062,13.984,13.984,0,0,0-2.008,3.87,6.727,6.727,0,0,1-1,2.27c-.07.085-.184.171-.279.121-.138-.07-.053-.292-.13-.426-.1-.169-.356-.092-.512.024a2.2,2.2,0,0,0-.632.735.735.735,0,0,0-.114.461.68.68,0,0,0,.358.452,2.651,2.651,0,0,0,2.267-.184,2.6,2.6,0,0,0,.571-.285c.367-.259.568-.691.933-.942a5.364,5.364,0,0,0,.564-.353c.338-.307.367-.823.613-1.212.411-.667,1.332-.839,1.692-1.548A2,2,0,0,0,933.355,794.116Z" transform="translate(1061.995 -1136.03)" fill="#3f3d56"/>
      <path id="Path_159" data-name="Path 159" d="M851.753,593.7a5.729,5.729,0,0,1,1.985,4.814,16.981,16.981,0,0,1-1.326,5.226q-1.35,3.631-2.7,7.261a3,3,0,0,1,.184.826,1.016,1.016,0,0,1-.184.812c-.084.1-.184.173-.276.268a1.438,1.438,0,0,0-.239,1.126,3.261,3.261,0,0,1,.031,1.177c-.042.163-.119.318-.149.483a.479.479,0,0,0,.134.463c.184.147.551.1.6.331a27.452,27.452,0,0,1,6.116,7.531,5.925,5.925,0,0,0,2.307,2.775,40.291,40.291,0,0,0-3.11,2.735c-1.552-1.359-2.325-3.337-3.593-4.959a11.387,11.387,0,0,0-2.862-2.559,5.234,5.234,0,0,1,.7,3.163,14.666,14.666,0,0,1-.241,1.6,7.067,7.067,0,0,0,.643,4.934,5.4,5.4,0,0,1-3.143.722,2.675,2.675,0,0,1-1.712-.977A64.592,64.592,0,0,0,842.951,621a12.839,12.839,0,0,1-.428-2.114c-.129-1.469.263-3.1-.147-4.46a8.313,8.313,0,0,1-.367-2.031v-.219a8.319,8.319,0,0,0-.173-1.491l-.782-3.475a10.192,10.192,0,0,1-.314-4.614,2.45,2.45,0,0,1-.5-.263c-.3-.171-.252-.617-.116-.933s.318-.674.165-.983a2.4,2.4,0,0,0-.277-.351,1.766,1.766,0,0,1-.257-.957l-.1-1.326a2.6,2.6,0,0,1,1.308,1.144c-.724-1.12-.367-2.718.167-3.942a1.8,1.8,0,0,1,1.686-1.335C845.765,593.145,849.362,591.9,851.753,593.7Z" transform="translate(1133.345 -972.299)" fill="#192534"/>
      <path id="Path_160" data-name="Path 160" d="M889.649,638.93s-1.447.966-1.447,1.69-.367,7.237-.367,7.237v4.592a12.366,12.366,0,0,1,0,3.016,19.376,19.376,0,0,0,0,3.74c0,.362.367-3.74.367-3.74v-4.349l.367-9.893Z" transform="translate(1094.106 -1009.991)" opacity="0.1"/>
      <path id="Path_161" data-name="Path 161" d="M795.626,414.439l-.843-.329c-1.723-.691-3.448-1.383-5.115-2.193a7.818,7.818,0,0,1-3.2-2.4c-.243-.367-.43-.753-.671-1.115a8.9,8.9,0,0,0-.918-1.089l-2.252-2.406c-.173.321.048.7.224,1.018a4.407,4.407,0,0,1,.417,1.064.492.492,0,0,1-.013.367.714.714,0,0,1-.307.217,1.078,1.078,0,0,0-.465,1.243,1.387,1.387,0,0,0,1.04.9,1.975,1.975,0,0,1,.465.112c.272.134.4.441.6.67a2.673,2.673,0,0,0,1.455.716c.834.95,1.7,1.859,2.533,2.808a18.171,18.171,0,0,0,4.2,3.872,6.144,6.144,0,0,0,1.894.76A30.686,30.686,0,0,1,795.626,414.439Z" transform="translate(1180.057 -818.955)" fill="#a1616a"/>
      <path id="Path_162" data-name="Path 162" d="M795.626,414.439l-.843-.329c-1.723-.691-3.448-1.383-5.115-2.193a7.818,7.818,0,0,1-3.2-2.4c-.243-.367-.43-.753-.671-1.115a8.9,8.9,0,0,0-.918-1.089l-2.252-2.406c-.173.321.048.7.224,1.018a4.407,4.407,0,0,1,.417,1.064.492.492,0,0,1-.013.367.714.714,0,0,1-.307.217,1.078,1.078,0,0,0-.465,1.243,1.387,1.387,0,0,0,1.04.9,1.975,1.975,0,0,1,.465.112c.272.134.4.441.6.67a2.673,2.673,0,0,0,1.455.716c.834.95,1.7,1.859,2.533,2.808a18.171,18.171,0,0,0,4.2,3.872,6.144,6.144,0,0,0,1.894.76A30.686,30.686,0,0,1,795.626,414.439Z" transform="translate(1180.057 -818.955)" opacity="0.15"/>
      <path id="Path_163" data-name="Path 163" d="M842.193,460.508a1.011,1.011,0,0,1-.72-.345.968.968,0,0,1-.079-.634,17.774,17.774,0,0,1,.918-4.059,4.389,4.389,0,0,0,1.98,1.6,14.7,14.7,0,0,0,2.127.97c-.184-.059-.634,2.766-.887,2.939-.32.224-1.091-.079-1.445-.14Z" transform="translate(1131.948 -860.228)" fill="#6c63ff"/>
      <circle id="Ellipse_28" data-name="Ellipse 28" cx="3.861" cy="3.861" r="3.861" transform="translate(1972.236 -408.276)" fill="#a1616a"/>
      <path id="Path_164" data-name="Path 164" d="M852.22,462.871s2.533,2.171,1.447,3.618-1.69,2.414-.242,2.535,6.273-2.414,6.273-2.414-4.463-3.618-3.74-5.789S852.22,462.871,852.22,462.871Z" transform="translate(1123.092 -864.09)" fill="#fbbebe"/>
      <path id="Path_165" data-name="Path 165" d="M847.638,481.171a3,3,0,0,0-2.217,2.23c-.285,1.3.32,2.755-.25,3.953a15.706,15.706,0,0,1-1.1,1.53,3.122,3.122,0,0,0,.29,3.6c.252.287.575.564.6.942a3.47,3.47,0,0,1-.052.514,3.816,3.816,0,0,0,.265,1.2,1.216,1.216,0,0,1-.1.988,1.431,1.431,0,0,0-.25.95,6.351,6.351,0,0,1-.16,1.547c-.017.224,0,.448-.02.672a3.913,3.913,0,0,1-.132.63l-.323,1.192a13.249,13.249,0,0,0,5.51.984,27.011,27.011,0,0,0,5.031-.735c.505-.107,1.01-.213,1.508-.351-1.051-1.374-1.163-3.194-1.192-4.923a73.475,73.475,0,0,0-.645-8.614,11.074,11.074,0,0,0,.944-3.1,5.243,5.243,0,0,0,.118-1.31,6.968,6.968,0,0,0-.887-2.623,3.4,3.4,0,0,0-1.631-1.89,1.3,1.3,0,0,0-1.255.138c-.637.481-.448,1.311-.612,2.02a2.712,2.712,0,0,1-1.964,1.837,6.381,6.381,0,0,1-2.065.193.367.367,0,0,1-.261-.6C847.087,481.816,847.384,481.484,847.638,481.171Z" transform="translate(1130.104 -878.992)" fill="#2a2ac0"/>
      <path id="Path_166" data-name="Path 166" d="M845.825,574.49a25.138,25.138,0,0,1-4.524,3.174c-.968.485-2,.843-2.939,1.365a1.174,1.174,0,0,0-.551.5,1.234,1.234,0,0,0-.029.689l.419,2.887c.116.782.867,1.286,1.469,1.785a1.057,1.057,0,0,1,.039-.7,2.355,2.355,0,0,1,.141-.211,1.982,1.982,0,0,0,.2-1.357,7.536,7.536,0,0,1-.16-1.392.455.455,0,0,1,.195-.4c2.052-.986,4.261-1.743,6.335-2.68a6.715,6.715,0,0,0,1.537-.872,2.365,2.365,0,0,0,.893-1.482.29.29,0,0,0-.037-.226.307.307,0,0,0-.156-.092C847.732,575.135,846.751,574.824,845.825,574.49Z" transform="translate(1134.907 -957.387)" fill="#a1616a"/>
      <path id="Path_167" data-name="Path 167" d="M852.128,508.487a2.077,2.077,0,0,0-1.7,1.166,2.593,2.593,0,0,0-.1.918,2.986,2.986,0,0,0,.215,1.273,3.6,3.6,0,0,0,.43.625c1.7,2.175,2.549,4.906,4.2,7.116.147.195.415.448.332.678a1.642,1.642,0,0,0-.079.184.367.367,0,0,0,.121.321.784.784,0,0,1,.2.292c.031.116-.046.266-.165.257a2.457,2.457,0,0,0,1.383,1.262,5.758,5.758,0,0,0,3.088.759,7.046,7.046,0,0,0,.367-2.527,6.562,6.562,0,0,0-.615-1.793l-.718-1.569a23.355,23.355,0,0,0-2.081-3.887,5.88,5.88,0,0,1-.77-1.24c-.219-.568-.819-.966-1.183-1.453a9,9,0,0,0-1.826-2A1.65,1.65,0,0,0,852.128,508.487Z" transform="translate(1124.635 -903.499)" opacity="0.1"/>
      <path id="Path_168" data-name="Path 168" d="M852.129,506.517a2.079,2.079,0,0,0-1.7,1.165,2.606,2.606,0,0,0-.1.918,2.987,2.987,0,0,0,.215,1.273,3.587,3.587,0,0,0,.43.625c1.7,2.175,2.55,4.906,4.2,7.116.147.195.415.448.332.678a1.665,1.665,0,0,0-.079.184.367.367,0,0,0,.121.321.785.785,0,0,1,.2.292c.031.116-.046.266-.165.257a2.458,2.458,0,0,0,1.383,1.262,5.758,5.758,0,0,0,3.088.759,7.049,7.049,0,0,0,.367-2.527,6.559,6.559,0,0,0-.615-1.793l-.718-1.569a23.36,23.36,0,0,0-2.081-3.887,5.845,5.845,0,0,1-.77-1.242c-.219-.566-.819-.964-1.183-1.451a9,9,0,0,0-1.826-2A1.657,1.657,0,0,0,852.129,506.517Z" transform="translate(1124.635 -901.891)" fill="#2a2ac0"/>
      <path id="Path_169" data-name="Path 169" d="M836.877,418.568a4.252,4.252,0,0,0-1.5.316,1.446,1.446,0,0,0-.872,1.179,7,7,0,0,1,.072.893c-.064.492-.522.825-.757,1.26a2.257,2.257,0,0,0,.441,2.388c.533.669,1.255,1.183,1.8,1.848a4.776,4.776,0,0,1,1,3.842,3.051,3.051,0,0,0-.1.8,2.306,2.306,0,0,0,.691,1.247,57.628,57.628,0,0,1,4.357,5.8,15.658,15.658,0,0,1,1.073,1.837,11.136,11.136,0,0,0,.984,1.941,5.127,5.127,0,0,0,1.446,1.24,10.208,10.208,0,0,0,4.629,1.493l-.946-2.346a2.694,2.694,0,0,1-.285-1.3c.1-.845.957-1.4,1.234-2.2a2.673,2.673,0,0,0-.05-1.616c-.334-1.188-1-2.257-1.363-3.438a6.98,6.98,0,0,1-.206-3.2,4.942,4.942,0,0,0,.149-1.414c-.174-1.436-1.859-2.123-2.638-3.341a7.218,7.218,0,0,1-.77-2.661,8.4,8.4,0,0,0-1.521-3.734,4.384,4.384,0,0,0-3.49-1.78,7.054,7.054,0,0,0-2.1.525l-1.771.645" transform="translate(1138.268 -829.325)" fill="#3f3d56"/>
      <g id="Group_17" data-name="Group 17" transform="translate(1971.903 -408.294)" opacity="0.1">
        <path id="Path_170" data-name="Path 170" d="M893.859,436.756a8.5,8.5,0,0,0,.634,2.426c-.053-.287-.1-.575-.151-.858a10.694,10.694,0,0,0-.591-2.1C893.8,436.4,893.827,436.576,893.859,436.756Z" transform="translate(-882.713 -436.22)"/>
        <path id="Path_171" data-name="Path 171" d="M911.649,475.308a7.015,7.015,0,0,0,.206,3.2,8.237,8.237,0,0,0,.3.826,6.99,6.99,0,0,1-.024-2.458,4.941,4.941,0,0,0,.149-1.414,2.206,2.206,0,0,0-.478-1.1C911.776,474.68,911.7,474.994,911.649,475.308Z" transform="translate(-897.245 -467.355)"/>
        <path id="Path_172" data-name="Path 172" d="M915.775,519.684a8.862,8.862,0,0,0-.368-1.014,2.252,2.252,0,0,1-.07,1.062c-.277.8-1.131,1.359-1.234,2.2a2.674,2.674,0,0,0,.285,1.3c.063.156.125.314.184.47a1.536,1.536,0,0,1,0-.2c.1-.845.957-1.4,1.234-2.2A2.566,2.566,0,0,0,915.775,519.684Z" transform="translate(-899.319 -503.526)"/>
        <path id="Path_173" data-name="Path 173" d="M859.805,499.225a5.142,5.142,0,0,1-1.446-1.242,11.082,11.082,0,0,1-.986-1.941,15.492,15.492,0,0,0-1.073-1.837,57.711,57.711,0,0,0-4.355-5.8c-.057-.064-.112-.13-.167-.2a1.882,1.882,0,0,0-.042.518,2.307,2.307,0,0,0,.691,1.247,57.609,57.609,0,0,1,4.357,5.8,15.673,15.673,0,0,1,1.073,1.837,11.146,11.146,0,0,0,.984,1.941,5.128,5.128,0,0,0,1.446,1.24,10.208,10.208,0,0,0,4.629,1.493l-.643-1.58A10.219,10.219,0,0,1,859.805,499.225Z" transform="translate(-848.413 -478.661)"/>
        <path id="Path_174" data-name="Path 174" d="M835.6,448.161c-.551-.665-1.269-1.17-1.8-1.846-.048-.062-.094-.127-.14-.195a2.674,2.674,0,0,0,.623,1.761c.533.678,1.255,1.183,1.8,1.848a4.6,4.6,0,0,1,.551.838,4.776,4.776,0,0,0-1.034-2.406Z" transform="translate(-833.658 -444.302)"/>
      </g>
      <path id="Path_175" data-name="Path 175" d="M379.273,347.7l-1.332-1.339a.707.707,0,0,0-1,0l-8.363,8.286-3.538-3.563a.705.705,0,0,0-1,0l-1.346,1.332a.715.715,0,0,0,0,1l5.373,5.413a.713.713,0,0,0,1,0L379.273,348.7a.707.707,0,0,0,0-1Z" transform="translate(1522.874 -770.987)" fill="#3acc6c"/>
      <path id="Path_176" data-name="Path 176" d="M580.273,347.7l-1.332-1.339a.707.707,0,0,0-1,0l-8.363,8.286-3.538-3.563a.705.705,0,0,0-1,0l-1.346,1.332a.715.715,0,0,0,0,1l5.373,5.413a.713.713,0,0,0,1,0L580.273,348.7a.707.707,0,0,0,0-1Z" transform="translate(1358.793 -770.987)" fill="#3acc6c"/>
    </g>
  </g>
</svg>
