<svg xmlns="http://www.w3.org/2000/svg" xmlns:xlink="http://www.w3.org/1999/xlink" width="205" height="328" viewBox="0 0 205 328">
  <defs>
    <filter id="Rectangle_2" x="0" y="0" width="205" height="328" filterUnits="userSpaceOnUse">
      <feOffset dy="3" input="SourceAlpha"/>
      <feGaussianBlur stdDeviation="8" result="blur"/>
      <feFlood flood-opacity="0.078"/>
      <feComposite operator="in" in2="blur"/>
      <feComposite in="SourceGraphic"/>
    </filter>
  </defs>
  <g id="Group_9" data-name="Group 9" transform="translate(3 -221)">
    <g transform="matrix(1, 0, 0, 1, -3, 221)" filter="url(#Rectangle_2)">
      <rect id="Rectangle_2-2" data-name="Rectangle 2" width="157" height="280" rx="8" transform="translate(24 21)" fill="#fff"/>
    </g>
    <text id="Forum" transform="translate(36 261)" fill="#181461" font-size="16" font-family="Lato-Bold, Lato" font-weight="700"><tspan x="0" y="16">Forum</tspan></text>
    <g id="Group_14" data-name="Group 14" transform="translate(-232.36 279.383)">
      <g id="Group_10" data-name="Group 10" transform="translate(338.863 47.234)">
        <path id="Path_60" data-name="Path 60" d="M833.673,156.708a.621.621,0,0,0-.62.62v24.3a.621.621,0,0,0,.62.62h28.384a.621.621,0,0,0,.62-.62v-24.3a.621.621,0,0,0-.62-.62Z" transform="translate(-820.366 -156.708)" fill="#e6e6e6"/>
        <path id="Path_61" data-name="Path 61" d="M855.516,231.709a.273.273,0,0,0,0,.534h20.766a.273.273,0,0,0,0-.534Z" transform="translate(-838.273 -217.082)" fill="#fff"/>
        <path id="Path_62" data-name="Path 62" d="M854.208,247.982a.273.273,0,0,0,0,.534h20.766a.273.273,0,0,0,0-.534Z" transform="translate(-837.22 -230.182)" fill="#fff"/>
        <path id="Path_63" data-name="Path 63" d="M855.516,264.256a.273.273,0,0,0,0,.534h20.766a.273.273,0,0,0,0-.534Z" transform="translate(-838.273 -243.282)" fill="#fff"/>
        <path id="Path_64" data-name="Path 64" d="M855.516,177.384a.273.273,0,0,0,0,.534h20.766a.273.273,0,0,0,0-.534Z" transform="translate(-838.273 -173.352)" fill="#fff"/>
        <path id="Path_65" data-name="Path 65" d="M854.207,193.658a.273.273,0,0,0,0,.534h20.766a.273.273,0,0,0,0-.534Z" transform="translate(-837.219 -186.452)" fill="#fff"/>
        <path id="Path_66" data-name="Path 66" d="M855.516,209.931a.273.273,0,0,0,0,.534h20.766a.273.273,0,0,0,0-.534Z" transform="translate(-838.273 -199.552)" fill="#fff"/>
        <path id="Path_67" data-name="Path 67" d="M768.62,207.662a.621.621,0,0,0-.62.62v24.3a.621.621,0,0,0,.62.62H797a.62.62,0,0,0,.62-.62v-24.3a.621.621,0,0,0-.62-.62Z" transform="translate(-768 -197.725)" fill="#2a2ac0"/>
        <path id="Path_68" data-name="Path 68" d="M790.463,282.663a.273.273,0,0,0,0,.534h20.766a.273.273,0,0,0,0-.534Z" transform="translate(-785.907 -258.099)" fill="#fff"/>
        <path id="Path_69" data-name="Path 69" d="M789.154,298.936a.273.273,0,0,0,0,.534H809.92a.273.273,0,0,0,0-.534Z" transform="translate(-784.853 -271.199)" fill="#fff"/>
        <path id="Path_70" data-name="Path 70" d="M790.463,315.21a.273.273,0,0,0,0,.534h20.766a.273.273,0,0,0,0-.534Z" transform="translate(-785.907 -284.299)" fill="#fff"/>
        <path id="Path_71" data-name="Path 71" d="M790.463,228.339a.273.273,0,0,0,0,.534h20.766a.273.273,0,0,0,0-.534Z" transform="translate(-785.907 -214.369)" fill="#fff"/>
        <path id="Path_72" data-name="Path 72" d="M789.154,244.612a.273.273,0,0,0,0,.534H809.92a.273.273,0,0,0,0-.534Z" transform="translate(-784.853 -227.469)" fill="#fff"/>
        <path id="Path_73" data-name="Path 73" d="M790.463,260.886a.273.273,0,0,0,0,.534h20.766a.273.273,0,0,0,0-.534Z" transform="translate(-785.907 -240.569)" fill="#fff"/>
        <path id="Path_74" data-name="Path 74" d="M823.848,514.556l.149,2.827,3.124-.3-.3-2.826Z" transform="translate(-783.131 -413.967)" fill="#fbbebe"/>
        <path id="Path_75" data-name="Path 75" d="M762.058,497.774l.149,2.827,3.124-.3-.3-2.827Z" transform="translate(-733.391 -400.457)" fill="#fbbebe"/>
        <path id="Path_76" data-name="Path 76" d="M925.821,475.3l-11.307,1.934-.744,20.53L910.8,510.856l4.761,2.083L920.168,500,921.8,488.54,922.995,500l.149,14.431,7.29-.446-1.743-28.259A26.29,26.29,0,0,0,925.821,475.3Z" transform="translate(-882.947 -413.167)" fill="#2f2e41"/>
        <path id="Path_77" data-name="Path 77" d="M972.315,678.163s-1.041-1.19-1.041-.744-.6,4.761-.6,4.761,4.017,1.19,4.017,1.934,5.8,1.934,5.653.446-5.207-7.141-5.207-7.141S973.059,677.121,972.315,678.163Z" transform="translate(-931.152 -575.788)" fill="#2f2e41"/>
        <path id="Path_78" data-name="Path 78" d="M904.142,659.905s-.317-1.549-.538-1.161-2.87,3.844-2.87,3.844,2.9,3.02,2.536,3.667,4.088,4.549,4.694,3.182-1-8.781-1-8.781S905.3,659.368,904.142,659.905Z" transform="translate(-874.848 -560.786)" fill="#2f2e41"/>
        <path id="Path_79" data-name="Path 79" d="M764.106,199.028l8.236.787,2.745-7.481-7.885-1.9Z" transform="translate(-735.04 -153.296)" fill="#2f2e41"/>
        <circle id="Ellipse_14" data-name="Ellipse 14" cx="4.166" cy="4.166" r="4.166" transform="translate(31.642 35.875)" fill="#fbbebe"/>
        <path id="Path_80" data-name="Path 80" d="M928.5,374.987s0,2.827-2.232,4.017,5.356,2.529,5.356,2.529l.744-2.529s-2.232-1.041-.3-3.422Z" transform="translate(-895.068 -332.418)" fill="#fbbebe"/>
        <path id="Path_81" data-name="Path 81" d="M915.954,390.541s-2.725,1.688-5.007.174l-.944-.174-2.827.6-1.339,5.058L910.9,408.84s8.777,1.488,10.563-1.785l-1.041-13.389-2.827-3.422Z" transform="translate(-878.956 -344.699)" fill="#575a89"/>
        <path id="Path_82" data-name="Path 82" d="M803.66,182.4l4.909-6.844-.446-.744-6.4-3.273v-2.083l9.968,2.678.674,1.069-5.882,12.767Z" transform="translate(-765.323 -136.409)" fill="#575a89"/>
        <path id="Path_83" data-name="Path 83" d="M710.328,207.558l-.3-.149-7.438-.3,5.653-4.91-1.785-2.231-8.48,6.4v1.488l12.05,5.058Z" transform="translate(-681.81 -160.972)" fill="#575a89"/>
        <path id="Path_84" data-name="Path 84" d="M894.013,349.127l1.041-.6s2.232-2.975,3.124-1.785-2.083,3.422-2.083,3.422l-1.636.6Z" transform="translate(-869.438 -309.458)" fill="#fbbebe"/>
        <path id="Path_85" data-name="Path 85" d="M932.178,324.77l-1.636-.893s-4.909.446-4.314,1.488,4.017.149,4.017.149l1.934.6Z" transform="translate(-895.329 -291.275)" fill="#fbbebe"/>
        <path id="Path_86" data-name="Path 86" d="M918.416,337.249a3.312,3.312,0,0,0-2.009,3.155,4.463,4.463,0,0,0,.133,1.2,3.5,3.5,0,0,1-.658,2.721,26.94,26.94,0,0,0-1.529,2.63l-.006.012,2.1.262.447-3.481a17.332,17.332,0,0,1,1.376-4.887l.015-.032a3.381,3.381,0,0,0,2.756,1.706l-.656-.656a18.1,18.1,0,0,0,3.938,1.181s.787.525,0,1.313-2.363,2.625-1.444,4.069.131,1.838.131,1.838l1.444-.788.656-.394v.525l3.413-.394s.919-.131-1.05-2.363a2.339,2.339,0,0,1-.292-1.614,3.77,3.77,0,0,0,.143-1.763C926.882,339.024,925.151,334.132,918.416,337.249Z" transform="translate(-885.806 -301.229)" fill="#2f2e41"/>
      </g>
      <g id="Group_11" data-name="Group 11" transform="translate(268.242 69.678)">
        <g id="Group_13" data-name="Group 13" transform="translate(38.135 17.19)">
          <path id="Path_88" data-name="Path 88" d="M412.672,380.392H366.3c-.242,0-.437-.294-.437-.657s.2-.657.438-.657h46.374c.242,0,.438.294.438.657S412.914,380.392,412.672,380.392Z" transform="translate(-365.86 -379.079)" fill="#f4f2f2"/>
          <path id="Path_89" data-name="Path 89" d="M412.672,399.494H366.3c-.242,0-.438-.294-.438-.657s.2-.657.438-.657h46.374c.242,0,.438.294.438.657S412.914,399.494,412.672,399.494Z" transform="translate(-365.86 -392.928)" fill="#f4f2f2"/>
          <path id="Path_90" data-name="Path 90" d="M412.672,418.6H366.3c-.242,0-.437-.294-.437-.657s.2-.657.438-.657h46.374c.242,0,.438.294.438.657s-.2.657-.437.657Z" transform="translate(-365.86 -406.777)" fill="#f4f2f2"/>
          <path id="Path_91" data-name="Path 91" d="M412.672,437.552H366.3c-.242,0-.438-.294-.438-.657s.2-.657.438-.657h46.374c.242,0,.438.294.438.657S412.914,437.552,412.672,437.552Z" transform="translate(-365.86 -420.521)" fill="#f4f2f2"/>
          <path id="Path_92" data-name="Path 92" d="M412.672,456.654H366.3c-.242,0-.437-.294-.437-.657s.2-.657.438-.657h46.374c.242,0,.438.294.438.657S412.914,456.654,412.672,456.654Z" transform="translate(-365.86 -434.37)" fill="#f4f2f2"/>
          <path id="Path_93" data-name="Path 93" d="M556.606,476.01a.188.188,0,0,0-.187.188v4.97a.188.188,0,0,0,.187.187h17.385a.188.188,0,0,0,.187-.187V476.2a.188.188,0,0,0-.187-.188Z" transform="translate(-527.679 -449.357)" fill="#f4f2f2"/>
        </g>
        <path id="Path_94" data-name="Path 94" d="M197.924,504.638S196.488,521.9,196.18,525.6a26.3,26.3,0,0,1-1.541,6.78,6.375,6.375,0,0,0-.616,2.465v15.718a.916.916,0,0,0-.925,1.233c.308,1.233.616,3.39.616,3.39h4.623a.954.954,0,0,1,.616-1.233c.925-.308,0-2.774,0-2.774l4.931-18.491,7.4-15.409s4.315,13.868,5.239,15.409c0,0,3.39,17.258,4.006,18.8s.925,1.541.616,2.157a1.376,1.376,0,0,0,0,1.541c.308.308,6.164,0,6.164,0L225.766,533.3l-2.774-26.2-14.177-4.315Z" transform="translate(-189.234 -451.582)" fill="#2f2e41"/>
        <path id="Path_95" data-name="Path 95" d="M187.046,676.772s-1.541-5.547-4.006-1.233-2.465,5.856-2.465,5.856-4.006,5.856,1.541,5.239,4.315-3.39,4.315-3.39,2.157-1.233,2.157-2.157A22.1,22.1,0,0,0,187.046,676.772Z" transform="translate(-179.175 -575.639)" fill="#2f2e41"/>
        <path id="Path_96" data-name="Path 96" d="M294.519,674.531s1.541-5.547,4.006-1.233,2.465,5.856,2.465,5.856,4.006,5.856-1.541,5.239-4.315-3.39-4.315-3.39-2.157-1.233-2.157-2.157A22.1,22.1,0,0,1,294.519,674.531Z" transform="translate(-261.685 -574.014)" fill="#2f2e41"/>
        <path id="Path_97" data-name="Path 97" d="M241.713,358.209s.616,4.006-1.233,4.931,4.006,4.315,5.547,4.315,4.315-3.082,4.315-3.082-1.541-4.623-1.233-5.547Z" transform="translate(-223.364 -346.758)" fill="#ffb9b9"/>
        <circle id="Ellipse_15" data-name="Ellipse 15" cx="6.472" cy="6.472" r="6.472" transform="translate(15.267 1.59)" fill="#ffb9b9"/>
        <path id="Path_98" data-name="Path 98" d="M235.633,380.26l-7.7-4.668s-4.384,4.976-9.126-.571l-8.133,2.157,1.233,20.957s-1.849,8.321-1.233,9.862-1.541,2.157-.925,2.466,0,2.465,0,2.465,12.019,6.164,25.271,1.541l-1.233-4.006a3.234,3.234,0,0,0-.616-3.082,2.727,2.727,0,0,0-.308-3.39s.616-2.774-.925-4.006l-.308-4.315.925-2.157Z" transform="translate(-201.258 -358.947)" fill="#cfcce0"/>
        <path id="Path_99" data-name="Path 99" d="M236.935,321.62s-.772,1.67,2.315,1c0,0,1.157.668,1.157-.334,0,0,1.543,1.67,1.929.668s1.157.334,1.157.334l.772-1.67.772,1h2.7s.772-6.679-8.487-6.011-4.7,11.25-4.7,11.25.075-1.9.846-.9S236.935,321.62,236.935,321.62Z" transform="translate(-218.508 -316.564)" fill="#2f2e41"/>
        <path id="Path_100" data-name="Path 100" d="M299.011,438.905l.308,6.472s1.233,12.019-1.233,17.258v2.774s-.616,7.088-3.7,6.78.925-10.17.925-10.17l-.616-13.56-.616-7.7Z" transform="translate(-261.863 -405.264)" fill="#ffb9b9"/>
        <path id="Path_101" data-name="Path 101" d="M284.544,393.878l3.074-.5a15.01,15.01,0,0,1,4.322,7.9c.925,4.931,1.233,5.856,1.233,5.856l-7.4,1.849-4.006-7.7Z" transform="translate(-253.559 -372.256)" fill="#cfcce0"/>
        <g id="Group_12" data-name="Group 12" transform="translate(17.533 23.447)">
          <path id="Path_102" data-name="Path 102" d="M243.279,401.835c-.188,0-.34.245-.341.547v41.8c0,.3.153.547.341.547h59.4c.188,0,.34-.245.341-.547v-41.8c0-.3-.153-.547-.341-.547Z" transform="translate(-242.938 -401.835)" fill="#2a2ac0"/>
          <path id="Path_103" data-name="Path 103" d="M323.656,428.363H289.818c-.176,0-.319-.294-.319-.657s.143-.657.319-.657h33.838c.176,0,.319.294.319.657S323.832,428.363,323.656,428.363Z" transform="translate(-276.695 -420.116)" fill="#fff"/>
          <path id="Path_104" data-name="Path 104" d="M323.656,447.465H289.818c-.176,0-.319-.294-.319-.657s.143-.657.319-.657h33.838c.176,0,.319.294.319.657S323.832,447.465,323.656,447.465Z" transform="translate(-276.695 -433.966)" fill="#fff"/>
          <path id="Path_105" data-name="Path 105" d="M323.656,466.566H289.818c-.176,0-.319-.294-.319-.657s.143-.657.319-.657h33.838c.176,0,.319.294.319.657S323.832,466.566,323.656,466.566Z" transform="translate(-276.695 -447.815)" fill="#fff"/>
          <path id="Path_106" data-name="Path 106" d="M323.656,485.523H289.818c-.176,0-.319-.294-.319-.657s.143-.657.319-.657h33.838c.176,0,.319.294.319.657S323.832,485.523,323.656,485.523Z" transform="translate(-276.695 -461.559)" fill="#fff"/>
          <path id="Path_107" data-name="Path 107" d="M323.656,504.625H289.818c-.176,0-.319-.294-.319-.657s.143-.657.319-.657h33.838c.176,0,.319.294.319.657S323.832,504.625,323.656,504.625Z" transform="translate(-276.695 -475.408)" fill="#fff"/>
          <path id="Path_108" data-name="Path 108" d="M480.244,523.982a.188.188,0,0,0-.187.187v4.97a.188.188,0,0,0,.187.187h17.385a.188.188,0,0,0,.188-.187v-4.97a.188.188,0,0,0-.187-.187Z" transform="translate(-447.447 -490.394)" fill="#fff"/>
        </g>
        <path id="Path_109" data-name="Path 109" d="M193.774,405.024s-2.774,11.711.616,11.711,11.4-13.252,11.4-13.252,8.321-4.315,4.931-5.856-7.7,2.466-7.7,2.466L198.041,407l-.261-3.522Z" transform="translate(-188.985 -375.081)" fill="#ffb9b9"/>
        <path id="Path_110" data-name="Path 110" d="M199.813,384.716l-1.849-1.849s-3.7,2.157-4.006,4.315-1.849,8.937-1.849,8.937l5.7.462,1.849-2.774Z" transform="translate(-188.552 -364.635)" fill="#cfcce0"/>
      </g>
    </g>
  </g>
</svg>
