<svg xmlns="http://www.w3.org/2000/svg" width="199" height="183.051" viewBox="0 0 199 183.051">
  <g id="Group_20" data-name="Group 20" transform="translate(-1062 -1025.786)">
    <path id="Path_178" data-name="Path 178" d="M507.368,415.617a.793.793,0,0,0-.326,1.072l39.547,74.073a.793.793,0,0,0,1.072.326l55.9-29.847a.793.793,0,0,0,.326-1.072L564.344,386.1a.793.793,0,0,0-1.072-.326Z" transform="translate(603.685 681.92)" fill="#3f3d56"/>
    <path id="Path_179" data-name="Path 179" d="M516.459,426.634l36.19,67.783,49.615-26.489-36.19-67.784Zm-3.144,1.678.007,0-.008,0Z" transform="translate(599.79 673.068)" fill="#f4f2f2"/>
    <path id="Path_180" data-name="Path 180" d="M552.534,456.788a1.964,1.964,0,0,0-.366,2.678c.568,1.065,1.658,1.6,2.429,1.185l36.338-19.4a1.964,1.964,0,0,0,.367-2.678c-.569-1.065-1.658-1.6-2.429-1.185Z" transform="translate(576.224 650.366)" fill="#2a2ac0"/>
    <path id="Path_181" data-name="Path 181" d="M564.069,478.392a1.964,1.964,0,0,0-.366,2.678c.569,1.065,1.658,1.6,2.429,1.185l36.338-19.4a1.965,1.965,0,0,0,.366-2.678c-.569-1.065-1.658-1.6-2.429-1.185Z" transform="translate(569.167 637.147)" fill="#2a2ac0"/>
    <path id="Path_182" data-name="Path 182" d="M575.6,500a1.964,1.964,0,0,0-.366,2.677c.568,1.065,1.658,1.6,2.429,1.185L614,484.459a1.965,1.965,0,0,0,.366-2.678c-.568-1.065-1.658-1.6-2.429-1.185Z" transform="translate(562.109 623.928)" fill="#2a2ac0"/>
    <path id="Path_183" data-name="Path 183" d="M587.138,521.6a1.964,1.964,0,0,0-.366,2.678c.568,1.065,1.658,1.6,2.429,1.185l36.338-19.4a1.965,1.965,0,0,0,.366-2.678c-.569-1.065-1.658-1.6-2.429-1.185Z" transform="translate(555.052 610.709)" fill="#2a2ac0"/>
    <path id="Path_184" data-name="Path 184" d="M598.672,543.206a1.965,1.965,0,0,0-.366,2.678c.568,1.065,1.658,1.6,2.429,1.185l36.338-19.4a1.965,1.965,0,0,0,.366-2.678c-.569-1.065-1.658-1.6-2.429-1.185Z" transform="translate(547.994 597.49)" fill="#2a2ac0"/>
    <path id="Path_185" data-name="Path 185" d="M397.312,222.395l32.926,2.011,9.221-27.5-28.88-6.1Z" transform="translate(756.411 843.14)" fill="#2f2e41"/>
    <circle id="Ellipse_29" data-name="Ellipse 29" cx="13.169" cy="13.169" r="13.169" transform="translate(1164.301 1032.244)" fill="#ffb8b8"/>
    <path id="Path_186" data-name="Path 186" d="M471.089,256.683l-21.348,3.493-5.628-22.318,14.944-1.358Z" transform="translate(727.775 815.181)" fill="#ffb8b8"/>
    <path id="Path_187" data-name="Path 187" d="M671.531,566.9l.086,1.025A105.871,105.871,0,0,1,620,572.292l-.112,1.82a6.23,6.23,0,0,1-8.458,5.411l3.68-8.155,4.654-10.321,3.051-6.765-1.1-23.4-.116-2.422-.144-3.09,1.987-.012,14.128-.086,13.465-.085,2.053-.012C665.969,541.008,676.592,553.878,671.531,566.9Z" transform="translate(539.754 596.569)" fill="#2f2e41"/>
    <path id="Path_188" data-name="Path 188" d="M664.2,429.192l-31.44,3.493L631.6,410.949c-3.69-9.41-1.254-17.81,6.4-25.347l1.557-6.162A9.123,9.123,0,0,1,646.3,372.8h0a32.483,32.483,0,0,1,17.517-4.157h0a13.071,13.071,0,0,1,8.277,13.192C670.737,398.915,668.308,414.905,664.2,429.192Z" transform="translate(528.453 692.355)" fill="#2a2ac0"/>
    <path id="Path_189" data-name="Path 189" d="M637.707,430.059l-.252,1.906-4.017,30.31-2.127,4.561-.695,1.49-16.2,34.7-.679,10.829-.112,1.82a6.222,6.222,0,1,1-11.928-2.826l.648-1.525,3.532-8.3,9.575-30.586.788-2.523.939-3,2.67-8.527,4.254-26.223.4-2.5Z" transform="translate(546.02 655.002)" fill="#ffb8b8"/>
    <path id="Path_190" data-name="Path 190" d="M673.731,400.95c-6.1-2.192-11.952-2.425-17.467,0l1.8-15.6a7.441,7.441,0,0,1,7.046-7.683h0a7.441,7.441,0,0,1,7.823,7.065Z" transform="translate(512.325 686.828)" fill="#6c63ff"/>
    <path id="Path_191" data-name="Path 191" d="M631.712,282.025s-6.809,2.485-6.984,11.519a16.3,16.3,0,0,0,.6,4.5c.442,1.66.8,5.263-2.173,10.065a93.075,93.075,0,0,0-5.253,9.67h0l7.667.74,1.268-12.71a63.086,63.086,0,0,1,4.507-17.919l.05-.119s3.517,6.113,10.2,5.925l-2.455-2.32s8.373,3.153,12.926,3.786a2.883,2.883,0,0,1,1.737,4.795l-.082.088c-2.784,2.946-8.326,9.792-4.836,14.951s.666,6.672.666,6.672l5.172-3.013,2.347-1.5.054,1.91L669.5,317.28s3.329-.572-4.062-8.488c0,0-1.98-3.1-1.229-5.841a13.715,13.715,0,0,0,.341-6.428C662.694,287.616,655.9,270,631.712,282.025Z" transform="translate(535.795 747.829)" fill="#2f2e41"/>
    <path id="Path_192" data-name="Path 192" d="M220.94,418.081a.389.389,0,0,0-.275.475l10.592,39.756a.389.389,0,0,0,.475.275l30-7.994a.389.389,0,0,0,.275-.475L251.42,410.362a.389.389,0,0,0-.475-.275Z" transform="translate(841.348 666.992)" fill="#f4f2f2"/>
    <path id="Path_193" data-name="Path 193" d="M239.565,439.4a.963.963,0,0,0-.474,1.236c.152.572.613.947,1.026.837l19.5-5.2a.963.963,0,0,0,.474-1.236c-.152-.572-.613-.947-1.026-.837Z" transform="translate(830.096 652.241)" fill="#2a2ac0"/>
    <path id="Path_194" data-name="Path 194" d="M242.654,450.994a.962.962,0,0,0-.474,1.236c.152.571.613.947,1.026.837l19.5-5.2a.963.963,0,0,0,.474-1.237c-.152-.572-.613-.947-1.026-.837Z" transform="translate(828.206 645.146)" fill="#2a2ac0"/>
    <path id="Path_195" data-name="Path 195" d="M245.744,462.589a.963.963,0,0,0-.474,1.237c.152.571.613.947,1.026.837l19.5-5.2a.962.962,0,0,0,.474-1.236c-.152-.571-.613-.947-1.026-.837Z" transform="translate(826.316 638.052)" fill="#2a2ac0"/>
    <path id="Path_196" data-name="Path 196" d="M248.833,474.185a.963.963,0,0,0-.474,1.237c.152.571.613.947,1.026.837l19.5-5.2a.962.962,0,0,0,.474-1.236c-.152-.571-.613-.947-1.026-.837Z" transform="translate(824.425 630.957)" fill="#2a2ac0"/>
    <path id="Path_197" data-name="Path 197" d="M251.923,485.78a.963.963,0,0,0-.474,1.236c.152.572.613.947,1.026.837l19.5-5.2a.963.963,0,0,0,.474-1.236c-.152-.571-.613-.947-1.026-.837Z" transform="translate(822.535 623.862)" fill="#2a2ac0"/>
    <path id="Path_198" data-name="Path 198" d="M255.012,497.376a.963.963,0,0,0-.474,1.236c.152.571.613.947,1.026.837l19.5-5.2a.962.962,0,0,0,.474-1.236c-.152-.571-.613-.947-1.026-.837Z" transform="translate(820.645 616.767)" fill="#2a2ac0"/>
    <path id="Path_206" data-name="Path 206" d="M223.906,333.663a.389.389,0,0,0-.16.525l19.377,36.294a.389.389,0,0,0,.525.16l27.392-14.624a.389.389,0,0,0,.16-.525L251.823,319.2a.389.389,0,0,0-.525-.16Z" transform="translate(839.483 722.721)" fill="#ecf1fa"/>
    <path id="Path_207" data-name="Path 207" d="M228.361,339.061l17.732,33.212,24.31-12.979-17.732-33.213Zm-1.54.822,0,0,0,0Z" transform="translate(837.574 718.383)" fill="#f4f2f2"/>
    <path id="Path_208" data-name="Path 208" d="M246.037,353.836a.963.963,0,0,0-.18,1.312c.279.522.812.782,1.19.581l17.8-9.506a.963.963,0,0,0,.18-1.312c-.279-.522-.812-.782-1.19-.581Z" transform="translate(826.028 707.26)" fill="#2a2ac0"/>
    <path id="Path_209" data-name="Path 209" d="M251.689,364.422a.962.962,0,0,0-.18,1.312c.279.522.812.782,1.19.581l17.8-9.506a.963.963,0,0,0,.18-1.312c-.279-.522-.812-.782-1.19-.581Z" transform="translate(822.57 700.783)" fill="#2a2ac0"/>
    <path id="Path_210" data-name="Path 210" d="M257.34,375.008a.963.963,0,0,0-.18,1.312c.279.522.812.782,1.19.581l17.8-9.506a.963.963,0,0,0,.179-1.312c-.279-.522-.812-.782-1.19-.581Z" transform="translate(819.112 694.306)" fill="#2a2ac0"/>
    <path id="Path_211" data-name="Path 211" d="M262.992,385.593a.963.963,0,0,0-.18,1.312c.279.522.812.782,1.19.581l17.8-9.506a.963.963,0,0,0,.18-1.312c-.279-.522-.812-.782-1.19-.581Z" transform="translate(815.653 687.829)" fill="#2a2ac0"/>
    <path id="Path_212" data-name="Path 212" d="M268.644,396.179a.962.962,0,0,0-.18,1.312c.279.522.812.782,1.19.581l17.8-9.506a.962.962,0,0,0,.18-1.312c-.279-.522-.812-.782-1.19-.581Z" transform="translate(812.195 681.352)" fill="#2a2ac0"/>
    <path id="Path_213" data-name="Path 213" d="M274.3,406.765a.962.962,0,0,0-.18,1.312c.279.522.812.782,1.19.581l17.8-9.506a.962.962,0,0,0,.179-1.312c-.278-.522-.812-.782-1.19-.581Z" transform="translate(808.737 674.875)" fill="#2a2ac0"/>
    <path id="Path_214" data-name="Path 214" d="M876.065,595.661a.388.388,0,0,0-.532.137L854.6,631.219a.389.389,0,0,0,.137.532l26.733,15.8a.388.388,0,0,0,.532-.137l20.932-35.421a.388.388,0,0,0-.137-.532Z" transform="translate(358.011 561.235)" fill="#e6e6e6"/>
    <path id="Path_215" data-name="Path 215" d="M880.866,601.37l-19.154,32.413,23.725,14.02,19.154-32.414Zm-1.5-.888,0,0,0,0Z" transform="translate(353.628 558.253)" fill="#f4f2f2"/>
    <path id="Path_216" data-name="Path 216" d="M909.014,621.024a1.129,1.129,0,0,0-1.092,1.847L925.3,633.139a1.129,1.129,0,0,0,1.092-1.847Z" transform="translate(325.548 545.734)" fill="#2a2ac0"/>
    <path id="Path_217" data-name="Path 217" d="M902.908,631.355a1.129,1.129,0,0,0-1.092,1.847l17.376,10.268a1.129,1.129,0,0,0,1.091-1.847Z" transform="translate(329.284 539.413)" fill="#2a2ac0"/>
    <path id="Path_218" data-name="Path 218" d="M896.8,641.685a1.129,1.129,0,0,0-1.091,1.847L913.088,653.8a1.129,1.129,0,0,0,1.092-1.847Z" transform="translate(333.019 533.092)" fill="#2a2ac0"/>
    <path id="Path_219" data-name="Path 219" d="M890.7,652.017a1.129,1.129,0,0,0-1.092,1.847l17.376,10.268a1.129,1.129,0,0,0,1.092-1.847Z" transform="translate(336.754 526.771)" fill="#2a2ac0"/>
    <path id="Path_220" data-name="Path 220" d="M884.593,662.347a1.129,1.129,0,0,0-1.092,1.847l17.376,10.268a1.129,1.129,0,0,0,1.092-1.847Z" transform="translate(340.49 520.45)" fill="#2a2ac0"/>
    <path id="Path_221" data-name="Path 221" d="M878.488,672.678a1.129,1.129,0,0,0-1.092,1.847l17.376,10.268a1.129,1.129,0,0,0,1.092-1.847Z" transform="translate(344.225 514.129)" fill="#2a2ac0"/>
    <g id="Group_67" data-name="Group 67" transform="matrix(0.695, -0.719, 0.719, 0.695, -561.1, 1196.889)">
      <path id="Path_404" data-name="Path 404" d="M866.884,595.638a.223.223,0,0,0-.3.078l-12,20.306a.223.223,0,0,0,.078.3l15.325,9.056a.223.223,0,0,0,.3-.078l12-20.306a.223.223,0,0,0-.078-.3Z" transform="translate(307.011 585.235)" fill="#e6e6e6"/>
      <path id="Path_403" data-name="Path 403" d="M872.693,600.99l-10.981,18.582,13.6,8.038,10.981-18.582Zm-.862-.509h0Z" transform="translate(301.441 581.446)" fill="#f4f2f2"/>
      <path id="Path_405" data-name="Path 405" d="M908.413,620.989a.648.648,0,0,0-.626,1.059l9.962,5.887a.647.647,0,0,0,.626-1.059Z" transform="translate(265.76 565.538)" fill="#2a2ac0"/>
      <path id="Path_406" data-name="Path 406" d="M902.307,631.32a.648.648,0,0,0-.626,1.059l9.962,5.887a.647.647,0,0,0,.626-1.059Z" transform="translate(270.507 557.505)" fill="#2a2ac0"/>
      <path id="Path_407" data-name="Path 407" d="M896.2,641.651a.648.648,0,0,0-.626,1.059l9.961,5.887a.648.648,0,0,0,.626-1.059Z" transform="translate(275.254 549.473)" fill="#2a2ac0"/>
      <path id="Path_408" data-name="Path 408" d="M890.1,651.982a.648.648,0,0,0-.626,1.059l9.962,5.887a.648.648,0,0,0,.626-1.059Z" transform="translate(280 541.441)" fill="#2a2ac0"/>
      <path id="Path_409" data-name="Path 409" d="M883.992,662.313a.648.648,0,0,0-.626,1.059l9.962,5.887a.647.647,0,0,0,.626-1.059Z" transform="translate(284.747 533.409)" fill="#2a2ac0"/>
      <path id="Path_410" data-name="Path 410" d="M877.887,672.644a.648.648,0,0,0-.626,1.059l9.961,5.887a.648.648,0,0,0,.626-1.059Z" transform="translate(289.493 525.377)" fill="#2a2ac0"/>
    </g>
  </g>
</svg>
