<svg xmlns="http://www.w3.org/2000/svg" width="190.434" height="212.152" viewBox="0 0 190.434 212.152">
  <g id="Group_14" data-name="Group 14" transform="translate(-268.242 -47.234)">
    <g id="Group_10" data-name="Group 10" transform="translate(380.482 47.234)">
      <path id="Path_60" data-name="Path 60" d="M834.039,156.708a.986.986,0,0,0-.985.985v38.622a.986.986,0,0,0,.985.985h45.111a.986.986,0,0,0,.985-.985V157.693a.986.986,0,0,0-.985-.985Z" transform="translate(-812.89 -156.708)" fill="#e6e6e6"/>
      <path id="Path_61" data-name="Path 61" d="M855.645,231.709a.433.433,0,0,0,0,.849h33a.433.433,0,0,0,0-.849Z" transform="translate(-828.24 -208.462)" fill="#fff"/>
      <path id="Path_62" data-name="Path 62" d="M854.336,247.982a.433.433,0,0,0,0,.849h33a.433.433,0,0,0,0-.849Z" transform="translate(-827.337 -219.691)" fill="#fff"/>
      <path id="Path_63" data-name="Path 63" d="M855.645,264.256a.433.433,0,0,0,0,.849h33a.433.433,0,0,0,0-.849Z" transform="translate(-828.24 -230.921)" fill="#fff"/>
      <path id="Path_64" data-name="Path 64" d="M855.645,177.384a.433.433,0,0,0,0,.849h33a.433.433,0,0,0,0-.849Z" transform="translate(-828.24 -170.976)" fill="#fff"/>
      <path id="Path_65" data-name="Path 65" d="M854.336,193.658a.433.433,0,0,0,0,.849h33a.433.433,0,0,0,0-.849Z" transform="translate(-827.336 -182.205)" fill="#fff"/>
      <path id="Path_66" data-name="Path 66" d="M855.645,209.931a.433.433,0,0,0,0,.849h33a.433.433,0,0,0,0-.849Z" transform="translate(-828.24 -193.435)" fill="#fff"/>
      <path id="Path_67" data-name="Path 67" d="M768.985,207.662a.986.986,0,0,0-.985.985V247.27a.986.986,0,0,0,.985.985H814.1a.986.986,0,0,0,.985-.985V208.648a.986.986,0,0,0-.985-.985Z" transform="translate(-768 -191.869)" fill="#2a2ac0"/>
      <path id="Path_68" data-name="Path 68" d="M790.592,282.663a.433.433,0,0,0,0,.849h33a.433.433,0,0,0,0-.849Z" transform="translate(-783.35 -243.623)" fill="#fff"/>
      <path id="Path_69" data-name="Path 69" d="M789.283,298.936a.433.433,0,0,0,0,.849h33a.433.433,0,0,0,0-.849Z" transform="translate(-782.447 -254.852)" fill="#fff"/>
      <path id="Path_70" data-name="Path 70" d="M790.592,315.21a.433.433,0,0,0,0,.849h33a.433.433,0,0,0,0-.849Z" transform="translate(-783.35 -266.082)" fill="#fff"/>
      <path id="Path_71" data-name="Path 71" d="M790.592,228.339a.433.433,0,0,0,0,.849h33a.433.433,0,0,0,0-.849Z" transform="translate(-783.35 -206.136)" fill="#fff"/>
      <path id="Path_72" data-name="Path 72" d="M789.283,244.612a.433.433,0,0,0,0,.849h33a.433.433,0,0,0,0-.849Z" transform="translate(-782.447 -217.366)" fill="#fff"/>
      <path id="Path_73" data-name="Path 73" d="M790.592,260.886a.433.433,0,0,0,0,.849h33a.433.433,0,0,0,0-.849Z" transform="translate(-783.35 -228.595)" fill="#fff"/>
      <path id="Path_74" data-name="Path 74" d="M823.848,514.732l.236,4.492,4.965-.473-.473-4.492Z" transform="translate(-759.135 -354.862)" fill="#fbbebe"/>
      <path id="Path_75" data-name="Path 75" d="M762.058,497.949l.237,4.492,4.965-.473-.473-4.492Z" transform="translate(-716.497 -343.281)" fill="#fbbebe"/>
      <path id="Path_76" data-name="Path 76" d="M934.677,475.3l-17.97,3.074L915.525,511,910.8,531.81l7.566,3.31,7.33-20.571,2.6-18.206,1.891,18.206.236,22.935,11.586-.709-2.77-44.912A41.785,41.785,0,0,0,934.677,475.3Z" transform="translate(-866.536 -376.551)" fill="#2f2e41"/>
      <path id="Path_77" data-name="Path 77" d="M973.279,678.66s-1.655-1.892-1.655-1.182-.946,7.566-.946,7.566,6.384,1.891,6.384,3.074,9.221,3.074,8.985.709-8.275-11.349-8.275-11.349S974.461,677.005,973.279,678.66Z" transform="translate(-907.857 -515.953)" fill="#2f2e41"/>
      <path id="Path_78" data-name="Path 78" d="M906.15,660.627s-.5-2.462-.855-1.846-4.562,6.11-4.562,6.11,4.615,4.8,4.031,5.827,6.5,7.229,7.46,5.057-1.585-13.956-1.585-13.956S908,659.772,906.15,660.627Z" transform="translate(-859.593 -503.093)" fill="#2f2e41"/>
      <path id="Path_79" data-name="Path 79" d="M764.106,204.093l13.09,1.252,4.363-11.89-12.531-3.019Z" transform="translate(-717.911 -131.409)" fill="#2f2e41"/>
      <circle id="Ellipse_14" data-name="Ellipse 14" cx="6.62" cy="6.62" r="6.62" transform="translate(50.289 57.016)" fill="#fbbebe"/>
      <path id="Path_80" data-name="Path 80" d="M930.053,374.987s0,4.492-3.547,6.384,8.512,4.02,8.512,4.02l1.182-4.02s-3.547-1.655-.473-5.438Z" transform="translate(-876.926 -307.33)" fill="#fbbebe"/>
      <path id="Path_81" data-name="Path 81" d="M921.916,390.716s-4.33,2.682-7.958.277l-1.5-.277-4.492.946-2.128,8.039,8.039,20.1s13.95,2.364,16.787-2.837l-1.655-21.28-4.492-5.438Z" transform="translate(-863.114 -317.858)" fill="#575a89"/>
      <path id="Path_82" data-name="Path 82" d="M804.8,190.028l7.8-10.877-.709-1.182-10.167-5.2v-3.31l15.842,4.256,1.072,1.7L809.292,195.7Z" transform="translate(-743.87 -116.933)" fill="#575a89"/>
      <path id="Path_83" data-name="Path 83" d="M717.6,212.029l-.473-.236-11.822-.473,8.985-7.8-2.837-3.546L697.98,210.138V212.5l19.152,8.039Z" transform="translate(-672.281 -137.989)" fill="#575a89"/>
      <path id="Path_84" data-name="Path 84" d="M894.013,350.7l1.655-.946s3.547-4.729,4.965-2.837-3.31,5.438-3.31,5.438l-2.6.946Z" transform="translate(-854.955 -287.649)" fill="#fbbebe"/>
      <path id="Path_85" data-name="Path 85" d="M935.715,325.3l-2.6-1.419s-7.8.709-6.857,2.364,6.384.236,6.384.236l3.074.946Z" transform="translate(-877.15 -272.062)" fill="#fbbebe"/>
      <path id="Path_86" data-name="Path 86" d="M920.813,337.842a5.264,5.264,0,0,0-3.193,5.014,7.094,7.094,0,0,0,.211,1.9,5.569,5.569,0,0,1-1.045,4.325,42.813,42.813,0,0,0-2.43,4.18l-.01.019,3.338.417.71-5.532a27.548,27.548,0,0,1,2.188-7.767l.023-.051a5.373,5.373,0,0,0,4.381,2.712l-1.043-1.043s4.589,1.877,6.258,1.877c0,0,1.252.834,0,2.086s-3.755,4.172-2.295,6.467.209,2.92.209,2.92l2.295-1.252,1.043-.626v.834l5.424-.626s1.46-.209-1.669-3.755a3.718,3.718,0,0,1-.465-2.565,5.991,5.991,0,0,0,.228-2.8C934.269,340.664,931.519,332.889,920.813,337.842Z" transform="translate(-868.986 -280.595)" fill="#2f2e41"/>
    </g>
    <g id="Group_11" data-name="Group 11" transform="translate(268.242 82.905)">
      <g id="Group_13" data-name="Group 13" transform="translate(60.609 27.321)">
        <path id="Path_88" data-name="Path 88" d="M440.26,381.166h-73.7c-.384,0-.7-.467-.7-1.044s.311-1.043.7-1.043h73.7c.384,0,.7.467.7,1.043S440.643,381.166,440.26,381.166Z" transform="translate(-365.86 -379.079)" fill="#f4f2f2"/>
        <path id="Path_89" data-name="Path 89" d="M440.259,400.268h-73.7c-.384,0-.7-.467-.7-1.043s.311-1.044.7-1.044h73.7c.384,0,.7.467.7,1.044S440.643,400.268,440.259,400.268Z" transform="translate(-365.86 -389.833)" fill="#f4f2f2"/>
        <path id="Path_90" data-name="Path 90" d="M440.26,419.369h-73.7c-.384,0-.7-.467-.7-1.043s.311-1.044.7-1.044h73.7c.384,0,.7.467.7,1.044s-.311,1.044-.7,1.044Z" transform="translate(-365.86 -400.586)" fill="#f4f2f2"/>
        <path id="Path_91" data-name="Path 91" d="M440.259,438.326h-73.7c-.384,0-.7-.467-.7-1.044s.311-1.043.7-1.043h73.7c.384,0,.7.467.7,1.043S440.643,438.326,440.259,438.326Z" transform="translate(-365.86 -411.258)" fill="#f4f2f2"/>
        <path id="Path_92" data-name="Path 92" d="M440.26,457.428h-73.7c-.384,0-.7-.467-.7-1.043s.311-1.044.7-1.044h73.7c.384,0,.7.467.7,1.043S440.643,457.428,440.26,457.428Z" transform="translate(-365.86 -422.012)" fill="#f4f2f2"/>
        <path id="Path_93" data-name="Path 93" d="M556.716,476.01a.3.3,0,0,0-.3.3v7.9a.3.3,0,0,0,.3.3h27.63a.3.3,0,0,0,.3-.3v-7.9a.3.3,0,0,0-.3-.3Z" transform="translate(-510.742 -433.649)" fill="#f4f2f2"/>
      </g>
      <path id="Path_94" data-name="Path 94" d="M200.8,505.728s-2.281,27.43-2.771,33.308a41.8,41.8,0,0,1-2.449,10.776,10.132,10.132,0,0,0-.98,3.918v24.98a1.456,1.456,0,0,0-1.469,1.959c.49,1.959.98,5.388.98,5.388h7.347a1.517,1.517,0,0,1,.98-1.959c1.469-.49,0-4.408,0-4.408l7.837-29.389,11.755-24.49s6.857,22.041,8.327,24.49c0,0,5.388,27.429,6.368,29.878s1.469,2.449.98,3.429a2.186,2.186,0,0,0,0,2.449c.49.49,9.8,0,9.8,0l-2.449-34.776-4.408-41.634-22.531-6.857Z" transform="translate(-186.986 -421.404)" fill="#2f2e41"/>
      <path id="Path_95" data-name="Path 95" d="M191.684,678.467s-2.449-8.817-6.368-1.959-3.918,9.306-3.918,9.306-6.368,9.306,2.449,8.327,6.857-5.388,6.857-5.388,3.429-1.959,3.429-3.429S191.684,678.467,191.684,678.467Z" transform="translate(-179.175 -517.732)" fill="#2f2e41"/>
      <path id="Path_96" data-name="Path 96" d="M295.427,676.226s2.449-8.817,6.367-1.959,3.918,9.306,3.918,9.306,6.368,9.306-2.449,8.327-6.857-5.388-6.857-5.388-3.429-1.959-3.429-3.429S295.427,676.226,295.427,676.226Z" transform="translate(-243.243 -516.47)" fill="#2f2e41"/>
      <path id="Path_97" data-name="Path 97" d="M242.65,358.209s.98,6.368-1.959,7.837,6.368,6.857,8.817,6.857,6.857-4.9,6.857-4.9-2.449-7.347-1.959-8.817Z" transform="translate(-213.487 -340.009)" fill="#ffb9b9"/>
      <circle id="Ellipse_15" data-name="Ellipse 15" cx="10.286" cy="10.286" r="10.286" transform="translate(24.265 2.526)" fill="#ffb9b9"/>
      <path id="Path_98" data-name="Path 98" d="M250.955,383.348l-12.245-7.419s-6.967,7.909-14.5-.908l-12.925,3.429,1.959,33.307s-2.939,13.225-1.959,15.674-2.449,3.429-1.469,3.919,0,3.918,0,3.918,19.1,9.8,40.164,2.449l-1.959-6.367a5.14,5.14,0,0,0-.98-4.9,4.334,4.334,0,0,0-.49-5.388s.98-4.408-1.469-6.367l-.49-6.857,1.469-3.429Z" transform="translate(-196.322 -349.474)" fill="#cfcce0"/>
      <path id="Path_99" data-name="Path 99" d="M239,324.6s-1.226,2.654,3.679,1.592c0,0,1.839,1.062,1.839-.531,0,0,2.453,2.654,3.066,1.062s1.839.531,1.839.531l1.226-2.654,1.226,1.592h4.292s1.226-10.616-13.489-9.554-7.476,17.881-7.476,17.881.118-3.019,1.345-1.427S239,324.6,239,324.6Z" transform="translate(-209.716 -316.564)" fill="#2f2e41"/>
      <path id="Path_100" data-name="Path 100" d="M302.422,438.905l.49,10.286s1.959,19.1-1.959,27.429v4.408s-.98,11.266-5.878,10.776,1.469-16.164,1.469-16.164l-.98-21.552-.98-12.245Z" transform="translate(-243.381 -385.439)" fill="#ffb9b9"/>
      <path id="Path_101" data-name="Path 101" d="M286.178,394.172l4.886-.794a23.856,23.856,0,0,1,6.869,12.549c1.469,7.837,1.959,9.306,1.959,9.306l-11.755,2.939-6.368-12.245Z" transform="translate(-236.933 -359.809)" fill="#cfcce0"/>
      <g id="Group_12" data-name="Group 12" transform="translate(27.866 37.266)">
        <path id="Path_102" data-name="Path 102" d="M243.48,401.835c-.3,0-.541.389-.541.87V469.14c0,.48.243.869.541.87h94.409c.3,0,.541-.389.541-.87V402.7c0-.48-.242-.869-.541-.87Z" transform="translate(-242.938 -401.835)" fill="#2a2ac0"/>
        <path id="Path_103" data-name="Path 103" d="M343.786,429.137H290.006c-.28,0-.507-.467-.507-1.043s.227-1.044.507-1.044h53.781c.28,0,.507.467.507,1.044S344.066,429.137,343.786,429.137Z" transform="translate(-269.15 -416.03)" fill="#fff"/>
        <path id="Path_104" data-name="Path 104" d="M343.786,448.239H290.006c-.28,0-.507-.467-.507-1.044s.227-1.043.507-1.043h53.781c.28,0,.507.467.507,1.043S344.066,448.239,343.786,448.239Z" transform="translate(-269.15 -426.784)" fill="#fff"/>
        <path id="Path_105" data-name="Path 105" d="M343.786,467.34H290.006c-.28,0-.507-.467-.507-1.043s.227-1.044.507-1.044h53.781c.28,0,.507.467.507,1.044S344.066,467.34,343.786,467.34Z" transform="translate(-269.15 -437.538)" fill="#fff"/>
        <path id="Path_106" data-name="Path 106" d="M343.786,486.3H290.006c-.28,0-.507-.467-.507-1.044s.227-1.043.507-1.043h53.781c.28,0,.507.467.507,1.044S344.066,486.3,343.786,486.3Z" transform="translate(-269.15 -448.21)" fill="#fff"/>
        <path id="Path_107" data-name="Path 107" d="M343.786,505.4H290.006c-.28,0-.507-.467-.507-1.044s.227-1.043.507-1.043h53.781c.28,0,.507.467.507,1.043S344.066,505.4,343.786,505.4Z" transform="translate(-269.15 -458.963)" fill="#fff"/>
        <path id="Path_108" data-name="Path 108" d="M480.354,523.982a.3.3,0,0,0-.3.3v7.9a.3.3,0,0,0,.3.3h27.63a.3.3,0,0,0,.3-.3v-7.9a.3.3,0,0,0-.3-.3Z" transform="translate(-428.229 -470.6)" fill="#fff"/>
      </g>
      <path id="Path_109" data-name="Path 109" d="M194.4,409.591S190,428.2,195.383,428.2s18.123-21.062,18.123-21.062,13.225-6.857,7.837-9.306-12.245,3.919-12.245,3.919l-7.912,10.985-.414-5.6Z" transform="translate(-186.792 -362.002)" fill="#ffb9b9"/>
      <path id="Path_110" data-name="Path 110" d="M204.353,385.805l-2.939-2.939s-5.878,3.429-6.368,6.857-2.939,14.2-2.939,14.2l9.061.735,2.939-4.408Z" transform="translate(-186.456 -353.89)" fill="#cfcce0"/>
    </g>
  </g>
</svg>
