<svg xmlns="http://www.w3.org/2000/svg" xmlns:xlink="http://www.w3.org/1999/xlink" width="219.973" height="157.026" viewBox="0 0 219.973 157.026">
  <defs>
    <linearGradient id="linear-gradient" x1="0.5" y1="1" x2="0.5" gradientUnits="objectBoundingBox">
      <stop offset="0" stop-color="gray" stop-opacity="0.251"/>
      <stop offset="0.54" stop-color="gray" stop-opacity="0.122"/>
      <stop offset="1" stop-color="gray" stop-opacity="0.102"/>
    </linearGradient>
    <linearGradient id="linear-gradient-2" x1="0.5" y1="1" x2="0.5" y2="0" xlink:href="#linear-gradient"/>
  </defs>
  <g id="undraw_medicine_b1ol" transform="translate(0.005 -11.156)">
    <rect id="Rectangle_37" data-name="Rectangle 37" width="13.657" height="30.246" transform="translate(137.11 42.225)" fill="#6c63ff" opacity="0.1"/>
    <rect id="Rectangle_38" data-name="Rectangle 38" width="7.317" height="9.483" transform="translate(143.452 50.633)" fill="#6c63ff" opacity="0.1"/>
    <rect id="Rectangle_51" data-name="Rectangle 51" width="6.173" height="6.173" transform="translate(35.115 104.901)" fill="#6c63ff" opacity="0.1"/>
    <rect id="Rectangle_53" data-name="Rectangle 53" width="6.173" height="6.173" transform="translate(192.337 76.311)" fill="#6c63ff" opacity="0.1"/>
    <rect id="Rectangle_55" data-name="Rectangle 55" width="6.173" height="6.173" transform="translate(192.337 91.537)" fill="#6c63ff" opacity="0.1"/>
    <rect id="Rectangle_57" data-name="Rectangle 57" width="6.173" height="6.173" transform="translate(192.337 106.761)" fill="#6c63ff" opacity="0.1"/>
    <rect id="Rectangle_59" data-name="Rectangle 59" width="6.173" height="6.173" transform="translate(192.337 121.987)" fill="#6c63ff" opacity="0.1"/>
    <path id="Path_291" data-name="Path 291" d="M88.26,593.77c.054.069.106.148.163.217h1.148v1.482c.124.148.245.3.371.434v-1.925h1.736v3.1h-.7c.069.072.137.148.217.217h13.2V593.77Zm5.515,3.306H92.039v-3.084h1.736Zm2.1,0H94.142v-3.084h1.736Zm2.1,0H96.245v-3.084h1.736Zm2.1,0H98.346v-3.084h1.736Zm2.1,0h-1.736v-3.084h1.736Zm2.1,0h-1.736v-3.084h1.736Z" transform="translate(-78.981 -477.622)" fill="#6c63ff" opacity="0.1"/>
    <path id="Path_292" data-name="Path 292" d="M141.65,641.12c.2.113.4.217.6.33v-.109h1.736v.977l.369.172v-1.148H146.1v1.877a.538.538,0,0,0,.1.039V641.12Z" transform="translate(-120.782 -514.694)" fill="#6c63ff" opacity="0.1"/>
    <path id="Path_294" data-name="Path 294" d="M341.9,265.941s-.855-.119-.855-1.365a19.518,19.518,0,0,0-.612-3.573h0c0-.011-.53-4.052-1.261-4.695s-1.671-4.415-1.671-4.415a8.9,8.9,0,0,0-.488-2.487,21.132,21.132,0,0,1-1.424-3.058c-.653-1.539-3.377-2.6-3.377-2.6s-4.925-2.856-6.321-3.788h0a2.139,2.139,0,0,1-.354-.267c-.243-.319-1.3-.326-1.3-.326a21.344,21.344,0,0,1-.252-2.229,1.7,1.7,0,0,0-.011-.234,7.51,7.51,0,0,0,3.3-4.085c.026-.082.048-.169.072-.252a.706.706,0,0,0,.423-.382,7.963,7.963,0,0,1,.284-.868,3.269,3.269,0,0,1,.8-.705,3.039,3.039,0,0,0,.836-2.472c-.022-.727-.139-1.461-.093-2.184l.013-.182c.013-.108.028-.217.048-.321.106-.538.339-1.046.469-1.58a2.033,2.033,0,0,0-.161-1.6,2.773,2.773,0,0,0-2.186-.879c-.922-.078-1.747.024-2.338-.742a8.334,8.334,0,0,0-.929-1.122c-.122-.113-1.3-.833-1.3-.881a5.276,5.276,0,0,0-3.679-.282c-.612.178-1.189.469-1.81.614-1.339.317-2.88-.026-4.018.74a4.722,4.722,0,0,0-1.37,1.8q-.434.831-.881,1.66a10.756,10.756,0,0,0-1.17,2.841,4.506,4.506,0,0,0-.078.664h0v.354a1.167,1.167,0,0,0,.013.217c.013.067.011.089.017.135s.017.148.03.217.039.191.065.286c.011.041.026.08.039.119.022.074.048.145.076.217.015.037.03.076.048.113a2.035,2.035,0,0,0,.111.217c.017.03.03.059.048.087a2.882,2.882,0,0,0,.2.291c.465.58,1.148.949,1.654,1.491v.243a7.43,7.43,0,0,0,3.382,6.067c0,.082.011.167.015.25a12.418,12.418,0,0,1-.024,1.934.912.912,0,0,0-.721-.321,1.041,1.041,0,0,0-.278.024l-.02-.015h0v.02c-.478.117-1.066.614-1.628,2.027,0,0-1.71,1.927-3.013,1.847s-4.6,2.006-4.6,2.006-3.217,2.088-3.907,4.215a29.708,29.708,0,0,1-1.385,3.534l-3.976,8.194h0l-.734,6.5a30.168,30.168,0,0,1,.326,3.332,32.076,32.076,0,0,0,1.669,4.415s5.78,10.156,8.142,10.677l.169-.119a1.385,1.385,0,0,0,.319.119l.486-.343a5.3,5.3,0,0,1-.037,1.146c-.326,1,.122,7.547.69,8.83s.367,18.1.367,18.1l-.08,1.485a.628.628,0,0,0,.02.13l-.02.352.059.03a4.181,4.181,0,0,1-.059,1.413,15.709,15.709,0,0,0-.287,2.492s-1.626,10.392-.855,12.48,1.426,4.376,1.426,4.376.814,2.6.039,3.05-2.978,1.192-2.524,2.277c.412,1,1.977,3.69,2.21,4.083l-.019.206-.319,3.458a4.341,4.341,0,0,0,.367,1.32,2.274,2.274,0,0,0,2.32,1.45c.217-.015.469-.041.712-.074a30.77,30.77,0,0,0,5.274-1.372,2.153,2.153,0,0,1-.412-.341h0a1.191,1.191,0,0,1-.362-.868,25.414,25.414,0,0,0-1.437-4.367c-.046-.106-.069-.167-.069-.167s2.687-2.809,2.24-5.3c0,0-2.974-1.736-1.995-2.689a30.323,30.323,0,0,0,2.728-3.69s.08-10.234,0-11.762a12.653,12.653,0,0,1,.15-3.175c.033-.158.072-.313.113-.465a28.33,28.33,0,0,0,4.089.31c.5,0,1.007,0,1.519-.03q0,.217.02.469c.113,2.535.323,6.98.495,8.632.243,2.368,1.587,8.749,1.587,8.749s-2.563,1.645.447,5.7a5.5,5.5,0,0,1-.2,1.682h0a18.4,18.4,0,0,0-.514,2.118,3.735,3.735,0,0,0,.026,1.938c.488.959,3.419.881,3.419.881h0l.072-.013a4.2,4.2,0,0,1,3.1.935c1.113.894,5.339.5,7.627.217.9-.113,1.5-.217,1.5-.217a.868.868,0,0,0,.03-.313h0c-.024-.562-.464-1.8-3.451-2.9,0,0-2.809-1.888-2.77-3.534h-.384a3.067,3.067,0,0,1,.389,0s-1.1-4.016-.651-4.341-.9-4.775-.9-4.775-.771-7.467-.812-7.99a4.558,4.558,0,0,1,.2-1.324l-.2-4.094s-.039-1.361,0-1.8a9.016,9.016,0,0,0-.093-1.148c-.02-.152-.039-.31-.061-.467,1.053-.267,1.736-.514,1.736-.514l-.122-14.249c.894-1.736,1.059-5.546,1.055-8.248,0-1.736-.078-3.021-.078-3.021l1.222-1.995s.282-2.388-.165-2.911a.5.5,0,0,1,.054-.684,2.269,2.269,0,0,1,.267-.182s-.013-.02-.028-.048a2.158,2.158,0,0,1,.271-.193s-.434-.673-.046-.957c.365.247.69.434.938.586-.017.158-.035.25-.035.25l.1-.217.384.217s1.914-3.814,1.873-4.376a12.761,12.761,0,0,1,1.3-2.93,2.932,2.932,0,0,1,.9-1.765c.734-.521.569-4.3.569-4.3a9.254,9.254,0,0,1,.692-2.77C342.833,267.024,341.9,265.941,341.9,265.941Zm-36.63-1.673.037.909-.373-.6Z" transform="translate(-241.333 -183.538)" fill="url(#linear-gradient)"/>
    <path id="Path_295" data-name="Path 295" d="M468.574,493.125l-.469,2s-3.755-1.917-4.432-4.352a2.754,2.754,0,0,1,1.133-3.36l3.5,1.482Z" transform="translate(-372.791 -394.347)" fill="#fff"/>
    <path id="Path_296" data-name="Path 296" d="M468.574,493.125l-.469,2s-3.755-1.917-4.432-4.352a2.754,2.754,0,0,1,1.133-3.36l3.5,1.482Z" transform="translate(-372.791 -394.347)" opacity="0.1"/>
    <path id="Path_297" data-name="Path 297" d="M359.065,798.327a26.983,26.983,0,0,1-5.86,1.437,2.23,2.23,0,0,1-2.277-1.441,4.362,4.362,0,0,1-.358-1.313l.31-3.44.165-1.832,5.073-1.317.718,2.2.067.167a25.429,25.429,0,0,1,1.411,4.341,1.185,1.185,0,0,0,.356.857A2.067,2.067,0,0,0,359.065,798.327Z" transform="translate(-284.356 -631.589)" fill="#fff"/>
    <path id="Path_298" data-name="Path 298" d="M442.765,795.756a.867.867,0,0,1-.03.31s-7.427,1.239-8.947,0a4.024,4.024,0,0,0-3.126-.916s-2.874.078-3.353-.868a3.768,3.768,0,0,1-.024-1.927,18.357,18.357,0,0,1,.5-2.108l.115-.091.684-.549,8-.237h.061c-.039,1.636,2.717,3.514,2.717,3.514C442.3,793.969,442.73,795.2,442.765,795.756Z" transform="translate(-344.334 -630.766)" fill="#fff"/>
    <path id="Path_299" data-name="Path 299" d="M442.769,806.521a.886.886,0,0,1-.033.31s-7.425,1.239-8.945,0a4.024,4.024,0,0,0-3.123-.916s-2.876.078-3.353-.868a3.766,3.766,0,0,1-.026-1.927c1.107.111,2.854.386,3.54,1.044a7.861,7.861,0,0,0,3.874,2.077C435.548,806.3,440.6,806.456,442.769,806.521Z" transform="translate(-344.338 -641.532)" opacity="0.1"/>
    <path id="Path_300" data-name="Path 300" d="M360.365,825.644a26.989,26.989,0,0,1-5.86,1.437,2.224,2.224,0,0,1-2.275-1.443,4.717,4.717,0,0,0,2.754.323,24.559,24.559,0,0,1,4.992-.651A2.142,2.142,0,0,0,360.365,825.644Z" transform="translate(-285.655 -658.905)" opacity="0.1"/>
    <path id="Path_301" data-name="Path 301" d="M392.621,306.023c-2.865-1.114-6.551-4.793-5.63-6.512a3.847,3.847,0,0,0,.358-1.38,12.6,12.6,0,0,0,.026-1.953,26.749,26.749,0,0,0-.384-3.178s8.945.2,8.424,1.519a4.926,4.926,0,0,0-.135,1.808c.041.751.15,1.6.263,2.318.156.985.313,1.736.313,1.736s-.547.766-.868.807S396.732,307.61,392.621,306.023Z" transform="translate(-312.759 -242.134)" fill="#cf6f80"/>
    <path id="Path_302" data-name="Path 302" d="M357.993,792.784l-.067.074c-2.674-3.234-5.908.8-5.908.8l-.048-.085.165-1.832,5.072-1.317.718,2.2Z" transform="translate(-285.452 -631.589)" opacity="0.1"/>
    <path id="Path_303" data-name="Path 303" d="M438.881,789.567a5.137,5.137,0,0,0-3,.879c-1.042.92-6.077.2-5.86,0a.715.715,0,0,0,.113-.33l.684-.549,8-.237C438.857,789.475,438.881,789.567,438.881,789.567Z" transform="translate(-346.56 -630.735)" opacity="0.1"/>
    <path id="Path_304" data-name="Path 304" d="M353.351,657.947a6.037,6.037,0,0,0-.33,1.113,12.746,12.746,0,0,0-.15,3.16c.08,1.519,0,11.7,0,11.7a31.149,31.149,0,0,1-2.674,3.673c-.957.957,1.953,2.676,1.953,2.676.434,2.474-2.2,5.27-2.2,5.27-2.674-3.234-5.908.8-5.908.8s-1.758-3.039-2.2-4.124,1.717-1.836,2.474-2.277-.037-3.039-.037-3.039-.64-2.277-1.4-4.354.838-12.418.838-12.418a16.019,16.019,0,0,1,.28-2.477,4.143,4.143,0,0,0,.059-1.406c-.013-.158-.028-.291-.039-.38s-.02-.13-.02-.13l.03-.052,1.085-2.023S353.872,656.673,353.351,657.947Z" transform="translate(-277.483 -524.513)" fill="#2a2ac0"/>
    <path id="Path_305" data-name="Path 305" d="M430.419,690.763a5.182,5.182,0,0,0-3,.868c-1.042.909-6.077.2-5.86,0s.2-1.678.2-1.678c-2.954-4.033-.434-5.669-.434-5.669s-1.32-6.349-1.558-8.7c-.167-1.645-.373-6.067-.484-8.591-.048-1.085-.076-1.832-.076-1.832l2.414-.486.31-.063,5.821-1.168s.161,1.085.269,1.973a9.228,9.228,0,0,1,.091,1.144c-.039.434,0,1.793,0,1.793l.2,4.074a4.627,4.627,0,0,0-.2,1.318c.039.519.8,7.946.8,7.946s1.317,4.432.868,4.751S430.419,690.763,430.419,690.763Z" transform="translate(-338.097 -532.17)" fill="#2a2ac0"/>
    <path id="Path_306" data-name="Path 306" d="M395.934,294.519a4.925,4.925,0,0,0-.135,1.808,7.434,7.434,0,0,1-7.905-.148,26.746,26.746,0,0,0-.384-3.18S396.455,293.2,395.934,294.519Z" transform="translate(-313.278 -242.134)" opacity="0.1"/>
    <path id="Path_307" data-name="Path 307" d="M388.681,251.107a7.351,7.351,0,0,1-.365,2.3,7.428,7.428,0,0,1-14.486-2.125v-.178a7.427,7.427,0,1,1,14.854,0Z" transform="translate(-302.567 -203.519)" fill="#cf6f80"/>
    <path id="Path_308" data-name="Path 308" d="M392.621,324.532c-2.865-1.113-6.551-4.792-5.63-6.512a3.847,3.847,0,0,0,.358-1.38l3.922,3.223,2.427,1.99,1.845-4.7c.156.985.313,1.736.313,1.736s-.547.766-.868.807S396.732,326.119,392.621,324.532Z" transform="translate(-312.759 -260.643)" opacity="0.1"/>
    <path id="Path_309" data-name="Path 309" d="M345.818,278.9l-3.275,55.023-4.272.28L327.21,302.3l1.815-37.878.382-8,4.918,4.039,2.429,1.99,1.9-4.834,3.531,3.078Z" transform="translate(-255.813 -200.768)" fill="#2a2ac0"/>
    <path id="Path_310" data-name="Path 310" d="M361.344,658.009a6.041,6.041,0,0,0-.33,1.113,31.473,31.473,0,0,1-8.956-2.8l-.059-.03.02-.349.011-.182,1.085-2.023S361.865,656.735,361.344,658.009Z" transform="translate(-285.475 -524.575)" opacity="0.1"/>
    <path id="Path_311" data-name="Path 311" d="M421.627,671.2a22,22,0,0,1-2.4.273c-.048-1.085-.076-1.832-.076-1.832l2.414-.486Z" transform="translate(-338.05 -536.648)" opacity="0.1"/>
    <path id="Path_312" data-name="Path 312" d="M437.79,665.463a16.848,16.848,0,0,1-6.06.571l-.03-1.376,5.821-1.168S437.682,664.564,437.79,665.463Z" transform="translate(-347.876 -532.209)" opacity="0.1"/>
    <path id="Path_313" data-name="Path 313" d="M330.143,393.439c-8.9,1.519-17.049-2.837-17.049-2.837l.078-1.476s.2-16.733-.358-18.015a30.5,30.5,0,0,1-.679-8.786c.317-1-1.157-15.971-1.157-15.971l-.239-6.077L302,336.736l3.907-8.144a29.389,29.389,0,0,0,1.359-3.516c.679-2.114,3.833-4.191,3.833-4.191s3.234-2.075,4.512-2,2.954-1.836,2.954-1.836c1.237-3.154,2.357-1.726,2.357-1.726a2.817,2.817,0,0,1-.061.467c-.434,3.462,7.019,14.4,7.126,14.595h0l.71,17.29.718,21.881Z" transform="translate(-246.328 -259.362)" opacity="0.1"/>
    <path id="Path_314" data-name="Path 314" d="M329.02,393.392c-8.9,1.519-17.052-2.837-17.052-2.837l.08-1.476s.2-16.733-.36-18.015a30.345,30.345,0,0,1-.677-8.786c.319-1-1.157-15.971-1.157-15.971l-.241-6.077-8.743-3.553,3.907-8.144a29.834,29.834,0,0,0,1.359-3.516c.677-2.114,3.833-4.191,3.833-4.191s3.234-2.075,4.51-2,2.954-1.836,2.954-1.836c1.239-3.154,2.6-1.726,2.6-1.726,0,.15-.13.217-.061.467.955,3.358,6.781,14.4,6.887,14.595h0l.718,17.29L328.3,369.5Z" transform="translate(-245.443 -259.315)" fill="#fff"/>
    <path id="Path_315" data-name="Path 315" d="M389.938,332.634c-.957-.4-6.027-6.188-6.027-6.188v-1.318c-.185-.434-1.281-.169-2.171.135l.382-8,.434.36C383.507,320.976,389.827,332.441,389.938,332.634Z" transform="translate(-308.76 -261.129)" opacity="0.1"/>
    <path id="Path_316" data-name="Path 316" d="M391.04,330.424c-.959-.4-6.03-6.188-6.03-6.188v-1.318c-.185-.434-1.281-.169-2.171.135l.384-8,.434.36C384.611,318.766,390.934,330.233,391.04,330.424Z" transform="translate(-309.622 -259.398)" fill="#fff"/>
    <path id="Path_317" data-name="Path 317" d="M351.348,516.588c.119,0,6.188-.638,6.188-.638s3.675,7.226,3.434,8.984-.677,3.314-2.155,3.039-7.955.217-7.955.217Z" transform="translate(-284.583 -416.693)" opacity="0.1"/>
    <path id="Path_318" data-name="Path 318" d="M350.238,514.378c.119,0,6.188-.638,6.188-.638s3.673,7.228,3.434,8.984-.679,3.314-2.155,3.039-7.955.217-7.955.217Z" transform="translate(-283.714 -414.962)" fill="#fff"/>
    <path id="Path_319" data-name="Path 319" d="M361.1,501.05s5.57,2.993,5.689,3.907-2.835-.4-3.473-.558a7.952,7.952,0,0,0-1.278-.2l-4.256.115Z" transform="translate(-290.001 -405.027)" fill="#cf6f80"/>
    <circle id="Ellipse_53" data-name="Ellipse 53" cx="0.586" cy="0.586" r="0.586" transform="translate(79.038 70.706)" opacity="0.1"/>
    <circle id="Ellipse_54" data-name="Ellipse 54" cx="0.586" cy="0.586" r="0.586" transform="translate(79.038 70.467)" fill="#3f3d56"/>
    <circle id="Ellipse_55" data-name="Ellipse 55" cx="0.586" cy="0.586" r="0.586" transform="translate(80.116 96.075)" opacity="0.1"/>
    <circle id="Ellipse_56" data-name="Ellipse 56" cx="0.586" cy="0.586" r="0.586" transform="translate(80.116 95.834)" fill="#3f3d56"/>
    <circle id="Ellipse_57" data-name="Ellipse 57" cx="0.586" cy="0.586" r="0.586" transform="translate(79.622 83.391)" opacity="0.1"/>
    <circle id="Ellipse_58" data-name="Ellipse 58" cx="0.586" cy="0.586" r="0.586" transform="translate(79.622 83.152)" fill="#3f3d56"/>
    <path id="Path_320" data-name="Path 320" d="M437.835,361.431s.4.6,0,.879.039.957.039.957-1,.584-.558,1.109.161,2.9.161,2.9l-1.2,1.984s.072,1.278.076,3.006c0,2.7-.158,6.486-1.035,8.213l.122,14.176a19.3,19.3,0,0,1-7.708,1.066l-.521-22.747s.76-12.9,1.04-15.374a25.778,25.778,0,0,0,.2-3.874,43.286,43.286,0,0,0-.521-5.669s-.434-7.786-.478-9.941c-.02-1.031.035-4.039.1-6.9.067-3.128.143-6.077.143-6.077l-.792-6.268s.792-.08,1.031.239a2.282,2.282,0,0,0,.347.267h0c1.367.925,6.2,3.768,6.2,3.768s2.674,1.064,3.314,2.587a22.551,22.551,0,0,0,1.4,3.039,9.38,9.38,0,0,1,.48,2.474s.92,3.755,1.639,4.391,1.244,4.682,1.244,4.682l-6.349,4.992s-.558,8.3-.677,8.626S437.835,361.431,437.835,361.431Z" transform="translate(-344.118 -262.38)" fill="#fff"/>
    <path id="Path_321" data-name="Path 321" d="M438.021,361.182s.4.6,0,.879.037.957.037.957-.99.59-.556,1.116.161,2.9.161,2.9l-1.2,1.984s.072,1.278.078,3.006c0,2.7-.158,6.486-1.035,8.213l.119,14.176a19.327,19.327,0,0,1-7.71,1.066l-.519-22.747s.76-12.9,1.04-15.374a25.525,25.525,0,0,0,.2-3.874,43.556,43.556,0,0,0-.519-5.669s-.434-7.786-.48-9.941c-.02-1.031.037-4.039.1-6.9.067-3.128.143-6.077.143-6.077l-1.046-6.353s1.046,0,1.287.323a2.058,2.058,0,0,0,.347.267h0c1.367.925,6.2,3.768,6.2,3.768s2.672,1.064,3.312,2.587a22.187,22.187,0,0,0,1.4,3.039,9.271,9.271,0,0,1,.478,2.474s.92,3.755,1.639,4.391,1.237,4.673,1.237,4.673l-6.349,4.992s-.558,8.3-.679,8.626S438.021,361.182,438.021,361.182Z" transform="translate(-344.063 -262.131)" fill="#fff"/>
    <path id="Path_322" data-name="Path 322" d="M431.287,328.451l.573,1.671-3.017,3.039c.067-3.126.143-6.077.143-6.077l-1.046-6.353s1.046,0,1.287.323a1.979,1.979,0,0,0,.347.265h0l2.566,7.4Z" transform="translate(-344.932 -263.846)" opacity="0.1"/>
    <path id="Path_323" data-name="Path 323" d="M430.177,326.241l.575,1.671-3.017,3.039c.067-3.128.143-6.077.143-6.077l-1.048-6.353s1.048,0,1.287.323a2.168,2.168,0,0,0,.347.267h0l2.568,7.4Z" transform="translate(-344.063 -262.115)" fill="#fff"/>
    <path id="Path_324" data-name="Path 324" d="M388.681,251.107a7.351,7.351,0,0,1-.365,2.3.311.311,0,0,1-.234-.059,9.581,9.581,0,0,0-2.2-5.348,5.619,5.619,0,0,0-1.194-1.237,2.335,2.335,0,0,0-1.619-.458c-.651.089-1.226.532-1.884.588-.868.072-1.645-.53-2.507-.56a2.464,2.464,0,0,0-1.843.855,5.055,5.055,0,0,0-.988,1.832,10.718,10.718,0,0,0-.551,3.16c-.011.608-.069,1.37-.634,1.591a3.243,3.243,0,0,0-.818-2.477l-.013-.013v-.178a7.427,7.427,0,1,1,14.854,0Z" transform="translate(-302.567 -203.519)" opacity="0.1"/>
    <path id="Path_325" data-name="Path 325" d="M376.148,221.815a5.114,5.114,0,0,0-3.607-.282c-.6.178-1.168.467-1.778.612-1.3.315-2.822-.026-3.94.736a4.711,4.711,0,0,0-1.341,1.786l-.868,1.654a10.735,10.735,0,0,0-1.148,2.822,3.6,3.6,0,0,0,.553,2.913c.46.584,1.14.951,1.639,1.5a3.256,3.256,0,0,1,.816,2.474c.566-.217.621-.981.634-1.589a10.716,10.716,0,0,1,.551-3.16,5.037,5.037,0,0,1,.988-1.832,2.468,2.468,0,0,1,1.843-.855c.868.03,1.647.629,2.507.558.651-.054,1.229-.5,1.884-.586a2.327,2.327,0,0,1,1.619.458,5.561,5.561,0,0,1,1.192,1.237,9.556,9.556,0,0,1,2.2,5.348c.245.18.6-.054.721-.332a7.944,7.944,0,0,1,.28-.868,3.2,3.2,0,0,1,.786-.7,3.072,3.072,0,0,0,.82-2.459,12.249,12.249,0,0,1-.03-2.674c.1-.538.332-1.042.458-1.574a2.057,2.057,0,0,0-.156-1.587,2.673,2.673,0,0,0-2.144-.868c-.905-.078-1.715.022-2.292-.74a8.318,8.318,0,0,0-.912-1.116C377.309,222.58,376.148,221.863,376.148,221.815Z" transform="translate(-294.384 -186.02)" fill="#512e4e"/>
    <path id="Path_326" data-name="Path 326" d="M302.747,419.324l-2.268-4.193-.718,6.47a29.993,29.993,0,0,1,.319,3.314,31.865,31.865,0,0,0,1.637,4.391s5.672,10.1,7.988,10.622l7.825-5.591-2.075-2.635s-.718-.28-.9,0c0,0-3.853-6.629-4.252-7.108a2.394,2.394,0,0,1-.321-1.437s-.6-.638-.4-1.237-1.157-2.676-1.157-2.676l1.237-1.157Z" transform="translate(-244.574 -337.756)" opacity="0.1"/>
    <path id="Path_327" data-name="Path 327" d="M298.868,412.93l-.6.478-.718,6.47a29.988,29.988,0,0,1,.319,3.314,31.852,31.852,0,0,0,1.639,4.391s5.669,10.1,7.985,10.623l7.827-5.591-2.077-2.635s-.718-.28-.9,0c0,0-3.853-6.629-4.252-7.108a2.387,2.387,0,0,1-.319-1.437s-.6-.638-.4-1.237-1.159-2.676-1.159-2.676l1.237-1.157Z" transform="translate(-242.844 -336.033)" fill="#fff"/>
    <path id="Path_328" data-name="Path 328" d="M458.556,515.766c.434.527.161,2.9.161,2.9l-1.2,1.984s.072,1.281.076,3.006l-2.014.629a1.2,1.2,0,0,1-1.552-1.179l.347-11.2,4.7,1.8c-.4.278.039.959.039.959S458.117,515.238,458.556,515.766Z" transform="translate(-365.358 -413.522)" opacity="0.1"/>
    <path id="Path_329" data-name="Path 329" d="M459.658,514.664c.434.527.161,2.9.161,2.9l-1.2,1.984s.072,1.278.078,3.006l-2.051.64a1.172,1.172,0,0,1-1.519-1.155l.349-11.237,4.7,1.8c-.4.278.037.957.037.957S459.224,514.138,459.658,514.664Z" transform="translate(-366.219 -412.661)" fill="#fff"/>
    <path id="Path_330" data-name="Path 330" d="M469.609,497.7s-.319,2.038-1.118,2.158-1.157,3.3-1.953,3.184-.269-2.954-.241-3.505-.868-2.835-.2-3.353,2.794,0,2.794,0Z" transform="translate(-374.614 -401.032)" fill="#cf6f80"/>
    <path id="Path_331" data-name="Path 331" d="M468.353,420.729l1.506-3.039a19.728,19.728,0,0,1,.6,3.553c0,1.237.838,1.359.838,1.359s.918,1.085.434,1.875a9.1,9.1,0,0,0-.679,2.757s.158,3.753-.56,4.272a2.907,2.907,0,0,0-.868,1.758,12.73,12.73,0,0,0-1.278,2.915c.041.56-1.836,4.352-1.836,4.352s.918-4.712-4.432-6.748c0,0-.041-1.6.358-2.038s1.022-.638.632-2.854a25.882,25.882,0,0,1-.113-5.4,33.978,33.978,0,0,1,1.2-3.848Z" transform="translate(-371.658 -339.76)" opacity="0.1"/>
    <path id="Path_332" data-name="Path 332" d="M470.641,415.69l1.315.434a19.662,19.662,0,0,1,.6,3.553c0,1.237.838,1.359.838,1.359s.918,1.085.434,1.875a9.079,9.079,0,0,0-.677,2.757s.158,3.753-.56,4.272a2.947,2.947,0,0,0-.879,1.758,12.738,12.738,0,0,0-1.276,2.915c.041.56-1.838,4.352-1.838,4.352s.92-4.712-4.432-6.748c0,0-.039-1.6.36-2.038s1.022-.638.632-2.854a25.885,25.885,0,0,1-.113-5.4,33.983,33.983,0,0,1,1.2-3.848Z" transform="translate(-373.295 -338.194)" fill="#fff"/>
    <path id="Path_333" data-name="Path 333" d="M360.15,776s2.1-1.317,3.473-.36S360.15,776,360.15,776Z" transform="translate(-291.856 -619.745)" opacity="0.1"/>
    <path id="Path_334" data-name="Path 334" d="M435.21,759.748a4.245,4.245,0,0,1,3.414,1.439C440.183,762.865,435.21,759.748,435.21,759.748Z" transform="translate(-350.624 -607.565)" opacity="0.1"/>
    <g id="Group_62" data-name="Group 62" transform="translate(68.996 40.078)" opacity="0.1">
      <path id="Path_335" data-name="Path 335" d="M392.882,257.595a3.219,3.219,0,0,0-.788.7,7.939,7.939,0,0,0-.278.868c-.122.282-.475.512-.721.334a9.6,9.6,0,0,0-2.2-5.35,5.559,5.559,0,0,0-1.192-1.237,2.333,2.333,0,0,0-1.621-.458c-.651.089-1.224.532-1.882.586-.868.074-1.647-.527-2.509-.558a2.457,2.457,0,0,0-1.841.857,5.025,5.025,0,0,0-.988,1.83,10.73,10.73,0,0,0-.551,3.16c-.013.606-.069,1.361-.629,1.587a2.968,2.968,0,0,1,0,.482c.564-.217.621-.981.634-1.589a10.718,10.718,0,0,1,.551-3.16,5.038,5.038,0,0,1,.988-1.832,2.464,2.464,0,0,1,1.841-.855c.868.03,1.65.629,2.509.558.651-.054,1.229-.5,1.882-.586a2.333,2.333,0,0,1,1.621.458,5.564,5.564,0,0,1,1.192,1.237,9.572,9.572,0,0,1,2.2,5.348c.245.18.6-.054.721-.332a8.4,8.4,0,0,1,.278-.868,3.211,3.211,0,0,1,.788-.7,3.072,3.072,0,0,0,.82-2.459v-.082A2.85,2.85,0,0,1,392.882,257.595Z" transform="translate(-374.577 -250.458)"/>
      <path id="Path_336" data-name="Path 336" d="M365.667,263.655c-.5-.549-1.181-.916-1.639-1.5a3.177,3.177,0,0,1-.632-1.778,3.342,3.342,0,0,0,.632,2.255c.458.584,1.14.951,1.639,1.5a3.256,3.256,0,0,1,.818,1.936A3.256,3.256,0,0,0,365.667,263.655Z" transform="translate(-363.385 -256.673)"/>
      <path id="Path_337" data-name="Path 337" d="M451.548,243.73c-.128.532-.356,1.038-.46,1.574a5.01,5.01,0,0,0-.067,1.085,4.214,4.214,0,0,1,.067-.616c.1-.538.332-1.042.46-1.574a2.668,2.668,0,0,0,.072-.9A3,3,0,0,1,451.548,243.73Z" transform="translate(-431.994 -243.3)"/>
    </g>
    <rect id="Rectangle_62" data-name="Rectangle 62" width="1.361" height="30.641" transform="translate(28.506 96.614)" fill="#535461"/>
    <path id="Path_338" data-name="Path 338" d="M155.909,637.009l-.085,1.38-.122,1.953-.05.812-.119,1.954-.052.812-.122,1.954-1.372,22.154a3.755,3.755,0,0,1-3.746,3.521h-7.132a3.753,3.753,0,0,1-3.744-3.521L138,645.859l-.122-1.953-.05-.812-.122-1.953-.05-.812-.122-1.953-.087-1.38a1.953,1.953,0,0,1,1.953-2.064H153.99a1.94,1.94,0,0,1,1.919,2.079Z" transform="translate(-117.49 -509.848)" fill="#3f3d56"/>
    <path id="Path_339" data-name="Path 339" d="M108.878,592.24l-.122,1.947H90.7l-.122-1.947Z" transform="translate(-70.544 -463.698)" fill="#9d9cb5"/>
    <path id="Path_340" data-name="Path 340" d="M109.325,604.95l-.119,1.949H91.492l-.122-1.949Z" transform="translate(-71.162 -473.649)" fill="#9d9cb5"/>
    <path id="Path_341" data-name="Path 341" d="M109.772,617.68l-.119,1.947H92.282l-.122-1.947Z" transform="translate(-71.781 -483.616)" fill="#9d9cb5"/>
    <path id="Path_342" data-name="Path 342" d="M65.223,534.82a35.384,35.384,0,0,1,11.232,14.7,35.316,35.316,0,0,1-17.477-6.062,35.331,35.331,0,0,1-11.228-14.7A35.291,35.291,0,0,1,65.223,534.82Z" transform="translate(-47.263 -426.722)" fill="#2a2ac0"/>
    <path id="Path_343" data-name="Path 343" d="M47.72,528.76s9.915,5.5,13.095,10.058,15.617,10.7,15.617,10.7" transform="translate(-47.24 -426.722)" fill="none" stroke="#535461" stroke-miterlimit="10" stroke-width="2"/>
    <path id="Path_344" data-name="Path 344" d="M117.511,491.559a19.271,19.271,0,0,1,6.117,8A17.468,17.468,0,0,1,108,488.26,19.218,19.218,0,0,1,117.511,491.559Z" transform="translate(-94.436 -395.013)" fill="#2a2ac0"/>
    <path id="Path_345" data-name="Path 345" d="M108,488.26s5.4,3,7.126,5.474,8.5,5.826,8.5,5.826" transform="translate(-94.436 -395.013)" fill="none" stroke="#535461" stroke-miterlimit="10" stroke-width="2"/>
    <path id="Path_346" data-name="Path 346" d="M187.194,513.343a26.581,26.581,0,0,0-6,12.563,24.16,24.16,0,0,0,17.942-19.726A26.6,26.6,0,0,0,187.194,513.343Z" transform="translate(-151.74 -409.043)" fill="#2a2ac0"/>
    <path id="Path_347" data-name="Path 347" d="M199.136,506.19s-6.455,5.583-8.1,9.429-9.85,10.295-9.85,10.295" transform="translate(-151.74 -409.051)" fill="none" stroke="#535461" stroke-miterlimit="10" stroke-width="2"/>
    <path id="Path_348" data-name="Path 348" d="M871.185,321.57s-3.583-17.829-2.212-20.047c0,0,.05-2.062-.033-4.69v-.3a6.665,6.665,0,0,0,.753.434,6.1,6.1,0,0,0,4.1.53l-1.085-1.209a2,2,0,0,1-.588-.983,2.06,2.06,0,0,1,.234-1.064c1.031-2.6,1.085-5.88-.9-7.868-1.678-1.671-2.086-3.829-3.907-5.355a11.285,11.285,0,0,1-2.752-4.341,24.409,24.409,0,0,1-1.506-4.109c-.26-1.109-.365-2.257-.723-3.34a4.252,4.252,0,0,0-2.077-2.62,7.839,7.839,0,0,1-1.129-.5,4.878,4.878,0,0,1-1.04-1.222c-1.643-2.171-7.145-.892-9.75-.011a5.484,5.484,0,0,0-1.927,1.068l.024-.039c.02-.033.043-.065.065-.1a3.426,3.426,0,0,0-.729.814,19.5,19.5,0,0,0-.855,1.953c-.382.771-2.507,2.922-1.593,3.788a.766.766,0,0,0,.217.139,1.877,1.877,0,0,0,1.085.109l-.039.093a6.342,6.342,0,0,0-.471,2.407,6.515,6.515,0,0,0,6.572,6.457,6.634,6.634,0,0,0,2.012-.31c.015.082.028.165.043.247a.761.761,0,0,0,.015.1h0l-.115.161a.216.216,0,0,0-.02-.028L849.45,286.5c-.521.367-3.521,2.537-3.69,4.165-.178,1.782-.356,3.868-.356,3.868l-.024.447a1.341,1.341,0,0,1-1.085.293c-1.064-.174-1.064,3.907-1.064,3.907s-.708.651-1.194.087-1.771,1.348-1.771,1.348l-8.053.347h0l-.184.011-.434-1.344a.567.567,0,0,0-.71-.362.656.656,0,0,0-.1.041l-.03.017-.056.039-.028.026a.438.438,0,0,0-.043.046l-.026.03-.013.013h0a.547.547,0,0,0-.078.486l.373,1.153c-1.554.313-3.143,1.194-1.847,3.62l-6.568-1.213,2.125,1.784,10.97,2.264c-.145.26-.05.638.4,1.17,1.953,2.294,5.513,2.917,6.946,3.078a12.327,12.327,0,0,0,1.409,2.388l-.124,2.286s-3.627,17.421-4.291,18.3a10.322,10.322,0,0,0,.918-1.209c-1.053,3.579-2.524,8.478-2.911,9.212-.621,1.172-1.2,5.915-.488,6.219a5.955,5.955,0,0,0,1.723-.02v.393l-.039,14.888s.178,9.131-.31,10a8.515,8.515,0,0,0-.619,2.7,26.46,26.46,0,0,1-3.5,5.049.245.245,0,0,1-.035.03l-.048-.339a7.385,7.385,0,0,1-5.975,2.216s-2.477,1.611,1.2,1.7,8.363-.13,8.363-.13,3.275-4.992,6.019-4.341v3.783h.84V381.1a3.445,3.445,0,0,0,1.5-2.264,2.753,2.753,0,0,0-.981-2.546,1.628,1.628,0,0,1-.536-1.189l-.03.026a2.283,2.283,0,0,0-.028-.234c-.241-1.953-.543-5.984.523-8.966,1.461-4.089,1.9-9.785.84-13.175a30.289,30.289,0,0,1-.844-3.3c-.026-.141-.05-.276-.072-.4a17.11,17.11,0,0,1,2.155.434c2.464.679,7.853.805,12.454.768.011.126.024.258.039.391a14.221,14.221,0,0,0,.512,2.718c.577,1.736.842,9.392.842,9.392s.744,6.295.339,8.856c-.217,1.424-.434,2.854-.558,4.291v.028s-1.22,3.473-2.112,5.359c-.022.048-.046.1-.067.141a2.819,2.819,0,0,0-.7.154s-1.2,2.388-2.388,2.783-.8,1.7,1.9,1.218,6.772-.868,6.772-.868l.176-2.435.829-1.038-.217,2.429.883-.174-.117-2.954,1.357-1.7s1.639-1.459-.8-4.328v.063c-.026-.041-.05-.085-.078-.126v-.013c-.4-.625-.725-1.791-.137-3.859,1.064-3.738,1.682-7.13,1.682-7.13s2.375-9.088-.48-13.388h.126a7.232,7.232,0,0,1-.614-1.91q-.022-.117-.039-.241a15.662,15.662,0,0,0,5.876-1.328C873.045,346.571,872.027,325,871.185,321.57Zm-26.812-15.042v.043l-.434.022Zm-1.489.206a.479.479,0,0,0-.2.093,1.926,1.926,0,0,0-.341.892l-.677-.152s-.475-.1-1.159-.217l-.323-.326C841.078,306.952,842,306.844,842.884,306.735Z" transform="translate(-653.829 -219.188)" fill="url(#linear-gradient-2)"/>
    <path id="Path_349" data-name="Path 349" d="M971.578,741.964l-.258,3.076.866-.174-.13-3.336Z" transform="translate(-760.117 -580.584)" fill="#1d2366"/>
    <path id="Path_350" data-name="Path 350" d="M886.122,668.463c-1.044,2.974-.749,6.987-.514,8.936.087.721.167,1.159.167,1.159s-1.561,3.555-1.691,3.69-4.593,2.859-4.593,2.859l-3.119,1.821s-3.165-1.387-1.647-1.865a2.3,2.3,0,0,0,.818-.558,26.2,26.2,0,0,0,3.427-5.031,8.652,8.652,0,0,1,.608-2.687c.478-.866.3-9.967.3-9.967l.037-14.835V650.05l5.936.043a13.44,13.44,0,0,0,.256,1.953,29.821,29.821,0,0,0,.827,3.29C887.985,658.721,887.551,664.389,886.122,668.463Z" transform="translate(-694.42 -521.686)" fill="#ffb0b1"/>
    <path id="Path_351" data-name="Path 351" d="M885.775,777.225s-1.561,3.555-1.691,3.69-4.593,2.859-4.593,2.859l-3.119,1.821s-3.165-1.387-1.647-1.864a2.3,2.3,0,0,0,.818-.558l.135.949,1.04-.043,8.9-8.007C885.695,776.786,885.775,777.225,885.775,777.225Z" transform="translate(-694.42 -620.353)" opacity="0.1"/>
    <path id="Path_352" data-name="Path 352" d="M865.779,777l-8.949,8.061-1.04.044-.217-1.519a7.186,7.186,0,0,1-5.86,2.21s-2.427,1.6,1.17,1.691,8.189-.13,8.189-.13,3.208-4.992,5.893-4.341v3.77h.825v-3.8a3.427,3.427,0,0,0,1.463-2.257,2.765,2.765,0,0,0-.957-2.535A1.635,1.635,0,0,1,865.779,777Z" transform="translate(-674.531 -621.081)" fill="#1d2366"/>
    <path id="Path_353" data-name="Path 353" d="M994.476,672.516c-.577,2.062-.263,3.223.132,3.846v.013a7.106,7.106,0,0,1,1.037,2.533l.035.2-4.072,5.936-2.21.868s-3.553-1.213-2.9-1.561a3.327,3.327,0,0,0,.708-1.159c.868-1.877,2.066-5.342,2.066-5.342v-.028c.126-1.43.326-2.856.547-4.276.4-2.555-.332-8.825-.332-8.825s-.26-7.625-.825-9.359a14.317,14.317,0,0,1-.506-2.7c-.117-1.085-.143-1.979-.143-1.979s2.34-3.256,6.629.26a4.717,4.717,0,0,1,.9.972c2.963,4.215.577,13.5.577,13.5S995.515,668.789,994.476,672.516Z" transform="translate(-782.19 -521.103)" fill="#ffb0b1"/>
    <path id="Path_354" data-name="Path 354" d="M995.71,776.513l-4.072,5.936-2.21.868s-3.553-1.213-2.9-1.561a3.324,3.324,0,0,0,.708-1.159,2.808,2.808,0,0,1,2.283,1.42l1.906-.3s2.513-4.94,3.078-5.242.087-2.255.087-2.255v-.5c.015.017.028.037.046.054v.013a7.108,7.108,0,0,1,1.037,2.533Z" transform="translate(-782.213 -618.513)" opacity="0.1"/>
    <path id="Path_355" data-name="Path 355" d="M979.079,782.6a2.653,2.653,0,0,0-3.165-1.257s-1.17,2.388-2.34,2.774-.779,1.689,1.864,1.213,6.629-.868,6.629-.868l.174-2.429,2.687-3.423s1.6-1.452-.781-4.311v.5s.478,1.953-.087,2.255-3.069,5.244-3.069,5.244Z" transform="translate(-771.647 -618.967)" fill="#1d2366"/>
    <path id="Path_356" data-name="Path 356" d="M906.083,650.073a13.459,13.459,0,0,0,.256,1.953,27.231,27.231,0,0,0-6.2-.063V650.03Z" transform="translate(-714.641 -521.67)" opacity="0.1"/>
    <path id="Path_357" data-name="Path 357" d="M1001.558,652.444s-3.473.169-7.614.2c-.117-1.085-.143-1.979-.143-1.979s2.34-3.256,6.629.26a4.715,4.715,0,0,1,.9.972A5.285,5.285,0,0,0,1001.558,652.444Z" transform="translate(-787.972 -521.095)" opacity="0.1"/>
    <path id="Path_358" data-name="Path 358" d="M921,514.908s-15.211.736-19.847-.564-9.231-.174-9.924-.475-.13-5.027.478-6.2,3.942-13,3.942-13l3.208-16.726,3.379-.931.239-.067,5.889-1.624,4.315-1.192s8.58,33.5,7.844,35.968A6.326,6.326,0,0,0,920.4,513,7.263,7.263,0,0,0,921,514.908Z" transform="translate(-707.414 -383.95)" fill="#1d2366"/>
    <path id="Path_359" data-name="Path 359" d="M870.232,439s-3.039,3.256-.738,5.07,3.814.174,3.814.174Z" transform="translate(-689.973 -356.445)" fill="#c7daf5"/>
    <path id="Path_360" data-name="Path 360" d="M870.232,439s-3.039,3.256-.738,5.07,3.814.174,3.814.174Z" transform="translate(-689.973 -356.445)" opacity="0.1"/>
    <path id="Path_361" data-name="Path 361" d="M965.661,318.973s-.356.339-.892.838c-.764.714-1.895,1.758-2.9,2.633-1.389,1.209-2.535,2.1-2.125,1.339a5.852,5.852,0,0,0,.128-3.312c-.015-.082-.028-.165-.043-.245a22.735,22.735,0,0,0-.671-2.683,46.416,46.416,0,0,1,3.486-4.044c.462-.434.786-.612.805-.31a10.085,10.085,0,0,0,.7,2.253c.011.03.022.059.035.089.252.651.536,1.32.786,1.9C965.357,318.313,965.661,318.973,965.661,318.973Z" transform="translate(-760.85 -257.823)" fill="#ffb0b1"/>
    <path id="Path_362" data-name="Path 362" d="M964.189,315.539a6.442,6.442,0,0,1-4.315,4.94,22.588,22.588,0,0,0-.714-2.928s4.226-5.459,4.291-4.354A10.334,10.334,0,0,0,964.189,315.539Z" transform="translate(-760.85 -257.833)" opacity="0.1"/>
    <path id="Path_363" data-name="Path 363" d="M931.2,351.221l.547-.771s.363,2.21,1.7,1.235,1.4,7.334,1.4,7.334l-1.43,21.386-10.336-.619.293-10.334,1.17-5.209,2.893-7.573,1.721-2.5Z" transform="translate(-732.593 -287.115)" opacity="0.1"/>
    <path id="Path_364" data-name="Path 364" d="M934.86,359.59l-1.3,19.337-.137,2.049-5.763-.345-.217-.013-4.341-.26.293-10.336,1.17-5.209,2.893-7.573,1.721-2.5,2.049-2.958.547-.768s.363,2.21,1.7,1.235l.028-.02h0C934.8,351.4,934.86,359.59,934.86,359.59Z" transform="translate(-732.617 -287.553)" fill="#1d2366"/>
    <path id="Path_365" data-name="Path 365" d="M882.194,406.26a1.581,1.581,0,0,1-1.561.909c-1.042-.176-1.04,3.907-1.04,3.907s-.693.651-1.17.087-1.736,1.344-1.736,1.344l-7.888.347s3.51,1.6,2.822,6.457c0,0,11.916-.738,12.307-1.865S882.194,406.26,882.194,406.26Z" transform="translate(-690.103 -330.811)" fill="#fff"/>
    <path id="Path_366" data-name="Path 366" d="M882.194,406.26a1.581,1.581,0,0,1-1.561.909c-1.042-.176-1.04,3.907-1.04,3.907s-.693.651-1.17.087-1.736,1.344-1.736,1.344l-7.888.347s3.51,1.6,2.822,6.457c0,0,11.916-.738,12.307-1.865S882.194,406.26,882.194,406.26Z" transform="translate(-690.103 -330.811)" opacity="0.03"/>
    <path id="Path_367" data-name="Path 367" d="M777.66,389.76l2.079,1.776,17.117,3.6-2.123-2.166Z" transform="translate(-608.492 -305.167)" fill="#fff"/>
    <path id="Path_368" data-name="Path 368" d="M915.962,349.829a43.752,43.752,0,0,0-1.778,4.6c-.567,1.617-1.04,3.039-1.04,3.039s-1.1,7.193-1.669,8.493-.258,6.371-.258,6.371l-2.1,12.522a62.458,62.458,0,0,1-2.424,10.314,18.783,18.783,0,0,1-3.119,5.633c.651-.881,4.2-18.232,4.2-18.232l1.172-21.883s.172-2.079.345-3.857,3.69-4.2,3.69-4.2l3.391-4.821C916.708,348.256,916.48,349.05,915.962,349.829Z" transform="translate(-717.326 -285.04)" fill="#fff"/>
    <path id="Path_369" data-name="Path 369" d="M891.559,469.4s-4.992-.217-7.41-3.121,5.589-1.159,5.589-1.159l2.082.478Z" transform="translate(-701.764 -376.492)" fill="#ffb0b1"/>
    <path id="Path_370" data-name="Path 370" d="M961.377,417.95a6.326,6.326,0,0,0-.126,2.906,41.371,41.371,0,0,1-11.271-1.085,25.321,25.321,0,0,1-3.944,2.47l-1.558-19.318c-1-2.6-1.387-16.251-1.387-16.251s.089-.714.217-1.784a.205.205,0,0,1,.011-.08c.388-2.989,1.159-8.6,1.537-9.357.521-1.042-1.6-3.814-1.6-3.814l.966-8.237.117-.994c2.036-.909,3.6-3.814,3.6-3.814l1.2-2.1h0c1.3-.836,1.37,7.354,1.37,7.354l-1.3,19.337,4.315-1.192S962.113,415.48,961.377,417.95Z" transform="translate(-748.268 -291.8)" opacity="0.1"/>
    <path id="Path_371" data-name="Path 371" d="M967.905,400.624c-5.936,2.948-16.726.217-16.726.217a25.318,25.318,0,0,1-3.944,2.47l-1.561-19.318c-.994-2.6-1.385-16.251-1.385-16.251s1.255-10.182,1.775-11.222a1.672,1.672,0,0,0-.1-1.242,15.709,15.709,0,0,1-.951-7.269l.417-3.54.115-.992c2.038-.912,3.6-3.816,3.6-3.816l1.085-1.9,2-3.5.946-1.658.161.145,1.226,1.111,1.3,1.085c1.7,1.433,4.636,3.955,6.151,5.5,1.333,1.359,1.754,6.644,1.875,10.623.08,2.62.033,4.673.033,4.673-1.344,2.212,2.17,19.969,2.17,19.969C966.909,379.136,967.905,400.624,967.905,400.624Z" transform="translate(-749.208 -273.139)" fill="#fff"/>
    <path id="Path_372" data-name="Path 372" d="M934.7,363.836s-4.074,7.755-3.6,10.7,1.819,6.284,1.17,7.063a2.4,2.4,0,0,1-1.908.953,6.272,6.272,0,0,0-2.388,1.387,22.616,22.616,0,0,0-3.039.738,18.922,18.922,0,0,1-3.553.953s-4.124-.13-4.508.26-.779,2.728.043,4.593,1.736,3.256,2.427,3.51,5.07-1.213,8.624-1.561,7.41-3.162,7.41-3.162,4.248-1.519,4.992-4.074-.909-16.6-.909-16.6S938.209,362.058,934.7,363.836Z" transform="translate(-727.397 -297.355)" opacity="0.03"/>
    <path id="Path_373" data-name="Path 373" d="M932.322,360.838s-4.074,7.757-3.6,10.7,1.819,6.284,1.168,7.065a2.388,2.388,0,0,1-1.906.953,6.272,6.272,0,0,0-2.388,1.387,22.808,22.808,0,0,0-3.039.736,19.109,19.109,0,0,1-3.553.953s-4.124-.13-4.506.26-.781,2.731.043,4.593,1.736,3.256,2.427,3.51,5.07-1.213,8.623-1.558,7.41-3.165,7.41-3.165,4.246-1.519,4.981-4.072-.91-16.6-.91-16.6S935.832,359.062,932.322,360.838Z" transform="translate(-725.54 -295.009)" opacity="0.03"/>
    <path id="Path_374" data-name="Path 374" d="M934.125,362.047s-4.074,7.757-3.6,10.7,1.819,6.284,1.17,7.063a2.387,2.387,0,0,1-1.908.955,6.3,6.3,0,0,0-2.388,1.385,22.333,22.333,0,0,0-3.039.738,18.956,18.956,0,0,1-3.553.953s-4.124-.13-4.508.26-.779,2.73.043,4.593,1.736,3.256,2.427,3.51,5.07-1.213,8.624-1.561,7.41-3.162,7.41-3.162,4.248-1.519,4.992-4.074-.9-16.6-.9-16.6S937.632,360.28,934.125,362.047Z" transform="translate(-726.951 -295.957)" fill="#fff"/>
    <path id="Path_375" data-name="Path 375" d="M991.069,458.3s-3.256-.651-2.123.434,1.127,2.036,2.514,1.992S991.069,458.3,991.069,458.3Z" transform="translate(-783.984 -371.405)" opacity="0.1"/>
    <path id="Path_376" data-name="Path 376" d="M1023.553,566.58s-1.472,1,1.344,3.293S1023.553,566.58,1023.553,566.58Z" transform="translate(-810.966 -456.333)" opacity="0.1"/>
    <path id="Path_377" data-name="Path 377" d="M1011.772,604.31c0,.13-.521,4.775,1.428,5.936S1011.772,604.31,1011.772,604.31Z" transform="translate(-801.993 -485.874)" opacity="0.1"/>
    <path id="Path_378" data-name="Path 378" d="M856.076,436.59c-1.571.054-4.966.534-3.206,3.818,1.556,2.906,4.172.964,5.643-.51A5.545,5.545,0,0,0,856.076,436.59Z" transform="translate(-677.244 -354.558)" fill="#ffb0b1"/>
    <path id="Path_379" data-name="Path 379" d="M881.39,451Z" transform="translate(-699.96 -365.84)" fill="#ffb0b1"/>
    <path id="Path_380" data-name="Path 380" d="M880.74,451.467l.065-.067Z" transform="translate(-699.451 -366.153)" fill="#ffb0b1"/>
    <path id="Path_381" data-name="Path 381" d="M959.972,335.536c-1.667,1.14-3.065,2.1-3.338,2.3-.747.553-2.171,3.8-3.089,5.461-.731,1.335-3.108,1.678-4,1.762l.115-.992c2.038-.912,3.6-3.816,3.6-3.816l4.028-7.063,1.387,1.261Z" transform="translate(-753.318 -273.601)" opacity="0.1"/>
    <path id="Path_382" data-name="Path 382" d="M959.972,334.936c-1.667,1.14-3.065,2.1-3.338,2.3-.747.551-2.171,3.8-3.089,5.459-.731,1.335-3.108,1.678-4,1.762l.115-.992c2.038-.912,3.6-3.816,3.6-3.816l4.028-7.063,1.387,1.257S959.19,334.276,959.972,334.936Z" transform="translate(-753.318 -273.131)" fill="#dce7ff"/>
    <path id="Path_383" data-name="Path 383" d="M936.372,294.7a6.438,6.438,0,1,1-5.473-6.364,6.426,6.426,0,0,1,5.473,6.364Z" transform="translate(-732.927 -238.425)" fill="#ffb0b1"/>
    <path id="Path_384" data-name="Path 384" d="M949.293,316.35a5.721,5.721,0,0,1-2.077-2.231,5.877,5.877,0,0,0-1.222-2.051,5.427,5.427,0,0,0-2-.771,5.854,5.854,0,0,1-4.269-5.138,30.412,30.412,0,0,0,.156-3.347,3.708,3.708,0,0,0-.725-1.726,5.96,5.96,0,0,0-.627-.675c-.3-.286-.623-.564-.9-.868a3.373,3.373,0,0,1-.456-.619,2.984,2.984,0,0,1-.25-.575c-.434-1.328-.039-2.9-.516-4.248l-.026-.074a1.382,1.382,0,0,0-1.057-.992c-.51-.037-.946.386-1.432.575-1.018.4-2.116-.278-2.965-.964s-1.806-1.469-2.885-1.318a9.32,9.32,0,0,0-1.936.84,2.711,2.711,0,0,1-.458.132,6.436,6.436,0,0,1,12.409,2.4,6.364,6.364,0,0,1-.141,1.344c.011.03.022.059.035.089.252.651.536,1.32.786,1.9l1.226,1.111,1.3,1.085c1.7,1.433,4.636,3.955,6.151,5.5C948.751,307.089,949.168,312.372,949.293,316.35Z" transform="translate(-734.613 -238.425)" opacity="0.1"/>
    <path id="Path_385" data-name="Path 385" d="M920.984,270.386c.31-.632.464-1.339.836-1.938a4.618,4.618,0,0,1,2.472-1.76c2.55-.879,7.94-2.155,9.55,0a4.7,4.7,0,0,0,1.018,1.215,7.564,7.564,0,0,0,1.1.5A4.222,4.222,0,0,1,938,271c.349,1.072.454,2.223.71,3.327a24.472,24.472,0,0,0,1.476,4.1,11.28,11.28,0,0,0,2.694,4.324c1.778,1.519,2.171,3.67,3.82,5.337,1.953,1.979,1.891,5.246.883,7.84a2.154,2.154,0,0,0-.23,1.059,2.077,2.077,0,0,0,.575.981l1.068,1.2a6,6,0,0,1-6.562-3.026,5.87,5.87,0,0,0-1.224-2.051,5.413,5.413,0,0,0-1.995-.768,5.861,5.861,0,0,1-4.269-5.142,30.334,30.334,0,0,0,.156-3.343,3.688,3.688,0,0,0-.727-1.736c-.6-.779-1.5-1.3-1.984-2.171-.823-1.452-.2-3.338-.79-4.9a1.385,1.385,0,0,0-1.057-.992c-.51-.037-.946.386-1.435.575-1.016.4-2.114-.276-2.963-.964s-1.806-1.469-2.887-1.315a9.074,9.074,0,0,0-1.934.84c-.486.187-1.472.354-1.9-.056C918.527,273.3,920.608,271.159,920.984,270.386Z" transform="translate(-729.565 -220.606)" fill="#591d4b"/>
    <path id="Path_386" data-name="Path 386" d="M942.865,303.047A5.87,5.87,0,0,0,941.641,301a5.411,5.411,0,0,0-2-.771,5.862,5.862,0,0,1-4.269-5.14,30.928,30.928,0,0,0,.158-3.345,3.711,3.711,0,0,0-.727-1.726c-.6-.779-1.5-1.3-1.984-2.171-.823-1.45-.2-3.336-.792-4.9a1.39,1.39,0,0,0-1.055-.992c-.508-.039-.948.389-1.435.577-1.016.4-2.116-.278-2.963-.964s-1.808-1.469-2.887-1.317a9.25,9.25,0,0,0-1.934.84c-.486.187-1.474.356-1.9-.054-.894-.868,1.187-3.006,1.561-3.775a20.8,20.8,0,0,1,.838-1.938c.02-.033.041-.065.063-.1a3.446,3.446,0,0,0-.714.812,21.094,21.094,0,0,0-.836,1.938c-.375.768-2.457,2.913-1.561,3.775.434.412,1.411.243,1.9.056a8.936,8.936,0,0,1,1.934-.84c1.085-.154,2.04.629,2.887,1.315s1.953,1.359,2.965.964c.486-.189.911-.614,1.432-.575a1.382,1.382,0,0,1,1.057.992c.593,1.558-.033,3.445.79,4.9.486.853,1.387,1.387,1.984,2.171a3.69,3.69,0,0,1,.727,1.736,30.335,30.335,0,0,1-.156,3.343A5.852,5.852,0,0,0,939,300.955a5.442,5.442,0,0,1,1.995.768,5.741,5.741,0,0,1,1.224,2.051,6,6,0,0,0,6.562,3.026l-.5-.569A6.07,6.07,0,0,1,942.865,303.047Z" transform="translate(-729.396 -228.221)" opacity="0.1"/>
    <path id="Path_387" data-name="Path 387" d="M949.271,350.351a43.81,43.81,0,0,0-1.778,4.6c-.636-.247-1.213-1.825-1.213-1.825l3.39-4.823C950.018,348.778,949.79,349.57,949.271,350.351Z" transform="translate(-750.766 -285.432)" opacity="0.1"/>
    <path id="Path_388" data-name="Path 388" d="M949.871,349.759a43.752,43.752,0,0,0-1.778,4.6c-.636-.245-1.213-1.825-1.213-1.825l3.39-4.821C950.618,348.185,950.39,348.98,949.871,349.759Z" transform="translate(-751.235 -284.97)" fill="#dce7ff"/>
    <path id="Path_389" data-name="Path 389" d="M862.964,435.323l-1.88-5.928a.553.553,0,0,1,.36-.7h0a.556.556,0,0,1,.695.36l1.88,5.921-.187,1.239Z" transform="translate(-684.042 -348.359)" fill="#be8b87"/>
    <path id="Path_390" data-name="Path 390" d="M861.585,428.906h0a.555.555,0,0,1,.7.36l1.88,5.921-.141.929.137.143.187-1.239-1.89-5.921a.556.556,0,0,0-.695-.36h0a.555.555,0,0,0-.289.217A.758.758,0,0,1,861.585,428.906Z" transform="translate(-684.364 -348.391)" fill="#fff" opacity="0.1"/>
    <path id="Path_391" data-name="Path 391" d="M822.6,399.474l1.055-.334-.154,1.016-.033.224-.308-.321Z" transform="translate(-643.677 -312.511)" fill="#efc8c4"/>
    <path id="Path_392" data-name="Path 392" d="M872.42,461.743a.22.22,0,0,1,.067-.057.1.1,0,0,1,.1,0,.269.269,0,0,1,.037.059.187.187,0,0,0,.135.089l-.032.217Z" transform="translate(-692.937 -374.196)" fill="#727a9c"/>
    <path id="Path_393" data-name="Path 393" d="M861.13,441.7s3.77-.022,2.882,1.582a3.391,3.391,0,0,1-2.275,1.8Z" transform="translate(-684.098 -358.559)" fill="#ffb0b1"/>
    <path id="Path_394" data-name="Path 394" d="M574.189,110.05h-.163a18.565,18.565,0,0,0-15.5,8.485,18.565,18.565,0,0,0-15.5-8.485h-.163a18.449,18.449,0,0,0-18.274,18.439c0,6.036,2.644,14.6,7.8,21.649,9.822,13.429,26.138,25.178,26.138,25.178s16.316-11.747,26.135-25.178c5.157-7.048,7.8-15.613,7.8-21.649A18.45,18.45,0,0,0,574.189,110.05Zm-2.329,41.121a3.657,3.657,0,0,1-3.4-2.349h-3.872a1.224,1.224,0,0,1-1.152-.833l-1.189-3.584-3.764,13.151a1.218,1.218,0,0,1-1.168.879h-.076a1.2,1.2,0,0,1-1.129-1.007L552.229,134.1l-2.835,13.8a1.209,1.209,0,0,1-1.174.918h-5.454a1.213,1.213,0,1,1,0-2.424h4.5l4.016-18.56a1.218,1.218,0,0,1,2.388.1l3.961,23.8L561,139.968a1.194,1.194,0,0,1,1.135-.868h.024a1.211,1.211,0,0,1,1.15.833l2.151,6.47h2.948a3.638,3.638,0,1,1,3.455,4.775Z" transform="translate(-420.604 -98.894)" fill="#2a2ac0"/>
  </g>
</svg>
