<svg xmlns="http://www.w3.org/2000/svg" xmlns:xlink="http://www.w3.org/1999/xlink" width="205" height="328" viewBox="0 0 205 328">
  <defs>
    <filter id="Rectangle_2" x="0" y="0" width="205" height="328" filterUnits="userSpaceOnUse">
      <feOffset dy="3" input="SourceAlpha"/>
      <feGaussianBlur stdDeviation="8" result="blur"/>
      <feFlood flood-opacity="0.078"/>
      <feComposite operator="in" in2="blur"/>
      <feComposite in="SourceGraphic"/>
    </filter>
  </defs>
  <g id="Group_16" data-name="Group 16" transform="translate(3 -221)">
    <g transform="matrix(1, 0, 0, 1, -3, 221)" filter="url(#Rectangle_2)">
      <rect id="Rectangle_2-2" data-name="Rectangle 2" width="157" height="280" rx="8" transform="translate(24 21)" fill="#fff"/>
    </g>
    <text id="Records" transform="translate(36 261)" fill="#181461" font-size="16" font-family="Lato-Bold, Lato" font-weight="700"><tspan x="0" y="16">Records</tspan></text>
    <g id="Group_20" data-name="Group 20" transform="translate(-1022 -682.787)">
      <path id="Path_178" data-name="Path 178" d="M507.2,403.464a.471.471,0,0,0-.194.637L530.5,448.106a.471.471,0,0,0,.637.193l33.212-17.732a.471.471,0,0,0,.194-.637l-23.495-44.006a.471.471,0,0,0-.637-.194Z" transform="translate(583.944 664.948)" fill="#3f3d56"/>
      <path id="Path_179" data-name="Path 179" d="M515.182,415.881l21.5,40.269,29.475-15.736-21.5-40.269Zm-1.868,1,0,0,0,0Z" transform="translate(579.046 653.817)" fill="#f4f2f2"/>
      <path id="Path_180" data-name="Path 180" d="M552.248,448.856a1.167,1.167,0,0,0-.218,1.591c.338.633.985.949,1.443.7l21.588-11.526a1.167,1.167,0,0,0,.218-1.591c-.338-.633-.985-.949-1.443-.7Z" transform="translate(549.412 625.269)" fill="#2a2ac0"/>
      <path id="Path_181" data-name="Path 181" d="M563.782,470.461a1.167,1.167,0,0,0-.218,1.591c.338.633.985.949,1.443.7L586.6,461.23a1.167,1.167,0,0,0,.218-1.591c-.338-.633-.985-.949-1.443-.7Z" transform="translate(540.537 608.646)" fill="#2a2ac0"/>
      <path id="Path_182" data-name="Path 182" d="M575.317,492.065a1.167,1.167,0,0,0-.218,1.591c.338.633.985.949,1.443.7l21.588-11.526a1.167,1.167,0,0,0,.218-1.591c-.338-.633-.985-.949-1.443-.7Z" transform="translate(531.662 592.023)" fill="#2a2ac0"/>
      <path id="Path_183" data-name="Path 183" d="M586.852,513.67a1.167,1.167,0,0,0-.218,1.591c.338.632.985.949,1.443.7l21.588-11.526a1.167,1.167,0,0,0,.218-1.591c-.338-.633-.985-.949-1.443-.7Z" transform="translate(522.787 575.401)" fill="#2a2ac0"/>
      <path id="Path_184" data-name="Path 184" d="M598.386,535.274a1.167,1.167,0,0,0-.218,1.591c.338.633.985.949,1.443.7L621.2,526.044a1.167,1.167,0,0,0,.218-1.591c-.338-.633-.985-.949-1.443-.7Z" transform="translate(513.913 558.778)" fill="#2a2ac0"/>
      <path id="Path_185" data-name="Path 185" d="M397.312,209.571l19.561,1.194,5.478-16.337L405.194,190.8Z" transform="translate(719.179 839.829)" fill="#2f2e41"/>
      <circle id="Ellipse_29" data-name="Ellipse 29" cx="7.823" cy="7.823" r="7.823" transform="translate(1122.775 1029.623)" fill="#ffb8b8"/>
      <path id="Path_186" data-name="Path 186" d="M460.139,248.491l-12.682,2.075-3.344-13.259,8.878-.807Z" transform="translate(683.17 804.67)" fill="#ffb8b8"/>
      <path id="Path_187" data-name="Path 187" d="M647.137,549.96l.051.609a62.9,62.9,0,0,1-30.662,2.6l-.067,1.081a3.7,3.7,0,0,1-5.025,3.214l2.186-4.845,2.765-6.131,1.812-4.019-.653-13.9-.069-1.439-.085-1.836,1.181-.007,8.393-.051,8-.051,1.22-.007C643.832,534.579,650.143,542.226,647.137,549.96Z" transform="translate(503.551 557.62)" fill="#2f2e41"/>
      <path id="Path_188" data-name="Path 188" d="M650.279,404.606,631.6,406.681l-.692-12.913c-2.192-5.59-.745-10.58,3.8-15.058l.925-3.661a5.42,5.42,0,0,1,4-3.946h0a19.3,19.3,0,0,1,10.406-2.469h0a7.765,7.765,0,0,1,4.917,7.837A143.868,143.868,0,0,1,650.279,404.606Z" transform="translate(489.34 678.07)" fill="#2a2ac0"/>
      <path id="Path_189" data-name="Path 189" d="M622.886,429.9l-.15,1.132-2.387,18.007-1.264,2.709-.413.885-9.622,20.617-.4,6.433-.067,1.081a3.7,3.7,0,1,1-7.086-1.679l.385-.906,2.1-4.93,5.689-18.17.468-1.5.558-1.782,1.586-5.066,2.527-15.579.24-1.485Z" transform="translate(511.43 631.098)" fill="#ffb8b8"/>
      <path id="Path_190" data-name="Path 190" d="M666.641,391.495a13.592,13.592,0,0,0-10.377,0l1.069-9.269a4.42,4.42,0,0,1,4.186-4.564h0a4.421,4.421,0,0,1,4.648,4.2Z" transform="translate(469.058 671.12)" fill="#6c63ff"/>
      <path id="Path_191" data-name="Path 191" d="M626.107,280.374s-4.045,1.476-4.149,6.843a9.687,9.687,0,0,0,.358,2.672c.262.986.473,3.126-1.291,5.979a55.307,55.307,0,0,0-3.121,5.745h0l4.555.439.753-7.551a37.478,37.478,0,0,1,2.677-10.646l.029-.071s2.09,3.632,6.061,3.52l-1.458-1.378a50.1,50.1,0,0,0,7.679,2.249,1.713,1.713,0,0,1,1.032,2.849l-.049.052c-1.654,1.75-4.946,5.817-2.873,8.882s.4,3.963.4,3.963l3.073-1.79,1.394-.891.032,1.135,7.352-1.059s1.978-.34-2.413-5.042a5.058,5.058,0,0,1-.73-3.47,8.148,8.148,0,0,0,.2-3.819C644.513,283.7,640.476,273.228,626.107,280.374Z" transform="translate(498.573 747.829)" fill="#2f2e41"/>
      <path id="Path_192" data-name="Path 192" d="M220.823,414.831a.231.231,0,0,0-.163.282l6.293,23.619a.231.231,0,0,0,.282.164l17.825-4.749a.231.231,0,0,0,.163-.282l-6.293-23.618a.231.231,0,0,0-.282-.163Z" transform="translate(841.348 646.177)" fill="#f4f2f2"/>
      <path id="Path_193" data-name="Path 193" d="M239.352,437.281a.572.572,0,0,0-.282.735c.09.34.364.563.61.5l11.586-3.087a.572.572,0,0,0,.282-.735c-.09-.34-.364-.563-.61-.5Z" transform="translate(827.199 627.627)" fill="#2a2ac0"/>
      <path id="Path_194" data-name="Path 194" d="M242.442,448.877a.572.572,0,0,0-.282.735c.09.34.364.563.61.5l11.586-3.087a.572.572,0,0,0,.282-.735c-.09-.34-.364-.563-.61-.5Z" transform="translate(824.822 618.706)" fill="#2a2ac0"/>
      <path id="Path_195" data-name="Path 195" d="M245.531,460.472a.572.572,0,0,0-.282.735c.09.339.364.563.61.5l11.586-3.087a.572.572,0,0,0,.282-.735c-.09-.339-.364-.563-.61-.5Z" transform="translate(822.445 609.784)" fill="#2a2ac0"/>
      <path id="Path_196" data-name="Path 196" d="M248.621,472.068a.572.572,0,0,0-.282.735c.09.339.364.563.61.5l11.586-3.087a.572.572,0,0,0,.282-.735c-.09-.34-.364-.563-.61-.5Z" transform="translate(820.068 600.862)" fill="#2a2ac0"/>
      <path id="Path_197" data-name="Path 197" d="M251.71,483.663a.572.572,0,0,0-.282.735c.09.34.364.563.61.5l11.586-3.087a.572.572,0,0,0,.282-.735c-.09-.339-.364-.563-.61-.5Z" transform="translate(817.691 591.94)" fill="#2a2ac0"/>
      <path id="Path_198" data-name="Path 198" d="M254.8,495.259a.572.572,0,0,0-.282.735c.09.339.364.563.61.5l11.586-3.087a.572.572,0,0,0,.282-.735c-.09-.339-.364-.563-.61-.5Z" transform="translate(815.314 583.019)" fill="#2a2ac0"/>
      <path id="Path_206" data-name="Path 206" d="M223.823,327.708a.231.231,0,0,0-.095.312l11.512,21.562a.231.231,0,0,0,.312.095l16.273-8.688a.231.231,0,0,0,.095-.312l-11.512-21.562a.231.231,0,0,0-.312-.095Z" transform="translate(839.002 716.256)" fill="#fff"/>
      <path id="Path_207" data-name="Path 207" d="M227.735,333.792l10.534,19.731,14.442-7.711-10.534-19.731Zm-.915.489h0Z" transform="translate(836.602 710.801)" fill="#f4f2f2"/>
      <path id="Path_208" data-name="Path 208" d="M245.9,349.95a.572.572,0,0,0-.107.779c.165.31.483.465.707.345l10.577-5.647a.572.572,0,0,0,.107-.779c-.165-.31-.483-.465-.707-.345Z" transform="translate(822.082 696.813)" fill="#2a2ac0"/>
      <path id="Path_209" data-name="Path 209" d="M251.548,360.535a.572.572,0,0,0-.107.779c.165.31.483.465.707.345l10.577-5.647a.572.572,0,0,0,.107-.779c-.165-.31-.483-.465-.707-.345Z" transform="translate(817.734 688.669)" fill="#2a2ac0"/>
      <path id="Path_210" data-name="Path 210" d="M257.2,371.121a.572.572,0,0,0-.107.779c.165.31.483.465.707.345l10.578-5.647a.572.572,0,0,0,.107-.779c-.165-.31-.483-.465-.707-.345Z" transform="translate(813.385 680.524)" fill="#2a2ac0"/>
      <path id="Path_211" data-name="Path 211" d="M262.852,381.707a.572.572,0,0,0-.107.779c.165.31.483.465.707.345l10.577-5.647a.572.572,0,0,0,.107-.779c-.165-.31-.483-.465-.707-.345Z" transform="translate(809.037 672.379)" fill="#2a2ac0"/>
      <path id="Path_212" data-name="Path 212" d="M268.5,392.293a.572.572,0,0,0-.107.779c.165.31.483.465.707.345l10.578-5.647a.572.572,0,0,0,.107-.779c-.165-.31-.483-.465-.707-.345Z" transform="translate(804.688 664.234)" fill="#2a2ac0"/>
      <path id="Path_213" data-name="Path 213" d="M274.155,402.878a.572.572,0,0,0-.107.779c.165.31.483.465.707.345l10.578-5.647a.572.572,0,0,0,.107-.779c-.165-.31-.483-.465-.707-.345Z" transform="translate(800.34 656.089)" fill="#2a2ac0"/>
      <path id="Path_214" data-name="Path 214" d="M867.331,595.639a.231.231,0,0,0-.316.081L854.58,616.763a.231.231,0,0,0,.081.316l15.881,9.385a.231.231,0,0,0,.316-.081l12.435-21.043a.231.231,0,0,0-.081-.316Z" transform="translate(296.897 508.037)" fill="#e6e6e6"/>
      <path id="Path_215" data-name="Path 215" d="M873.091,601.009l-11.379,19.256,14.095,8.329,11.379-19.256Zm-.893-.528h0Z" transform="translate(291.385 504.287)" fill="#f4f2f2"/>
      <path id="Path_216" data-name="Path 216" d="M908.442,620.991a.671.671,0,0,0-.648,1.1l10.323,6.1a.671.671,0,0,0,.648-1.1Z" transform="translate(256.074 488.544)" fill="#2a2ac0"/>
      <path id="Path_217" data-name="Path 217" d="M902.337,631.322a.671.671,0,0,0-.649,1.1l10.323,6.1a.671.671,0,0,0,.648-1.1Z" transform="translate(260.771 480.595)" fill="#2a2ac0"/>
      <path id="Path_218" data-name="Path 218" d="M896.232,641.653a.671.671,0,0,0-.648,1.1l10.323,6.1a.671.671,0,0,0,.649-1.1Z" transform="translate(265.469 472.646)" fill="#2a2ac0"/>
      <path id="Path_219" data-name="Path 219" d="M890.127,651.984a.671.671,0,0,0-.649,1.1l10.323,6.1a.671.671,0,0,0,.649-1.1Z" transform="translate(270.166 464.698)" fill="#2a2ac0"/>
      <path id="Path_220" data-name="Path 220" d="M884.022,662.315a.671.671,0,0,0-.648,1.1l10.323,6.1a.671.671,0,0,0,.648-1.1Z" transform="translate(274.863 456.749)" fill="#2a2ac0"/>
      <path id="Path_221" data-name="Path 221" d="M877.917,672.646a.671.671,0,0,0-.648,1.1l10.323,6.1a.671.671,0,0,0,.648-1.1Z" transform="translate(279.56 448.8)" fill="#2a2ac0"/>
    </g>
  </g>
</svg>
