<svg xmlns="http://www.w3.org/2000/svg" xmlns:xlink="http://www.w3.org/1999/xlink" width="287.025" height="204.997" viewBox="0 0 287.025 204.997">
  <defs>
    <linearGradient id="linear-gradient" x1="0.5" y1="1" x2="0.5" gradientUnits="objectBoundingBox">
      <stop offset="0" stop-color="gray" stop-opacity="0.251"/>
      <stop offset="0.54" stop-color="gray" stop-opacity="0.122"/>
      <stop offset="1" stop-color="gray" stop-opacity="0.102"/>
    </linearGradient>
    <linearGradient id="linear-gradient-2" x1="0.5" y1="1" x2="0.5" y2="0" xlink:href="#linear-gradient"/>
  </defs>
  <g id="undraw_medicine_b1ol" transform="translate(0.005 -11.156)">
    <rect id="Rectangle_37" data-name="Rectangle 37" width="17.829" height="39.486" transform="translate(178.85 51.716)" fill="#6c63ff" opacity="0.1"/>
    <rect id="Rectangle_38" data-name="Rectangle 38" width="9.552" height="12.38" transform="translate(187.129 62.693)" fill="#6c63ff" opacity="0.1"/>
    <rect id="Rectangle_51" data-name="Rectangle 51" width="8.059" height="8.059" transform="translate(45.696 133.539)" fill="#6c63ff" opacity="0.1"/>
    <rect id="Rectangle_53" data-name="Rectangle 53" width="8.059" height="8.059" transform="translate(250.948 96.215)" fill="#6c63ff" opacity="0.1"/>
    <rect id="Rectangle_55" data-name="Rectangle 55" width="8.059" height="8.059" transform="translate(250.948 116.093)" fill="#6c63ff" opacity="0.1"/>
    <rect id="Rectangle_57" data-name="Rectangle 57" width="8.059" height="8.059" transform="translate(250.948 135.967)" fill="#6c63ff" opacity="0.1"/>
    <rect id="Rectangle_59" data-name="Rectangle 59" width="8.059" height="8.059" transform="translate(250.948 155.845)" fill="#6c63ff" opacity="0.1"/>
    <path id="Path_291" data-name="Path 291" d="M88.26,593.77c.071.091.139.193.213.284h1.5v1.935c.162.193.32.385.485.567v-2.513h2.267v4.044H91.8c.091.093.179.193.283.283h17.237v-4.6Zm7.2,4.316H93.193v-4.027H95.46Zm2.746,0H95.939v-4.027h2.267Zm2.746,0H98.685v-4.027h2.267Zm2.743,0h-2.267v-4.027h2.267Zm2.743,0h-2.267v-4.027h2.267Zm2.743,0h-2.267v-4.027h2.267Z" transform="translate(-76.293 -445.547)" fill="#6c63ff" opacity="0.1"/>
    <path id="Path_292" data-name="Path 292" d="M141.65,641.12c.258.147.521.283.788.431v-.142H144.7v1.275l.482.224v-1.5h2.267v2.451a.7.7,0,0,0,.136.051V641.12Z" transform="translate(-114.554 -479.48)" fill="#6c63ff" opacity="0.1"/>
    <path id="Path_294" data-name="Path 294" d="M356.038,280.538s-1.116-.156-1.116-1.782a25.48,25.48,0,0,0-.8-4.664h0c0-.014-.691-5.29-1.646-6.129s-2.182-5.764-2.182-5.764a11.618,11.618,0,0,0-.638-3.247,27.583,27.583,0,0,1-1.859-3.993c-.853-2.009-4.409-3.4-4.409-3.4s-6.429-3.729-8.251-4.945h0a2.794,2.794,0,0,1-.462-.349c-.317-.417-1.7-.425-1.7-.425a27.868,27.868,0,0,1-.329-2.91,2.214,2.214,0,0,0-.014-.306,9.8,9.8,0,0,0,4.31-5.333c.034-.108.062-.221.094-.329a.921.921,0,0,0,.553-.5,10.4,10.4,0,0,1,.371-1.133,4.267,4.267,0,0,1,1.048-.921,3.967,3.967,0,0,0,1.091-3.227c-.028-.949-.181-1.907-.122-2.851l.017-.238c.017-.142.037-.283.062-.419.139-.7.442-1.366.612-2.063a2.654,2.654,0,0,0-.21-2.083c-.581-.881-1.791-1.057-2.853-1.148-1.2-.1-2.281.031-3.052-.969a10.878,10.878,0,0,0-1.213-1.465c-.159-.147-1.7-1.088-1.7-1.15a6.888,6.888,0,0,0-4.8-.368c-.8.232-1.553.612-2.363.8-1.748.414-3.76-.034-5.245.966a6.164,6.164,0,0,0-1.788,2.346q-.567,1.085-1.15,2.168a14.042,14.042,0,0,0-1.527,3.709,5.888,5.888,0,0,0-.1.867h0v.462a1.524,1.524,0,0,0,.017.283c.017.088.014.116.023.176s.023.193.04.283.051.249.085.374c.014.054.034.1.051.156.028.1.062.19.1.283.02.048.04.1.062.147a2.657,2.657,0,0,0,.145.283c.023.04.04.077.062.113a3.77,3.77,0,0,0,.261.38c.606.757,1.5,1.238,2.159,1.947v.317a9.7,9.7,0,0,0,4.415,7.92c0,.108.014.218.02.326a16.214,16.214,0,0,1-.031,2.525,1.19,1.19,0,0,0-.941-.419,1.358,1.358,0,0,0-.363.031l-.025-.02h0v.026c-.623.153-1.391.8-2.125,2.647,0,0-2.233,2.516-3.933,2.411s-6,2.618-6,2.618-4.2,2.726-5.1,5.5a38.786,38.786,0,0,1-1.808,4.613l-5.191,10.7h0l-.958,8.487a39.39,39.39,0,0,1,.425,4.35c-.1.575,2.179,5.764,2.179,5.764s7.546,13.258,10.629,13.939l.221-.156a1.806,1.806,0,0,0,.417.156l.635-.448a6.92,6.92,0,0,1-.048,1.5c-.425,1.309.159,9.852.9,11.527s.479,23.632.479,23.632l-.1,1.938a.82.82,0,0,0,.026.17l-.026.459.077.04a5.459,5.459,0,0,1-.077,1.845,20.507,20.507,0,0,0-.374,3.253s-2.122,13.567-1.116,16.293,1.862,5.712,1.862,5.712,1.063,3.4.051,3.981-3.888,1.556-3.3,2.972c.538,1.309,2.581,4.817,2.885,5.33l-.025.269-.417,4.514a5.667,5.667,0,0,0,.479,1.723,2.969,2.969,0,0,0,3.029,1.893c.283-.02.612-.054.929-.1a40.17,40.17,0,0,0,6.886-1.791,2.809,2.809,0,0,1-.538-.445h0a1.555,1.555,0,0,1-.473-1.133c.045-.822-1.493-4.738-1.876-5.7-.059-.139-.091-.218-.091-.218s3.508-3.667,2.924-6.917c0,0-3.882-2.267-2.6-3.511a39.592,39.592,0,0,0,3.562-4.817s.1-13.36,0-15.355a16.517,16.517,0,0,1,.2-4.146c.042-.207.093-.408.147-.606a36.98,36.98,0,0,0,5.338.405c.652,0,1.315,0,1.984-.04q0,.283.026.612c.147,3.31.422,9.113.646,11.269.317,3.091,2.071,11.422,2.071,11.422s-3.346,2.148.584,7.441a7.174,7.174,0,0,1-.261,2.2h0a24.014,24.014,0,0,0-.672,2.766,4.876,4.876,0,0,0,.034,2.53c.638,1.252,4.463,1.15,4.463,1.15h0l.094-.017a5.484,5.484,0,0,1,4.049,1.221c1.454,1.167,6.971.655,9.957.283,1.17-.147,1.952-.283,1.952-.283a1.132,1.132,0,0,0,.04-.408h0c-.031-.734-.606-2.343-4.505-3.78,0,0-3.667-2.465-3.616-4.613h-.5a4,4,0,0,1,.507,0s-1.437-5.242-.85-5.667-1.17-6.234-1.17-6.234-1.006-9.748-1.06-10.431a5.95,5.95,0,0,1,.264-1.728l-.264-5.344s-.051-1.777,0-2.355a11.764,11.764,0,0,0-.122-1.5c-.025-.2-.051-.405-.079-.609,1.374-.349,2.267-.672,2.267-.672l-.159-18.6c1.167-2.267,1.383-7.24,1.377-10.768,0-2.267-.1-3.944-.1-3.944l1.6-2.6s.368-3.117-.215-3.8a.654.654,0,0,1,.071-.893,2.961,2.961,0,0,1,.349-.238s-.017-.025-.037-.062a2.816,2.816,0,0,1,.354-.252s-.567-.878-.06-1.25c.476.323.9.567,1.224.765-.023.207-.045.326-.045.326l.136-.283.5.283s2.5-4.979,2.445-5.713,1.7-3.825,1.7-3.825a3.828,3.828,0,0,1,1.17-2.3c.958-.68.742-5.608.742-5.608a12.082,12.082,0,0,1,.9-3.616C357.257,281.952,356.038,280.538,356.038,280.538Zm-47.82-2.185.048,1.187-.487-.785Z" transform="translate(-224.895 -176.369)" fill="url(#linear-gradient)"/>
    <path id="Path_295" data-name="Path 295" d="M470.118,494.871l-.612,2.607s-4.9-2.5-5.786-5.681,1.479-4.386,1.479-4.386l4.568,1.935Z" transform="translate(-345.22 -369.325)" fill="#fff"/>
    <path id="Path_296" data-name="Path 296" d="M470.118,494.871l-.612,2.607s-4.9-2.5-5.786-5.681,1.479-4.386,1.479-4.386l4.568,1.935Z" transform="translate(-345.22 -369.325)" opacity="0.1"/>
    <path id="Path_297" data-name="Path 297" d="M361.661,800.743a35.227,35.227,0,0,1-7.651,1.876,2.911,2.911,0,0,1-2.972-1.881,5.7,5.7,0,0,1-.468-1.714l.405-4.491.215-2.392,6.622-1.72.938,2.868.088.218c.377.958,1.887,4.854,1.842,5.667a1.547,1.547,0,0,0,.465,1.119A2.7,2.7,0,0,0,361.661,800.743Z" transform="translate(-264.274 -586.474)" fill="#fff"/>
    <path id="Path_298" data-name="Path 298" d="M447.527,797.706a1.132,1.132,0,0,1-.04.405s-9.7,1.618-11.68,0a5.253,5.253,0,0,0-4.08-1.2s-3.752.1-4.378-1.133a4.919,4.919,0,0,1-.031-2.516,23.964,23.964,0,0,1,.657-2.751l.15-.119.893-.717,10.45-.309h.079c-.051,2.136,3.548,4.588,3.548,4.588C446.918,795.374,447.482,796.975,447.527,797.706Z" transform="translate(-319.173 -585.722)" fill="#fff"/>
    <path id="Path_299" data-name="Path 299" d="M447.531,807.56a1.157,1.157,0,0,1-.043.405s-9.694,1.618-11.677,0a5.253,5.253,0,0,0-4.078-1.2s-3.755.1-4.378-1.133a4.916,4.916,0,0,1-.034-2.516c1.445.145,3.726.5,4.622,1.363A10.263,10.263,0,0,0,437,807.195C438.1,807.266,444.7,807.475,447.531,807.56Z" transform="translate(-319.177 -595.576)" opacity="0.1"/>
    <path id="Path_300" data-name="Path 300" d="M362.85,825.746a35.233,35.233,0,0,1-7.651,1.876,2.9,2.9,0,0,1-2.97-1.884c1.153.388,2.754.8,3.6.422,1-.442,4.534-.728,6.517-.85A2.8,2.8,0,0,0,362.85,825.746Z" transform="translate(-265.464 -611.478)" opacity="0.1"/>
    <path id="Path_301" data-name="Path 301" d="M394.385,310c-3.74-1.454-8.552-6.257-7.35-8.5a5.021,5.021,0,0,0,.468-1.8,16.463,16.463,0,0,0,.034-2.55,34.933,34.933,0,0,0-.5-4.148s11.677.264,11,1.983a6.433,6.433,0,0,0-.176,2.36c.054.98.2,2.088.343,3.026.2,1.286.408,2.267.408,2.267s-.714,1-1.133,1.054S399.752,312.073,394.385,310Z" transform="translate(-290.272 -230.003)" fill="#cf6f80"/>
    <path id="Path_302" data-name="Path 302" d="M359.833,793.506l-.088.1c-3.491-4.222-7.713,1.04-7.713,1.04l-.062-.11.215-2.392,6.622-1.72.938,2.868Z" transform="translate(-265.278 -586.474)" opacity="0.1"/>
    <path id="Path_303" data-name="Path 303" d="M441.589,789.639s-2.55-.054-3.91,1.148-7.934.261-7.651,0a.933.933,0,0,0,.147-.431l.893-.717,10.45-.309C441.557,789.52,441.589,789.639,441.589,789.639Z" transform="translate(-321.21 -585.693)" opacity="0.1"/>
    <path id="Path_304" data-name="Path 304" d="M356.883,659.256a7.88,7.88,0,0,0-.431,1.454,16.637,16.637,0,0,0-.2,4.126c.1,1.984,0,15.276,0,15.276a40.664,40.664,0,0,1-3.491,4.794c-1.25,1.25,2.55,3.494,2.55,3.494.567,3.23-2.868,6.88-2.868,6.88-3.491-4.222-7.713,1.043-7.713,1.043s-2.3-3.967-2.868-5.384,2.241-2.4,3.23-2.972S345.05,684,345.05,684s-.836-2.972-1.828-5.684,1.094-16.211,1.094-16.211a20.911,20.911,0,0,1,.366-3.233,5.408,5.408,0,0,0,.077-1.836c-.017-.207-.037-.38-.051-.5s-.026-.17-.026-.17l.04-.068,1.417-2.641S357.563,657.593,356.883,659.256Z" transform="translate(-257.983 -488.467)" fill="#2a2ac0"/>
    <path id="Path_305" data-name="Path 305" d="M433.843,699.109s-2.55-.054-3.91,1.134-7.934.261-7.651,0,.261-2.19.261-2.19c-3.857-5.265-.567-7.4-.567-7.4s-1.723-8.288-2.035-11.363c-.218-2.148-.487-7.92-.632-11.215-.062-1.417-.1-2.392-.1-2.392l3.151-.635.405-.082,7.6-1.524s.21,1.417.351,2.576a12.059,12.059,0,0,1,.119,1.493c-.051.567,0,2.341,0,2.341l.258,5.319a6.039,6.039,0,0,0-.258,1.72c.051.677,1.04,10.374,1.04,10.374s1.72,5.786,1.133,6.2S433.843,699.109,433.843,699.109Z" transform="translate(-313.465 -495.476)" fill="#2a2ac0"/>
    <path id="Path_306" data-name="Path 306" d="M398.507,294.983a6.43,6.43,0,0,0-.176,2.36,9.705,9.705,0,0,1-10.32-.193,34.91,34.91,0,0,0-.5-4.151S399.187,293.258,398.507,294.983Z" transform="translate(-290.747 -230.003)" opacity="0.1"/>
    <path id="Path_307" data-name="Path 307" d="M393.217,253.377a9.6,9.6,0,0,1-.476,3.006,9.7,9.7,0,0,1-18.911-2.774v-.232a9.7,9.7,0,1,1,19.392,0Z" transform="translate(-280.943 -194.659)" fill="#cf6f80"/>
    <path id="Path_308" data-name="Path 308" d="M394.385,326.943c-3.74-1.454-8.552-6.257-7.35-8.5a5.021,5.021,0,0,0,.468-1.8l5.12,4.208,3.168,2.6,2.409-6.132c.2,1.286.408,2.267.408,2.267s-.714,1-1.133,1.054S399.752,329.014,394.385,326.943Z" transform="translate(-290.272 -246.945)" opacity="0.1"/>
    <path id="Path_309" data-name="Path 309" d="M351.5,285.77,347.227,357.6l-5.577.366-14.44-41.651,2.369-49.449.5-10.448,6.421,5.273,3.171,2.6,2.479-6.31,4.61,4.018Z" transform="translate(-234.148 -187.175)" fill="#2a2ac0"/>
    <path id="Path_310" data-name="Path 310" d="M364.2,659.314a7.887,7.887,0,0,0-.431,1.454,41.089,41.089,0,0,1-11.691-3.652l-.077-.04.026-.456.014-.238,1.417-2.641S364.879,657.65,364.2,659.314Z" transform="translate(-265.299 -488.524)" opacity="0.1"/>
    <path id="Path_311" data-name="Path 311" d="M422.383,671.829a28.72,28.72,0,0,1-3.134.357c-.062-1.417-.1-2.392-.1-2.392l3.151-.635Z" transform="translate(-313.421 -499.575)" opacity="0.1"/>
    <path id="Path_312" data-name="Path 312" d="M439.651,666.066a22,22,0,0,1-7.911.745l-.04-1.8,7.6-1.524S439.509,664.893,439.651,666.066Z" transform="translate(-322.415 -495.511)" opacity="0.1"/>
    <path id="Path_313" data-name="Path 313" d="M338.74,417.4c-11.618,1.983-22.258-3.7-22.258-3.7l.1-1.927s.264-21.844-.467-23.519-1.3-10.167-.887-11.47-1.51-20.85-1.51-20.85L313.408,348,302,343.376l5.1-10.632a38.361,38.361,0,0,0,1.774-4.59c.887-2.76,5-5.472,5-5.472s4.222-2.709,5.891-2.607,3.857-2.4,3.857-2.4c1.615-4.117,3.077-2.253,3.077-2.253a3.677,3.677,0,0,1-.079.609c-.567,4.52,9.164,18.8,9.3,19.053h0l.927,22.572.938,28.565Z" transform="translate(-229.467 -245.772)" opacity="0.1"/>
    <path id="Path_314" data-name="Path 314" d="M337.619,417.358c-11.618,1.983-22.261-3.7-22.261-3.7l.1-1.927s.264-21.844-.47-23.519-1.3-10.167-.884-11.47-1.51-20.85-1.51-20.85l-.315-7.934-11.414-4.639,5.1-10.632a38.954,38.954,0,0,0,1.774-4.59c.884-2.76,5-5.472,5-5.472s4.222-2.709,5.888-2.607,3.857-2.4,3.857-2.4c1.618-4.117,3.4-2.253,3.4-2.253,0,.2-.17.283-.079.609,1.247,4.384,8.852,18.8,8.991,19.053h0l.938,22.573.938,28.566Z" transform="translate(-228.657 -245.729)" fill="#fff"/>
    <path id="Path_315" data-name="Path 315" d="M392.443,337.33c-1.25-.521-7.869-8.079-7.869-8.079v-1.72c-.241-.567-1.672-.221-2.834.176l.5-10.447.567.47C384.047,322.111,392.3,337.078,392.443,337.33Z" transform="translate(-286.612 -247.389)" opacity="0.1"/>
    <path id="Path_316" data-name="Path 316" d="M393.545,335.12c-1.252-.521-7.872-8.079-7.872-8.079v-1.72c-.241-.567-1.672-.221-2.834.176l.5-10.447.567.47C385.152,319.9,393.407,334.871,393.545,335.12Z" transform="translate(-287.4 -245.805)" fill="#fff"/>
    <path id="Path_317" data-name="Path 317" d="M351.5,516.783c.156,0,8.079-.833,8.079-.833s4.8,9.433,4.483,11.728-.884,4.327-2.814,3.967-10.385.283-10.385.283Z" transform="translate(-264.482 -389.778)" opacity="0.1"/>
    <path id="Path_318" data-name="Path 318" d="M350.388,514.573c.156,0,8.079-.833,8.079-.833s4.794,9.436,4.483,11.728-.887,4.327-2.814,3.967-10.385.283-10.385.283Z" transform="translate(-263.687 -388.195)" fill="#fff"/>
    <path id="Path_319" data-name="Path 319" d="M362.113,501.05s7.271,3.907,7.427,5.1-3.7-.521-4.534-.728a10.382,10.382,0,0,0-1.669-.261l-5.557.15Z" transform="translate(-269.441 -379.1)" fill="#cf6f80"/>
    <circle id="Ellipse_53" data-name="Ellipse 53" cx="0.765" cy="0.765" r="0.765" transform="translate(103.037 88.899)" opacity="0.1"/>
    <circle id="Ellipse_54" data-name="Ellipse 54" cx="0.765" cy="0.765" r="0.765" transform="translate(103.037 88.587)" fill="#3f3d56"/>
    <circle id="Ellipse_55" data-name="Ellipse 55" cx="0.765" cy="0.765" r="0.765" transform="translate(104.445 122.018)" opacity="0.1"/>
    <circle id="Ellipse_56" data-name="Ellipse 56" cx="0.765" cy="0.765" r="0.765" transform="translate(104.445 121.703)" fill="#3f3d56"/>
    <circle id="Ellipse_57" data-name="Ellipse 57" cx="0.765" cy="0.765" r="0.765" transform="translate(103.799 105.458)" opacity="0.1"/>
    <circle id="Ellipse_58" data-name="Ellipse 58" cx="0.765" cy="0.765" r="0.765" transform="translate(103.799 105.146)" fill="#3f3d56"/>
    <path id="Path_320" data-name="Path 320" d="M441.176,374.437s.521.782,0,1.148.051,1.25.051,1.25-1.3.762-.728,1.448.21,3.783.21,3.783l-1.564,2.59s.094,1.669.1,3.925c0,3.519-.207,8.467-1.352,10.722l.159,18.506s-5.477,2-10.062,1.391l-.68-29.7s.992-16.84,1.357-20.07a33.659,33.659,0,0,0,.261-5.058,56.5,56.5,0,0,0-.68-7.4s-.567-10.164-.623-12.978c-.026-1.346.045-5.273.125-9.008.088-4.083.187-7.934.187-7.934L426.9,318.87s1.034-.1,1.346.312a2.98,2.98,0,0,0,.453.349h0c1.785,1.207,8.093,4.919,8.093,4.919s3.491,1.389,4.327,3.378a29.436,29.436,0,0,0,1.822,3.967,12.246,12.246,0,0,1,.626,3.23s1.2,4.9,2.139,5.732,1.624,6.112,1.624,6.112l-8.288,6.517s-.728,10.841-.884,11.261S441.176,374.437,441.176,374.437Z" transform="translate(-318.976 -248.535)" fill="#fff"/>
    <path id="Path_321" data-name="Path 321" d="M441.44,374.209s.519.782,0,1.148.048,1.25.048,1.25-1.292.771-.725,1.456.21,3.783.21,3.783l-1.564,2.59s.094,1.669.1,3.925c0,3.519-.207,8.467-1.352,10.722l.156,18.506s-5.486,2-10.065,1.391l-.677-29.7s.992-16.84,1.357-20.07a33.322,33.322,0,0,0,.258-5.058,56.859,56.859,0,0,0-.677-7.4s-.567-10.164-.626-12.978c-.025-1.346.048-5.273.125-9.008.088-4.083.187-7.934.187-7.934l-1.366-8.294s1.366,0,1.68.422a2.686,2.686,0,0,0,.453.349h0c1.785,1.207,8.1,4.919,8.1,4.919s3.488,1.388,4.324,3.378a28.965,28.965,0,0,0,1.825,3.967,12.1,12.1,0,0,1,.623,3.23s1.2,4.9,2.139,5.732,1.615,6.1,1.615,6.1l-8.288,6.517s-.728,10.841-.887,11.261S441.44,374.209,441.44,374.209Z" transform="translate(-318.925 -248.306)" fill="#fff"/>
    <path id="Path_322" data-name="Path 322" d="M432.309,330.809l.748,2.182-3.939,3.967c.088-4.08.187-7.934.187-7.934l-1.366-8.294s1.366,0,1.68.422a2.581,2.581,0,0,0,.453.346h0l3.349,9.663Z" transform="translate(-319.721 -249.876)" opacity="0.1"/>
    <path id="Path_323" data-name="Path 323" d="M431.2,328.6l.751,2.182-3.939,3.967c.088-4.083.187-7.934.187-7.934l-1.369-8.294s1.369,0,1.68.422a2.833,2.833,0,0,0,.453.349h0l3.352,9.66Z" transform="translate(-318.925 -248.292)" fill="#fff"/>
    <path id="Path_324" data-name="Path 324" d="M393.217,253.377a9.6,9.6,0,0,1-.476,3.006.405.405,0,0,1-.306-.077,12.508,12.508,0,0,0-2.873-6.982A7.337,7.337,0,0,0,388,247.709a3.049,3.049,0,0,0-2.114-.6c-.85.116-1.6.694-2.46.768-1.133.093-2.148-.691-3.273-.731a3.216,3.216,0,0,0-2.406,1.116,6.6,6.6,0,0,0-1.289,2.392,14,14,0,0,0-.72,4.126c-.014.793-.091,1.788-.827,2.077a4.234,4.234,0,0,0-1.068-3.233l-.017-.017v-.232a9.7,9.7,0,1,1,19.392,0Z" transform="translate(-280.943 -194.659)" opacity="0.1"/>
    <path id="Path_325" data-name="Path 325" d="M380.049,221.964a6.676,6.676,0,0,0-4.709-.368c-.785.232-1.524.609-2.321.8-1.7.411-3.684-.034-5.143.961a6.151,6.151,0,0,0-1.751,2.332l-1.133,2.159a14.016,14.016,0,0,0-1.5,3.684,4.7,4.7,0,0,0,.723,3.8c.6.762,1.488,1.241,2.139,1.958a4.251,4.251,0,0,1,1.065,3.23c.74-.283.81-1.281.827-2.074a13.992,13.992,0,0,1,.72-4.126,6.577,6.577,0,0,1,1.289-2.392,3.222,3.222,0,0,1,2.406-1.116c1.133.04,2.151.822,3.273.728.85-.071,1.6-.652,2.46-.765a3.037,3.037,0,0,1,2.114.6,7.258,7.258,0,0,1,1.556,1.615,12.476,12.476,0,0,1,2.876,6.982c.32.235.782-.071.941-.434a10.367,10.367,0,0,1,.366-1.133,4.181,4.181,0,0,1,1.026-.912,4.011,4.011,0,0,0,1.071-3.21,15.989,15.989,0,0,1-.04-3.491c.133-.7.433-1.36.6-2.054a2.686,2.686,0,0,0-.2-2.071c-.567-.878-1.76-1.051-2.8-1.133-1.182-.1-2.238.028-2.992-.966a10.856,10.856,0,0,0-1.19-1.457C381.565,222.961,380.049,222.026,380.049,221.964Z" transform="translate(-273.454 -178.641)" fill="#512e4e"/>
    <path id="Path_326" data-name="Path 326" d="M303.659,420.6,300.7,415.13l-.938,8.447a39.156,39.156,0,0,1,.417,4.327c-.1.575,2.137,5.732,2.137,5.732s7.4,13.188,10.428,13.868l10.215-7.3-2.709-3.44s-.938-.365-1.173,0c0,0-5.03-8.654-5.551-9.28a3.126,3.126,0,0,1-.419-1.876s-.782-.833-.521-1.615-1.51-3.494-1.51-3.494l1.615-1.51Z" transform="translate(-227.862 -317.527)" opacity="0.1"/>
    <path id="Path_327" data-name="Path 327" d="M299.27,412.93l-.782.623L297.55,422a39.158,39.158,0,0,1,.417,4.327c-.1.575,2.139,5.732,2.139,5.732s7.4,13.188,10.425,13.868l10.218-7.3-2.712-3.44s-.938-.366-1.173,0c0,0-5.03-8.654-5.551-9.28a3.116,3.116,0,0,1-.417-1.876s-.782-.833-.521-1.615-1.513-3.494-1.513-3.494l1.615-1.51Z" transform="translate(-226.278 -315.95)" fill="#fff"/>
    <path id="Path_328" data-name="Path 328" d="M459.939,516.947c.567.689.21,3.78.21,3.78l-1.564,2.59s.094,1.672.1,3.925l-2.63.822a1.561,1.561,0,0,1-2.026-1.539l.453-14.624,6.135,2.346c-.521.363.051,1.252.051,1.252S459.367,516.258,459.939,516.947Z" transform="translate(-338.416 -386.876)" opacity="0.1"/>
    <path id="Path_329" data-name="Path 329" d="M461.042,515.844c.567.689.21,3.783.21,3.783l-1.564,2.59s.094,1.669.1,3.925l-2.678.836a1.53,1.53,0,0,1-1.983-1.507l.456-14.67,6.138,2.346c-.524.363.048,1.25.048,1.25S460.475,515.158,461.042,515.844Z" transform="translate(-339.204 -386.088)" fill="#fff"/>
    <path id="Path_330" data-name="Path 330" d="M470.758,498.229s-.417,2.661-1.459,2.817-1.51,4.3-2.55,4.157-.351-3.856-.315-4.576-1.133-3.7-.258-4.378,3.647,0,3.647,0Z" transform="translate(-346.889 -375.444)" fill="#cf6f80"/>
    <path id="Path_331" data-name="Path 331" d="M470.271,421.657l1.967-3.967a25.756,25.756,0,0,1,.782,4.639c0,1.615,1.094,1.774,1.094,1.774s1.2,1.417.567,2.448a11.884,11.884,0,0,0-.887,3.6s.207,4.9-.731,5.577a3.8,3.8,0,0,0-1.133,2.3s-1.723,3.074-1.669,3.805-2.4,5.681-2.4,5.681,1.2-6.152-5.786-8.81c0,0-.054-2.088.467-2.661s1.335-.833.825-3.726a33.788,33.788,0,0,1-.147-7.044,44.358,44.358,0,0,1,1.564-5.024Z" transform="translate(-344.183 -319.361)" opacity="0.1"/>
    <path id="Path_332" data-name="Path 332" d="M472.619,415.69l1.717.567a25.67,25.67,0,0,1,.785,4.639c0,1.615,1.094,1.774,1.094,1.774s1.2,1.417.567,2.448a11.853,11.853,0,0,0-.884,3.6s.207,4.9-.731,5.577a3.847,3.847,0,0,0-1.148,2.3s-1.72,3.074-1.666,3.806-2.4,5.681-2.4,5.681,1.2-6.152-5.786-8.81c0,0-.051-2.088.47-2.661s1.335-.833.825-3.726a33.792,33.792,0,0,1-.147-7.044,44.366,44.366,0,0,1,1.564-5.024Z" transform="translate(-345.681 -317.928)" fill="#fff"/>
    <path id="Path_333" data-name="Path 333" d="M360.15,776.219s2.737-1.72,4.534-.47S360.15,776.219,360.15,776.219Z" transform="translate(-271.14 -575.634)" opacity="0.1"/>
    <path id="Path_334" data-name="Path 334" d="M435.21,759.751a5.541,5.541,0,0,1,4.457,1.879C441.7,763.82,435.21,759.751,435.21,759.751Z" transform="translate(-324.931 -564.485)" opacity="0.1"/>
    <g id="Group_62" data-name="Group 62" transform="translate(89.927 48.914)" opacity="0.1">
      <path id="Path_335" data-name="Path 335" d="M397.527,259.169a4.2,4.2,0,0,0-1.029.915,10.365,10.365,0,0,0-.363,1.133c-.159.368-.621.669-.941.436a12.53,12.53,0,0,0-2.876-6.985,7.258,7.258,0,0,0-1.556-1.615,3.046,3.046,0,0,0-2.117-.6c-.85.116-1.6.694-2.457.765-1.133.1-2.151-.689-3.276-.728a3.208,3.208,0,0,0-2.4,1.119A6.56,6.56,0,0,0,379.221,256a14.009,14.009,0,0,0-.72,4.126c-.017.791-.091,1.777-.822,2.071a3.866,3.866,0,0,1,0,.629c.737-.283.81-1.281.827-2.074a13.99,13.99,0,0,1,.72-4.126,6.577,6.577,0,0,1,1.289-2.392,3.216,3.216,0,0,1,2.4-1.116c1.133.04,2.153.822,3.276.728.85-.071,1.6-.652,2.457-.765a3.046,3.046,0,0,1,2.117.6,7.264,7.264,0,0,1,1.556,1.615,12.5,12.5,0,0,1,2.876,6.982c.32.235.782-.071.941-.434a10.968,10.968,0,0,1,.363-1.133,4.19,4.19,0,0,1,1.029-.913,4.011,4.011,0,0,0,1.071-3.21v-.108A3.72,3.72,0,0,1,397.527,259.169Z" transform="translate(-373.629 -249.852)"/>
      <path id="Path_336" data-name="Path 336" d="M366.364,264.656c-.652-.717-1.541-1.2-2.139-1.955a4.148,4.148,0,0,1-.825-2.321,4.363,4.363,0,0,0,.825,2.944c.6.762,1.488,1.241,2.139,1.958a4.251,4.251,0,0,1,1.068,2.528A4.251,4.251,0,0,0,366.364,264.656Z" transform="translate(-363.385 -255.54)"/>
      <path id="Path_337" data-name="Path 337" d="M451.711,243.861c-.167.694-.465,1.354-.6,2.054a6.545,6.545,0,0,0-.088,1.417,5.506,5.506,0,0,1,.088-.8c.136-.7.434-1.36.6-2.054a3.484,3.484,0,0,0,.093-1.173A3.922,3.922,0,0,1,451.711,243.861Z" transform="translate(-426.184 -243.3)"/>
    </g>
    <rect id="Rectangle_62" data-name="Rectangle 62" width="1.777" height="40.002" transform="translate(37.067 122.72)" fill="#535461"/>
    <path id="Path_338" data-name="Path 338" d="M161.549,637.645l-.111,1.8L161.28,642l-.065,1.06-.156,2.55-.068,1.06-.159,2.55-1.791,28.923a4.9,4.9,0,0,1-4.891,4.6H144.84a4.9,4.9,0,0,1-4.888-4.6L138.169,649.2l-.159-2.55-.065-1.06-.159-2.55-.065-1.06-.159-2.55-.113-1.8A2.55,2.55,0,0,1,140,634.93h19.045a2.533,2.533,0,0,1,2.5,2.715Z" transform="translate(-111.541 -475.044)" fill="#3f3d56"/>
    <path id="Path_339" data-name="Path 339" d="M114.467,592.24l-.159,2.542H90.739l-.159-2.542Z" transform="translate(-64.569 -427.837)" fill="#9d9cb5"/>
    <path id="Path_340" data-name="Path 340" d="M114.81,604.95l-.156,2.545H91.529l-.159-2.545Z" transform="translate(-65.135 -436.946)" fill="#9d9cb5"/>
    <path id="Path_341" data-name="Path 341" d="M115.152,617.68,115,620.222H92.319l-.159-2.542Z" transform="translate(-65.702 -446.069)" fill="#9d9cb5"/>
    <path id="Path_342" data-name="Path 342" d="M70.561,536.671c10.345,7.486,14.664,19.195,14.664,19.195s-12.468-.428-22.816-7.914S47.75,528.76,47.75,528.76,60.212,529.185,70.561,536.671Z" transform="translate(-47.262 -398.958)" fill="#2a2ac0"/>
    <path id="Path_343" data-name="Path 343" d="M47.72,528.76s12.944,7.183,17.1,13.131S85.2,555.866,85.2,555.866" transform="translate(-47.24 -398.958)" fill="none" stroke="#535461" stroke-miterlimit="10" stroke-width="2"/>
    <path id="Path_344" data-name="Path 344" d="M120.417,492.567a25.158,25.158,0,0,1,7.985,10.445A22.8,22.8,0,0,1,108,488.26,25.089,25.089,0,0,1,120.417,492.567Z" transform="translate(-90.439 -369.935)" fill="#2a2ac0"/>
    <path id="Path_345" data-name="Path 345" d="M108,488.26s7.044,3.91,9.3,7.146,11.1,7.605,11.1,7.605" transform="translate(-90.439 -369.935)" fill="none" stroke="#535461" stroke-miterlimit="10" stroke-width="2"/>
    <path id="Path_346" data-name="Path 346" d="M189.028,515.531a34.7,34.7,0,0,0-7.838,16.4,31.54,31.54,0,0,0,23.423-25.752A34.731,34.731,0,0,0,189.028,515.531Z" transform="translate(-142.89 -382.777)" fill="#2a2ac0"/>
    <path id="Path_347" data-name="Path 347" d="M204.618,506.19s-8.427,7.288-10.569,12.309-12.859,13.44-12.859,13.44" transform="translate(-142.89 -382.784)" fill="none" stroke="#535461" stroke-miterlimit="10" stroke-width="2"/>
    <path id="Path_348" data-name="Path 348" d="M886.067,339.252s-4.678-23.275-2.887-26.171c0,0,.065-2.692-.042-6.123v-.394a8.684,8.684,0,0,0,.983.567,7.956,7.956,0,0,0,5.355.691l-1.417-1.578a2.616,2.616,0,0,1-.768-1.284,2.688,2.688,0,0,1,.306-1.388c1.346-3.4,1.417-7.676-1.176-10.272-2.19-2.182-2.723-5-5.1-6.99-1.737-1.459-2.692-3.6-3.593-5.667a31.864,31.864,0,0,1-1.967-5.364c-.34-1.448-.476-2.947-.944-4.361a5.551,5.551,0,0,0-2.712-3.42,10.233,10.233,0,0,1-1.474-.649,6.368,6.368,0,0,1-1.357-1.6c-2.145-2.834-9.328-1.165-12.728-.014a7.158,7.158,0,0,0-2.516,1.394l.031-.051c.026-.042.057-.085.085-.128a4.472,4.472,0,0,0-.952,1.063,25.426,25.426,0,0,0-1.116,2.55c-.5,1.006-3.273,3.814-2.08,4.945a1,1,0,0,0,.283.181,2.45,2.45,0,0,0,1.417.142l-.051.122a8.281,8.281,0,0,0-.615,3.142,8.5,8.5,0,0,0,8.58,8.43,8.661,8.661,0,0,0,2.627-.405c.02.108.037.215.057.323a1,1,0,0,0,.02.128h0l-.15.21a.272.272,0,0,0-.026-.037l-4.449,6.217c-.68.479-4.6,3.312-4.817,5.438-.232,2.326-.465,5.049-.465,5.049l-.031.584a1.751,1.751,0,0,1-1.417.383c-1.388-.227-1.388,5.1-1.388,5.1s-.924.85-1.559.113-2.312,1.76-2.312,1.76l-10.513.453h0l-.241.014-.567-1.754a.739.739,0,0,0-.927-.473.862.862,0,0,0-.128.054l-.04.023-.074.051-.037.034a.589.589,0,0,0-.057.06l-.034.04-.017.017h0a.714.714,0,0,0-.1.635l.487,1.5c-2.029.408-4.1,1.558-2.411,4.726l-8.575-1.584,2.774,2.329,14.321,2.956c-.19.34-.065.833.527,1.527,2.55,3,7.2,3.808,9.068,4.018A16.093,16.093,0,0,0,851,329.638l-.161,2.984s-4.735,22.743-5.6,23.9a13.477,13.477,0,0,0,1.2-1.578c-1.374,4.673-3.3,11.068-3.8,12.026-.811,1.53-1.561,7.721-.638,8.118a7.773,7.773,0,0,0,2.25-.025v.513l-.051,19.436s.232,11.921-.405,13.057a11.116,11.116,0,0,0-.808,3.519s-2.55,4.7-4.571,6.591a.312.312,0,0,1-.045.04l-.062-.442s-2.428,3.066-7.8,2.893c0,0-3.233,2.1,1.561,2.216s10.918-.17,10.918-.17,4.276-6.517,7.858-5.667v4.939h1.1v-5.018a4.5,4.5,0,0,0,1.952-2.955,3.594,3.594,0,0,0-1.281-3.324,2.125,2.125,0,0,1-.7-1.553l-.04.034a2.977,2.977,0,0,0-.037-.306c-.314-2.55-.708-7.812.683-11.706,1.907-5.339,2.485-12.774,1.1-17.2a39.544,39.544,0,0,1-1.1-4.31c-.034-.184-.065-.36-.094-.524a22.343,22.343,0,0,1,2.814.567c3.216.887,10.252,1.051,16.259,1,.014.164.031.337.051.51a18.569,18.569,0,0,0,.669,3.548c.754,2.267,1.1,12.261,1.1,12.261s.972,8.217.442,11.561c-.283,1.859-.567,3.726-.728,5.6v.037s-1.593,4.534-2.757,7c-.028.062-.059.125-.088.184a3.682,3.682,0,0,0-.91.2s-1.561,3.117-3.117,3.633-1.04,2.213,2.482,1.59,8.841-1.133,8.841-1.133l.229-3.179,1.082-1.354-.283,3.171,1.153-.227-.153-3.857,1.771-2.216s2.139-1.9-1.04-5.65v.082c-.034-.054-.065-.111-.1-.164v-.017c-.527-.816-.946-2.338-.178-5.038,1.388-4.879,2.2-9.308,2.2-9.308s3.1-11.864-.626-17.478h.164a9.438,9.438,0,0,1-.8-2.494q-.028-.153-.051-.315A20.446,20.446,0,0,0,888.5,371.9C888.5,371.89,887.167,343.735,886.067,339.252Zm-35-19.637v.057l-.567.028Zm-1.944.269a.625.625,0,0,0-.255.122,2.514,2.514,0,0,0-.445,1.165l-.884-.2s-.62-.133-1.513-.283l-.422-.425C846.763,320.168,847.97,320.026,849.12,319.884Z" transform="translate(-602.457 -209)" fill="url(#linear-gradient-2)"/>
    <path id="Path_349" data-name="Path 349" d="M971.657,742.1l-.337,4.015,1.13-.227-.17-4.355Z" transform="translate(-695.743 -534.824)" fill="#1d2366"/>
    <path id="Path_350" data-name="Path 350" d="M889.73,674.087c-1.363,3.882-.978,9.121-.672,11.666.113.941.218,1.513.218,1.513s-2.037,4.641-2.207,4.817-6,3.732-6,3.732L877,698.193s-4.131-1.811-2.151-2.434a3,3,0,0,0,1.068-.728c1.984-1.884,4.474-6.568,4.474-6.568a11.3,11.3,0,0,1,.793-3.508c.623-1.131.4-13.012.4-13.012l.048-19.368V650.05l7.75.057a17.549,17.549,0,0,0,.334,2.55,38.917,38.917,0,0,0,1.08,4.3C892.161,661.37,891.594,668.769,889.73,674.087Z" transform="translate(-639.61 -485.88)" fill="#ffb0b1"/>
    <path id="Path_351" data-name="Path 351" d="M889.277,777.578s-2.037,4.641-2.207,4.817-6,3.732-6,3.732L877,788.5s-4.131-1.811-2.151-2.434a3.006,3.006,0,0,0,1.068-.728l.176,1.238,1.358-.057L889.07,776.07C889.172,777.005,889.277,777.578,889.277,777.578Z" transform="translate(-639.61 -576.191)" opacity="0.1"/>
    <path id="Path_352" data-name="Path 352" d="M870.931,777l-11.683,10.524-1.357.057-.283-1.984s-2.375,3.055-7.651,2.885c0,0-3.168,2.094,1.527,2.207s10.691-.17,10.691-.17,4.188-6.517,7.693-5.667v4.922h1.077v-4.967a4.474,4.474,0,0,0,1.91-2.947,3.61,3.61,0,0,0-1.25-3.31A2.134,2.134,0,0,1,870.931,777Z" transform="translate(-621.406 -576.857)" fill="#1d2366"/>
    <path id="Path_353" data-name="Path 353" d="M996.938,679.606c-.754,2.692-.343,4.208.173,5.021v.017a9.277,9.277,0,0,1,1.354,3.307l.045.255-5.316,7.75-2.885,1.133s-4.638-1.584-3.791-2.037a4.345,4.345,0,0,0,.924-1.513c1.133-2.451,2.7-6.973,2.7-6.973v-.037c.164-1.867.425-3.729.714-5.582.519-3.335-.433-11.521-.433-11.521s-.34-9.954-1.077-12.219a18.692,18.692,0,0,1-.66-3.525c-.153-1.417-.187-2.584-.187-2.584s3.055-4.251,8.654.34a6.157,6.157,0,0,1,1.17,1.27c3.868,5.5.754,17.625.754,17.625S998.3,674.741,996.938,679.606Z" transform="translate(-719.946 -485.346)" fill="#ffb0b1"/>
    <path id="Path_354" data-name="Path 354" d="M998.54,777.367l-5.316,7.75-2.885,1.133s-4.639-1.584-3.791-2.037a4.34,4.34,0,0,0,.924-1.513,3.666,3.666,0,0,1,2.981,1.853l2.488-.4s3.281-6.449,4.018-6.843.113-2.944.113-2.944v-.649c.02.023.037.048.059.071v.017a9.28,9.28,0,0,1,1.354,3.307Z" transform="translate(-719.968 -574.507)" opacity="0.1"/>
    <path id="Path_355" data-name="Path 355" d="M980.952,785.136a3.463,3.463,0,0,0-4.132-1.641s-1.527,3.117-3.054,3.621-1.017,2.2,2.434,1.584,8.654-1.134,8.654-1.134l.227-3.171,3.508-4.469s2.091-1.9-1.02-5.628v.649s.623,2.55-.113,2.944-4.007,6.846-4.007,6.846Z" transform="translate(-710.296 -574.922)" fill="#1d2366"/>
    <path id="Path_356" data-name="Path 356" d="M907.9,650.087a17.55,17.55,0,0,0,.334,2.55,35.558,35.558,0,0,0-8.093-.082V650.03Z" transform="translate(-658.118 -485.865)" opacity="0.1"/>
    <path id="Path_357" data-name="Path 357" d="M1003.927,653.405s-4.534.221-9.94.266c-.153-1.417-.187-2.584-.187-2.584s3.054-4.25,8.654.34a6.152,6.152,0,0,1,1.17,1.269A6.919,6.919,0,0,0,1003.927,653.405Z" transform="translate(-725.239 -485.339)" opacity="0.1"/>
    <path id="Path_358" data-name="Path 358" d="M930.192,527.365s-19.858.961-25.911-.737-12.051-.227-12.955-.621-.17-6.563.623-8.09,5.146-16.973,5.146-16.973l4.188-21.836,4.412-1.216.312-.088,7.688-2.12,5.633-1.556s11.2,43.731,10.241,46.956a8.259,8.259,0,0,0-.164,3.794A9.48,9.48,0,0,0,930.192,527.365Z" transform="translate(-651.504 -359.808)" fill="#1d2366"/>
    <path id="Path_359" data-name="Path 359" d="M870.721,439s-3.967,4.25-.963,6.619,4.979.227,4.979.227Z" transform="translate(-635.539 -334.633)" fill="#c7daf5"/>
    <path id="Path_360" data-name="Path 360" d="M870.721,439s-3.967,4.25-.963,6.619,4.979.227,4.979.227Z" transform="translate(-635.539 -334.633)" opacity="0.1"/>
    <path id="Path_361" data-name="Path 361" d="M967.647,320.786s-.465.442-1.165,1.094c-1,.932-2.474,2.3-3.783,3.437-1.814,1.578-3.31,2.737-2.774,1.748s.434-2.712.167-4.324c-.02-.108-.037-.215-.057-.32a29.68,29.68,0,0,0-.876-3.5,60.586,60.586,0,0,1,4.551-5.279c.6-.567,1.026-.8,1.051-.405a13.165,13.165,0,0,0,.918,2.941c.014.04.028.077.045.116.329.85.7,1.723,1.026,2.477C967.25,319.924,967.647,320.786,967.647,320.786Z" transform="translate(-700.414 -244.364)" fill="#ffb0b1"/>
    <path id="Path_362" data-name="Path 362" d="M965.726,316.3a8.41,8.41,0,0,1-5.633,6.449,29.483,29.483,0,0,0-.932-3.823s5.517-7.127,5.6-5.684A13.5,13.5,0,0,0,965.726,316.3Z" transform="translate(-700.414 -244.372)" opacity="0.1"/>
    <path id="Path_363" data-name="Path 363" d="M933.679,351.456l.714-1.006s.473,2.885,2.213,1.612,1.825,9.575,1.825,9.575l-1.867,27.919-13.494-.808.383-13.491,1.527-6.8,3.777-9.886L931,355.3Z" transform="translate(-674.551 -271.174)" opacity="0.1"/>
    <path id="Path_364" data-name="Path 364" d="M938.452,362.211l-1.7,25.245-.178,2.675-7.523-.451-.283-.017-5.667-.34.383-13.494,1.527-6.8,3.777-9.886,2.247-3.267,2.675-3.862.714-1s.473,2.885,2.213,1.612l.037-.025h0C938.373,351.52,938.452,362.211,938.452,362.211Z" transform="translate(-674.572 -271.576)" fill="#1d2366"/>
    <path id="Path_365" data-name="Path 365" d="M886.286,406.26a2.065,2.065,0,0,1-2.037,1.187c-1.36-.229-1.357,5.1-1.357,5.1s-.9.85-1.527.113-2.267,1.754-2.267,1.754l-10.3.453s4.582,2.094,3.684,8.43c0,0,15.557-.964,16.067-2.434S886.286,406.26,886.286,406.26Z" transform="translate(-635.659 -311.17)" fill="#fff"/>
    <path id="Path_366" data-name="Path 366" d="M886.286,406.26a2.065,2.065,0,0,1-2.037,1.187c-1.36-.229-1.357,5.1-1.357,5.1s-.9.85-1.527.113-2.267,1.754-2.267,1.754l-10.3.453s4.582,2.094,3.684,8.43c0,0,15.557-.964,16.067-2.434S886.286,406.26,886.286,406.26Z" transform="translate(-635.659 -311.17)" opacity="0.03"/>
    <path id="Path_367" data-name="Path 367" d="M777.66,389.76l2.715,2.318,22.346,4.7-2.771-2.828Z" transform="translate(-556.958 -282.732)" fill="#fff"/>
    <path id="Path_368" data-name="Path 368" d="M919.747,350.449a57.108,57.108,0,0,0-2.321,6c-.74,2.111-1.357,3.967-1.357,3.967s-1.442,9.391-2.179,11.088-.337,8.317-.337,8.317l-2.746,16.347s-1.244,8.43-3.165,13.465a24.521,24.521,0,0,1-4.072,7.353c.85-1.15,5.483-23.8,5.483-23.8l1.53-28.568s.224-2.715.451-5.035,4.817-5.489,4.817-5.489l4.426-6.293C920.722,348.4,920.424,349.432,919.747,350.449Z" transform="translate(-660.576 -269.275)" fill="#fff"/>
    <path id="Path_369" data-name="Path 369" d="M893.962,470.871s-6.517-.283-9.674-4.075,7.3-1.513,7.3-1.513l2.717.623Z" transform="translate(-646.332 -352.982)" fill="#ffb0b1"/>
    <path id="Path_370" data-name="Path 370" d="M966.963,436.743a8.259,8.259,0,0,0-.164,3.794,54.01,54.01,0,0,1-14.715-1.417,33.057,33.057,0,0,1-5.149,3.225L944.9,417.126c-1.3-3.4-1.811-21.215-1.811-21.215s.116-.932.284-2.329a.268.268,0,0,1,.014-.1c.507-3.9,1.513-11.227,2.006-12.216.68-1.36-2.091-4.979-2.091-4.979l1.261-10.754.153-1.3c2.658-1.187,4.7-4.979,4.7-4.979l1.564-2.74h0c1.7-1.091,1.788,9.6,1.788,9.6l-1.7,25.244L956.7,389.8S967.924,433.518,966.963,436.743Z" transform="translate(-688.898 -275.463)" opacity="0.1"/>
    <path id="Path_371" data-name="Path 371" d="M975.12,421.405c-7.75,3.848-21.836.283-21.836.283a33.061,33.061,0,0,1-5.149,3.225L946.1,399.694c-1.3-3.4-1.808-21.215-1.808-21.215s1.638-13.292,2.318-14.65a2.183,2.183,0,0,0-.133-1.621,20.507,20.507,0,0,1-1.241-9.49l.544-4.622.15-1.295c2.66-1.19,4.7-4.981,4.7-4.981l1.417-2.482,2.607-4.573,1.235-2.165.21.19,1.6,1.451,1.7,1.417c2.219,1.87,6.052,5.163,8.03,7.177,1.74,1.774,2.29,8.674,2.448,13.868.1,3.42.042,6.1.042,6.1-1.754,2.887,2.833,26.069,2.833,26.069C973.819,393.352,975.12,421.405,975.12,421.405Z" transform="translate(-689.758 -258.382)" fill="#fff"/>
    <path id="Path_372" data-name="Path 372" d="M940.279,363.929s-5.319,10.124-4.7,13.973,2.375,8.2,1.528,9.221a3.131,3.131,0,0,1-2.491,1.244,8.189,8.189,0,0,0-3.117,1.811c0,.17-2.094.17-3.967.963a24.7,24.7,0,0,1-4.639,1.244s-5.384-.17-5.885.34-1.017,3.562.057,6,2.267,4.25,3.168,4.582,6.619-1.584,11.258-2.037,9.674-4.128,9.674-4.128,5.546-1.984,6.518-5.319-1.187-21.666-1.187-21.666S944.862,361.608,940.279,363.929Z" transform="translate(-669.794 -280.548)" opacity="0.03"/>
    <path id="Path_373" data-name="Path 373" d="M937.9,360.931s-5.319,10.127-4.7,13.973,2.375,8.2,1.525,9.223a3.117,3.117,0,0,1-2.488,1.244,8.189,8.189,0,0,0-3.117,1.811c0,.17-2.094.17-3.967.961a24.949,24.949,0,0,1-4.639,1.244s-5.384-.17-5.883.34-1.02,3.565.057,6,2.267,4.25,3.168,4.582,6.619-1.584,11.258-2.035,9.674-4.131,9.674-4.131,5.543-1.983,6.5-5.316-1.187-21.669-1.187-21.669S942.482,358.613,937.9,360.931Z" transform="translate(-668.095 -278.4)" opacity="0.03"/>
    <path id="Path_374" data-name="Path 374" d="M939.7,362.139s-5.318,10.127-4.7,13.972,2.375,8.2,1.527,9.221a3.117,3.117,0,0,1-2.491,1.247,8.224,8.224,0,0,0-3.117,1.808c0,.167-2.091.17-3.967.963a24.747,24.747,0,0,1-4.639,1.244s-5.384-.17-5.885.34-1.017,3.565.057,6,2.267,4.25,3.168,4.582,6.619-1.584,11.258-2.037,9.674-4.129,9.674-4.129,5.545-1.983,6.517-5.319-1.173-21.666-1.173-21.666S944.283,359.833,939.7,362.139Z" transform="translate(-669.386 -279.268)" fill="#fff"/>
    <path id="Path_375" data-name="Path 375" d="M991.791,458.36s-4.25-.85-2.771.567,1.471,2.658,3.281,2.6S991.791,458.36,991.791,458.36Z" transform="translate(-721.589 -348.326)" opacity="0.1"/>
    <path id="Path_376" data-name="Path 376" d="M1023.671,566.58s-1.921,1.3,1.754,4.3S1023.671,566.58,1023.671,566.58Z" transform="translate(-746.286 -426.062)" opacity="0.1"/>
    <path id="Path_377" data-name="Path 377" d="M1011.791,604.31c0,.17-.68,6.234,1.864,7.75S1011.791,604.31,1011.791,604.31Z" transform="translate(-738.073 -453.101)" opacity="0.1"/>
    <path id="Path_378" data-name="Path 378" d="M857.206,436.59c-2.051.071-6.483.7-4.185,4.984,2.032,3.794,5.446,1.258,7.367-.666A7.239,7.239,0,0,0,857.206,436.59Z" transform="translate(-623.889 -332.906)" fill="#ffb0b1"/>
    <path id="Path_379" data-name="Path 379" d="M881.39,451Z" transform="translate(-644.681 -343.233)" fill="#ffb0b1"/>
    <path id="Path_380" data-name="Path 380" d="M880.74,451.488l.085-.088Z" transform="translate(-644.215 -343.519)" fill="#ffb0b1"/>
    <path id="Path_381" data-name="Path 381" d="M963.158,336.253c-2.176,1.488-4,2.743-4.358,3-.975.723-2.834,4.964-4.032,7.129-.955,1.743-4.058,2.19-5.228,2.3l.15-1.3c2.661-1.19,4.7-4.981,4.7-4.981l5.259-9.221,1.811,1.646Z" transform="translate(-693.52 -258.805)" opacity="0.1"/>
    <path id="Path_382" data-name="Path 382" d="M963.158,335.653c-2.176,1.488-4,2.743-4.358,3.007-.975.72-2.834,4.962-4.032,7.126-.955,1.743-4.058,2.19-5.228,2.3l.15-1.295c2.661-1.19,4.7-4.981,4.7-4.981l5.259-9.221,1.811,1.641S962.138,334.792,963.158,335.653Z" transform="translate(-693.52 -258.375)" fill="#dce7ff"/>
    <path id="Path_383" data-name="Path 383" d="M940.306,296.667a8.4,8.4,0,1,1-7.145-8.308,8.39,8.39,0,0,1,7.145,8.308Z" transform="translate(-674.856 -226.609)" fill="#ffb0b1"/>
    <path id="Path_384" data-name="Path 384" d="M956.516,324.931a7.47,7.47,0,0,1-2.712-2.913,7.673,7.673,0,0,0-1.6-2.678,7.085,7.085,0,0,0-2.607-1.006,7.642,7.642,0,0,1-5.574-6.707c-.045-1.462.411-2.921.2-4.369a4.84,4.84,0,0,0-.946-2.253,7.769,7.769,0,0,0-.819-.881c-.4-.374-.813-.737-1.176-1.133a4.4,4.4,0,0,1-.595-.808,3.893,3.893,0,0,1-.326-.751c-.567-1.734-.051-3.791-.674-5.545l-.034-.1a1.8,1.8,0,0,0-1.38-1.295c-.666-.048-1.235.5-1.87.751-1.329.516-2.763-.363-3.871-1.258s-2.358-1.918-3.766-1.72a12.163,12.163,0,0,0-2.528,1.1,3.544,3.544,0,0,1-.6.173,8.4,8.4,0,0,1,16.2,3.131,8.31,8.31,0,0,1-.184,1.754c.014.04.028.076.045.116.328.85.7,1.723,1.026,2.477l1.6,1.451,1.7,1.417c2.219,1.87,6.053,5.163,8.031,7.177C955.808,312.84,956.352,319.737,956.516,324.931Z" transform="translate(-676.4 -226.608)" opacity="0.1"/>
    <path id="Path_385" data-name="Path 385" d="M921.528,271.878c.405-.825.606-1.748,1.091-2.53a6.029,6.029,0,0,1,3.228-2.3c3.329-1.148,10.365-2.814,12.468,0a6.138,6.138,0,0,0,1.329,1.587,9.87,9.87,0,0,0,1.442.649,5.512,5.512,0,0,1,2.652,3.4c.456,1.4.592,2.9.927,4.344a31.947,31.947,0,0,0,1.927,5.347c.881,2.057,1.816,4.191,3.516,5.645,2.321,1.984,2.834,4.792,4.987,6.968,2.55,2.584,2.468,6.849,1.153,10.235a2.814,2.814,0,0,0-.3,1.383,2.713,2.713,0,0,0,.751,1.281l1.394,1.573a7.839,7.839,0,0,1-8.566-3.95,7.663,7.663,0,0,0-1.6-2.678,7.066,7.066,0,0,0-2.6-1,7.652,7.652,0,0,1-5.574-6.713c-.045-1.459.411-2.919.2-4.364a4.814,4.814,0,0,0-.949-2.267c-.779-1.017-1.955-1.7-2.59-2.834-1.074-1.9-.258-4.358-1.031-6.393a1.808,1.808,0,0,0-1.38-1.295c-.666-.048-1.235.5-1.873.751-1.326.516-2.76-.36-3.868-1.258s-2.357-1.918-3.769-1.717a11.845,11.845,0,0,0-2.525,1.1c-.635.244-1.921.462-2.477-.074C918.32,275.683,921.038,272.886,921.528,271.878Z" transform="translate(-671.779 -210.298)" fill="#591d4b"/>
    <path id="Path_386" data-name="Path 386" d="M950.16,311.545a7.662,7.662,0,0,0-1.6-2.675,7.063,7.063,0,0,0-2.607-1.006,7.653,7.653,0,0,1-5.574-6.71c-.045-1.459.411-2.921.207-4.367a4.846,4.846,0,0,0-.949-2.253c-.782-1.017-1.958-1.7-2.59-2.834-1.074-1.893-.258-4.355-1.034-6.393a1.814,1.814,0,0,0-1.377-1.295c-.663-.051-1.238.507-1.873.754-1.326.516-2.763-.363-3.868-1.258s-2.36-1.918-3.769-1.72a12.074,12.074,0,0,0-2.525,1.1c-.635.244-1.924.465-2.48-.071-1.167-1.133,1.55-3.924,2.038-4.928a27.208,27.208,0,0,1,1.094-2.53c.026-.042.054-.085.082-.128a4.5,4.5,0,0,0-.932,1.06c-.485.782-.686,1.7-1.091,2.53-.49,1-3.208,3.8-2.037,4.928.567.538,1.842.317,2.476.074a11.664,11.664,0,0,1,2.525-1.1c1.417-.2,2.664.822,3.769,1.717s2.55,1.774,3.871,1.258c.635-.247,1.19-.8,1.87-.751a1.8,1.8,0,0,1,1.38,1.295c.773,2.035-.043,4.5,1.031,6.393.635,1.114,1.811,1.811,2.59,2.834a4.818,4.818,0,0,1,.949,2.267c.207,1.445-.249,2.9-.2,4.364a7.64,7.64,0,0,0,5.574,6.713,7.106,7.106,0,0,1,2.6,1,7.5,7.5,0,0,1,1.6,2.678,7.839,7.839,0,0,0,8.566,3.95l-.657-.742A7.924,7.924,0,0,1,950.16,311.545Z" transform="translate(-671.624 -217.269)" opacity="0.1"/>
    <path id="Path_387" data-name="Path 387" d="M950.185,350.978a57.19,57.19,0,0,0-2.321,6c-.83-.323-1.584-2.383-1.584-2.383l4.426-6.3C951.159,348.923,950.862,349.958,950.185,350.978Z" transform="translate(-691.184 -269.634)" opacity="0.1"/>
    <path id="Path_388" data-name="Path 388" d="M950.785,350.385a57.1,57.1,0,0,0-2.321,6c-.83-.32-1.584-2.383-1.584-2.383l4.426-6.293C951.759,348.331,951.462,349.368,950.785,350.385Z" transform="translate(-691.614 -269.211)" fill="#dce7ff"/>
    <path id="Path_389" data-name="Path 389" d="M863.547,437.354l-2.454-7.739a.722.722,0,0,1,.47-.91h0a.725.725,0,0,1,.907.47l2.454,7.73-.244,1.618Z" transform="translate(-630.111 -327.232)" fill="#be8b87"/>
    <path id="Path_390" data-name="Path 390" d="M861.62,428.964h0a.725.725,0,0,1,.909.47l2.454,7.73-.184,1.213.179.187.244-1.618-2.468-7.73a.725.725,0,0,0-.907-.47h0a.725.725,0,0,0-.377.283A.991.991,0,0,1,861.62,428.964Z" transform="translate(-630.406 -327.261)" fill="#fff" opacity="0.1"/>
    <path id="Path_391" data-name="Path 391" d="M822.6,399.576l1.377-.436-.2,1.326-.042.292-.4-.419Z" transform="translate(-589.164 -289.454)" fill="#efc8c4"/>
    <path id="Path_392" data-name="Path 392" d="M872.42,461.765a.288.288,0,0,1,.088-.074.125.125,0,0,1,.133,0,.356.356,0,0,1,.048.077.244.244,0,0,0,.176.116l-.042.283Z" transform="translate(-638.253 -350.88)" fill="#727a9c"/>
    <path id="Path_393" data-name="Path 393" d="M861.13,441.7s4.922-.028,3.763,2.066a4.426,4.426,0,0,1-2.97,2.346Z" transform="translate(-630.162 -336.568)" fill="#ffb0b1"/>
    <path id="Path_394" data-name="Path 394" d="M589.341,110.05h-.213a24.237,24.237,0,0,0-20.235,11.077,24.237,24.237,0,0,0-20.235-11.077h-.212a24.086,24.086,0,0,0-23.856,24.071c0,7.88,3.451,19.062,10.181,28.262,12.822,17.531,34.122,32.87,34.122,32.87s21.3-15.335,34.119-32.87c6.733-9.2,10.181-20.382,10.181-28.262A24.086,24.086,0,0,0,589.341,110.05ZM586.3,163.733a4.775,4.775,0,0,1-4.44-3.066H576.8a1.6,1.6,0,0,1-1.5-1.088l-1.553-4.678-4.913,17.169a1.59,1.59,0,0,1-1.525,1.148h-.1a1.57,1.57,0,0,1-1.474-1.315l-5.063-30.456-3.7,18.022a1.578,1.578,0,0,1-1.533,1.2h-7.121a1.584,1.584,0,1,1,0-3.165h5.874l5.242-24.23a1.59,1.59,0,0,1,3.117.13l5.171,31.068,4.4-15.361a1.559,1.559,0,0,1,1.482-1.133h.031a1.581,1.581,0,0,1,1.5,1.088l2.808,8.447H581.8a4.749,4.749,0,1,1,4.511,6.234Z" transform="translate(-388.984 -98.894)" fill="#2a2ac0"/>
  </g>
</svg>
